<svg xmlns="http://www.w3.org/2000/svg" viewBox="0 0 36 36">
	<path fill="#4B92DB" d="M36 27c0 2.209-1.791 4-4 4H4c-2.209 0-4-1.791-4-4V9c0-2.209 1.791-4 4-4h28c2.209 0 4 1.791 4 4v18z"/>
	<g fill="#FFF">
		leaf1
		<path d="M10.736,19.855 L10.781,19.892 C10.733,19.557 10.707,19.193 10.803,18.874 C10.948,18.361 11.13,17.862 11.223,17.331 C11.298,16.918 11.383,16.454 11.335,16.056 C11.279,16.271 11.223,16.483 11.104,16.669 C10.655,17.364 10.194,18.182 10.51,19.067 C10.502,19.078 10.491,19.089 10.48,19.082 C10.354,18.788 10.324,18.457 10.242,18.145 C10.023,17.316 9.387,16.621 9.573,15.662 C9.473,15.87 9.435,16.104 9.383,16.331 C9.272,16.918 9.383,17.539 9.543,18.082 C9.74,18.755 10.398,19.238 10.736,19.855 Z M10.565,15.55 C10.714,15.245 10.956,14.955 11.246,14.74 C11.885,14.257 12.584,13.632 12.595,12.814 C12.379,13.402 11.736,13.647 11.309,14.048 C11.082,14.26 10.907,14.517 10.807,14.785 L10.792,14.773 C10.844,14.535 10.945,14.324 11.015,14.093 C11.201,13.469 11.168,12.721 11.777,12.301 C11.465,12.383 11.201,12.584 10.967,12.844 C10.473,13.391 10.517,14.197 10.58,14.911 C10.603,15.134 10.591,15.324 10.565,15.55 Z M11.309,13.77 C11.651,13.45 12.045,13.212 12.335,12.833 C12.681,12.376 12.982,11.863 13.435,11.469 C12.822,11.707 12.16,11.952 11.762,12.584 C11.528,12.952 11.491,13.387 11.309,13.77 Z M11.565,15.387 C11.714,15.086 11.807,14.744 11.848,14.413 C11.792,14.554 11.707,14.684 11.588,14.796 C11.09,15.268 10.506,15.729 10.394,16.398 C10.38,16.494 10.368,16.591 10.342,16.684 C10.32,16.695 10.32,16.669 10.313,16.662 L10.376,15.836 C10.435,15.03 10.012,14.134 10.476,13.424 C10.461,13.42 10.45,13.435 10.439,13.439 C10.015,13.978 9.733,14.573 9.733,15.297 C9.733,16.193 10.249,16.822 10.313,17.662 C10.447,16.784 11.183,16.16 11.565,15.387 Z M10.58,20.892 C11.06,21.271 11.632,21.565 12.071,21.899 C11.985,21.68 11.844,21.479 11.788,21.253 C11.532,20.215 11.673,19.011 11.231,18.052 C11.313,18.598 11.097,19.082 11.049,19.602 C11.008,20.03 11.082,20.446 11.249,20.803 C11.298,20.911 11.387,21.004 11.413,21.115 C11.253,20.97 11.138,20.788 11.03,20.609 C10.513,19.773 9.432,19.23 9.357,18.212 C9.32,18.665 9.361,19.145 9.51,19.546 C9.714,20.096 10.116,20.524 10.58,20.892 Z M17.1,23.639 C16.264,23.639 15.513,24.044 14.781,24.349 C14.115,24.624 13.234,24.572 12.643,24.163 C12.933,24.527 13.324,24.754 13.729,24.907 C14.476,25.204 15.35,24.977 15.989,24.568 C16.446,24.275 16.84,23.858 17.387,23.858 C18.268,23.858 19.193,24.762 19.985,25.579 C20.108,25.479 20.238,25.375 20.338,25.26 C19.509,24.472 18.338,23.639 17.1,23.639 Z M15.606,23.728 C15.736,23.695 15.892,23.706 16.011,23.661 C15.513,23.561 15.034,23.409 14.647,23.055 C14.093,22.55 13.602,22.011 13.011,21.617 C13.476,22.241 13.606,23.148 14.454,23.464 C14.602,23.52 14.777,23.531 14.907,23.613 C14.744,23.639 14.602,23.587 14.45,23.554 C13.357,23.319 12.026,23.62 11.209,22.691 C11.517,23.301 12.156,23.78 12.774,23.981 C13.721,24.301 14.714,23.948 15.606,23.728 Z M13.777,23.271 C13.067,22.699 12.959,21.84 12.643,21.089 C12.446,20.621 12.127,20.201 11.785,19.792 C12.16,20.543 11.997,21.509 12.484,22.215 C12.636,22.438 12.848,22.65 13.045,22.825 L13.037,22.836 C12.859,22.754 12.699,22.628 12.536,22.494 C11.684,21.784 10.402,21.695 9.893,20.539 C10.03,21.386 10.703,22.137 11.432,22.613 C12.123,23.067 13.011,23.018 13.777,23.271 Z"/>
		leaf2
		<path d="M23.669,12.833 C23.959,13.216 24.353,13.45 24.695,13.77 C24.513,13.387 24.475,12.952 24.245,12.584 C23.847,11.952 23.186,11.707 22.572,11.469 C23.018,11.863 23.319,12.372 23.669,12.833 Z M24.988,14.093 C25.055,14.32 25.156,14.535 25.212,14.773 L25.197,14.785 C25.096,14.517 24.922,14.26 24.695,14.048 C24.267,13.643 23.624,13.402 23.412,12.811 C23.424,13.632 24.122,14.257 24.762,14.736 C25.048,14.952 25.293,15.242 25.442,15.547 C25.416,15.32 25.405,15.13 25.427,14.911 C25.494,14.193 25.535,13.391 25.044,12.844 C24.81,12.584 24.546,12.379 24.234,12.301 C24.836,12.721 24.803,13.469 24.988,14.093 Z M25.628,15.833 L25.691,16.658 C25.684,16.665 25.684,16.688 25.661,16.68 C25.635,16.587 25.624,16.491 25.609,16.394 C25.498,15.729 24.91,15.264 24.416,14.792 C24.297,14.68 24.212,14.55 24.156,14.409 C24.197,14.74 24.29,15.082 24.438,15.383 C24.821,16.156 25.557,16.781 25.691,17.662 C25.754,16.818 26.271,16.193 26.271,15.297 C26.271,14.573 25.988,13.978 25.565,13.439 C25.553,13.431 25.542,13.42 25.527,13.424 C25.992,14.134 25.565,15.03 25.628,15.833 Z M25.762,18.141 C25.68,18.453 25.65,18.788 25.524,19.078 C25.513,19.085 25.501,19.071 25.494,19.063 C25.81,18.178 25.349,17.364 24.899,16.665 C24.78,16.483 24.725,16.268 24.669,16.052 C24.62,16.454 24.706,16.915 24.78,17.327 C24.877,17.859 25.055,18.357 25.2,18.87 C25.297,19.189 25.271,19.55 25.223,19.888 L25.267,19.851 C25.602,19.234 26.263,18.751 26.464,18.074 C26.624,17.535 26.736,16.911 26.624,16.323 C26.572,16.097 26.531,15.863 26.434,15.654 C26.617,16.617 25.981,17.312 25.762,18.141 Z M21.219,24.349 C20.483,24.044 19.736,23.639 18.9,23.639 C17.665,23.639 16.491,24.475 15.669,25.26 C15.77,25.375 15.9,25.483 16.022,25.579 C16.81,24.765 17.74,23.858 18.621,23.858 C19.167,23.858 19.561,24.275 20.018,24.568 C20.654,24.974 21.528,25.204 22.279,24.907 C22.68,24.754 23.07,24.527 23.364,24.163 C22.769,24.568 21.885,24.624 21.219,24.349 Z M24.977,20.602 C24.866,20.78 24.754,20.966 24.594,21.108 C24.62,21 24.71,20.903 24.758,20.795 C24.925,20.435 25,20.022 24.959,19.595 C24.907,19.074 24.691,18.591 24.777,18.045 C24.331,19.004 24.475,20.208 24.219,21.245 C24.163,21.476 24.022,21.676 23.936,21.892 C24.375,21.557 24.948,21.264 25.427,20.885 C25.892,20.52 26.293,20.089 26.505,19.531 C26.658,19.13 26.695,18.65 26.658,18.197 C26.579,19.223 25.494,19.766 24.977,20.602 Z M23.461,22.494 C23.297,22.628 23.137,22.754 22.959,22.836 L22.951,22.825 C23.148,22.647 23.36,22.435 23.513,22.215 C24,21.509 23.836,20.539 24.212,19.792 C23.87,20.201 23.55,20.621 23.353,21.089 C23.037,21.84 22.929,22.699 22.219,23.271 C22.985,23.018 23.873,23.067 24.561,22.617 C25.286,22.141 25.959,21.39 26.1,20.543 C25.594,21.695 24.316,21.784 23.461,22.494 Z M21.554,23.557 C21.401,23.591 21.26,23.639 21.096,23.617 C21.227,23.535 21.398,23.524 21.55,23.468 C22.398,23.148 22.528,22.241 22.992,21.621 C22.401,22.015 21.911,22.554 21.357,23.059 C20.97,23.412 20.491,23.561 19.992,23.665 C20.111,23.71 20.268,23.699 20.398,23.732 C21.294,23.955 22.282,24.304 23.234,23.988 C23.847,23.784 24.487,23.304 24.799,22.699 C23.977,23.624 22.643,23.327 21.554,23.557 Z"/>
		grid
		<path d="M18,10.867 C14.617,10.867 11.866,13.617 11.866,17 C11.866,20.383 14.617,23.134 18,23.134 C21.383,23.134 24.133,20.383 24.133,17 C24.133,13.617 21.383,10.867 18,10.867 Z M18,18.171 C17.353,18.171 16.829,17.647 16.829,17 C16.829,16.353 17.353,15.829 18,15.829 C18.647,15.829 19.171,16.353 19.171,17 C19.171,17.647 18.647,18.171 18,18.171 Z M18.881,16.015 C18.665,15.822 18.387,15.699 18.078,15.68 L18.078,14.677 C18.662,14.695 19.193,14.929 19.591,15.305 L18.881,16.015 Z M17.926,15.68 C17.617,15.699 17.338,15.822 17.123,16.015 L16.413,15.305 C16.81,14.929 17.342,14.695 17.926,14.677 L17.926,15.68 L17.926,15.68 Z M17.019,16.123 C16.825,16.338 16.703,16.617 16.684,16.926 L15.68,16.926 C15.699,16.342 15.933,15.81 16.309,15.413 L17.019,16.123 Z M16.684,17.074 C16.703,17.383 16.825,17.662 17.019,17.877 L16.309,18.587 C15.933,18.19 15.699,17.658 15.68,17.074 L16.684,17.074 L16.684,17.074 Z M17.123,17.985 C17.338,18.178 17.617,18.301 17.926,18.32 L17.926,19.323 C17.342,19.305 16.81,19.071 16.413,18.695 L17.123,17.985 Z M18.074,18.316 C18.383,18.297 18.662,18.175 18.877,17.981 L19.587,18.691 C19.19,19.067 18.658,19.301 18.074,19.32 L18.074,18.316 Z M18.985,17.877 C19.178,17.662 19.301,17.383 19.32,17.074 L20.323,17.074 C20.305,17.658 20.071,18.19 19.695,18.587 L18.985,17.877 Z M19.32,16.926 C19.301,16.617 19.178,16.338 18.985,16.123 L19.695,15.413 C20.071,15.81 20.305,16.342 20.323,16.926 L19.32,16.926 Z M19.695,15.201 C19.268,14.799 18.703,14.547 18.074,14.528 L18.074,13.413 C19.007,13.431 19.855,13.811 20.483,14.413 L19.695,15.201 Z M17.926,14.528 C17.301,14.547 16.732,14.799 16.305,15.201 L15.517,14.413 C16.145,13.811 16.993,13.431 17.926,13.413 L17.926,14.528 L17.926,14.528 Z M16.201,15.305 C15.799,15.732 15.547,16.297 15.528,16.926 L14.413,16.926 C14.431,15.993 14.811,15.145 15.413,14.517 L16.201,15.305 Z M15.532,17.074 C15.55,17.699 15.803,18.268 16.205,18.695 L15.413,19.483 C14.811,18.855 14.431,18.007 14.413,17.074 L15.532,17.074 Z M16.309,18.799 C16.736,19.201 17.301,19.453 17.929,19.472 L17.929,20.587 C16.996,20.569 16.149,20.189 15.521,19.587 L16.309,18.799 Z M18.074,19.468 C18.699,19.45 19.268,19.197 19.695,18.795 L20.483,19.584 C19.855,20.186 19.007,20.565 18.074,20.583 L18.074,19.468 Z M19.799,18.691 C20.201,18.264 20.453,17.699 20.472,17.071 L21.587,17.071 C21.569,18.004 21.189,18.851 20.587,19.479 L19.799,18.691 Z M20.472,16.926 C20.453,16.301 20.201,15.732 19.799,15.305 L20.587,14.517 C21.189,15.145 21.569,15.993 21.587,16.926 L20.472,16.926 Z M20.587,14.309 C19.933,13.68 19.048,13.286 18.074,13.268 L18.074,12.279 C19.32,12.298 20.45,12.803 21.282,13.61 L20.587,14.309 Z M17.926,13.264 C16.952,13.283 16.067,13.677 15.413,14.305 L14.718,13.61 C15.55,12.803 16.68,12.298 17.926,12.279 L17.926,13.264 Z M15.309,14.413 C14.68,15.067 14.286,15.952 14.268,16.926 L13.283,16.926 C13.301,15.68 13.807,14.55 14.614,13.718 L15.309,14.413 Z M14.268,17.074 C14.286,18.048 14.68,18.933 15.309,19.587 L14.614,20.282 C13.807,19.45 13.301,18.32 13.283,17.074 L14.268,17.074 L14.268,17.074 Z M15.413,19.691 C16.067,20.32 16.952,20.714 17.926,20.732 L17.926,21.717 C16.68,21.699 15.55,21.193 14.718,20.386 L15.413,19.691 Z M18.074,20.736 C19.048,20.717 19.933,20.323 20.587,19.695 L21.282,20.39 C20.45,21.197 19.32,21.702 18.074,21.721 L18.074,20.736 Z M20.695,19.587 C21.323,18.933 21.717,18.048 21.736,17.074 L22.721,17.074 C22.702,18.32 22.197,19.45 21.39,20.282 L20.695,19.587 Z M21.736,16.926 C21.717,15.952 21.323,15.067 20.695,14.413 L21.39,13.718 C22.197,14.55 22.702,15.68 22.721,16.926 L21.736,16.926 Z M21.39,13.506 C20.528,12.669 19.364,12.149 18.074,12.13 L18.074,11.015 C19.669,11.034 21.115,11.681 22.178,12.718 L21.39,13.506 Z M17.926,12.13 C16.639,12.149 15.472,12.669 14.61,13.506 L13.826,12.718 C14.889,11.681 16.335,11.034 17.929,11.015 L17.929,12.13 L17.926,12.13 Z M14.506,13.61 C13.669,14.472 13.149,15.636 13.13,16.926 L12.015,16.926 C12.034,15.331 12.681,13.885 13.718,12.822 L14.506,13.61 Z M13.134,17.074 C13.153,18.361 13.673,19.528 14.509,20.39 L13.718,21.174 C12.681,20.115 12.037,18.669 12.019,17.074 L13.134,17.074 Z M14.614,20.494 C15.476,21.331 16.639,21.851 17.929,21.87 L17.929,22.985 C16.335,22.966 14.889,22.319 13.826,21.282 L14.614,20.494 Z M18.074,21.87 C19.361,21.851 20.528,21.331 21.39,20.494 L22.178,21.282 C21.115,22.319 19.669,22.966 18.074,22.985 L18.074,21.87 L18.074,21.87 Z M21.494,20.386 C22.331,19.524 22.851,18.361 22.87,17.071 L23.985,17.071 C23.966,18.665 23.319,20.111 22.282,21.174 L21.494,20.386 Z M22.87,16.926 C22.851,15.639 22.331,14.472 21.494,13.61 L22.282,12.822 C23.319,13.885 23.966,15.331 23.985,16.926 L22.87,16.926 Z"/>
		map
		<path d="M 18.353,15.58 v0.045 l -0.037,0.003 v-0.044 l 0.037,-0.004 Z M 18.26,15.521 h0.049 v0.037 h-0.049 v-0.037 Z M 18.171,15.509 l 0.004,-0.037 l 0.044,0.008 l -0.003,0.037 l -0.045,-0.008 Z M 18.134,15.495 l -0.041,-0.004 l 0.004,-0.037 l 0.044,0.003 l -0.007,0.038 Z M 17.777,15.446 h0.048 v0.037 h-0.048 v-0.037 Z M 17.669,15.521 l 0.008,-0.038 l 0.04,0.008 l -0.003,0.037 l -0.045,-0.007 Z M 17.677,15.58 l -0.052,-0.015 l 0.011,-0.037 l 0.048,0.015 l -0.007,0.037 Z M 17.587,15.625 l -0.007,-0.038 l 0.037,-0.007 l 0.008,0.037 l -0.038,0.008 Z M 12.736,19.472 h-0.048 v-0.063 h0.03 v0.033 l 0.048,0.019 l 0.008,0.093 h-0.038 v-0.082 Z M 12.997,19.699 l 0.092,0.044 l 0.03,0.086 l 0.045,0.033 l 0.041,0.093 l -0.023,0.045 l -0.07,-0.063 l -0.049,-0.071 l -0.026,-0.056 l -0.04,-0.111 Z M 14.558,21.628 l 0.033,0.082 l -0.044,0.026 l -0.026,-0.037 l -0.06,-0.019 l -0.007,-0.056 l -0.049,-0.074 l 0.075,0.011 l 0.078,0.067 Z M 17.81,15.985 v0 l -0.007,0.104 s -0.074,0.056 0,0.056 l 0.011,0.048 l -0.123,0.112 l -0.085,0.007 l -0.019,0.03 l -0.081,0.037 h-0.093 l -0.008,0.063 l -0.037,0.012 v0.063 s -0.037,0.037 -0.074,0.056 c -0.037,0.018 0.037,0.096 0.055,0.007 l 0.086,0.007 l -0.007,0.101 s -0.093,-0.011 -0.082,0.063 c 0,0 -0.075,0.037 -0.03,0.111 c 0.045,0.075 0,0.019 0,0.019 s -0.056,0.112 -0.082,0.082 c -0.022,-0.03 -0.108,0.037 -0.022,0.082 l -0.037,0.089 c -0.037,-0.063 -0.168,-0.063 -0.186,0.037 h-0.048 l -0.019,-0.071 l 0.007,-0.052 l 0.038,-0.018 l -0.008,-0.037 l -0.056,-0.045 l -0.037,-0.03 s -0.056,-0.026 -0.063,0.082 l -0.104,0.03 h-0.082 l -0.018,0.1 l -0.026,0.037 l -0.067,0.019 l 0.007,0.074 h0.112 l 0.018,-0.07 l 0.011,0.026 l 0.041,-0.019 l 0.019,-0.089 h0.111 l 0.008,0.07 l 0.067,0.008 l 0.048,0.044 s 0.1,0.227 0.037,0.153 s -0.093,0.011 -0.037,0.037 c 0,0 -0.004,0.171 -0.085,0.19 c 0,0 -0.145,0.037 -0.101,0.249 c 0,0 -0.044,-0.03 -0.044,0.026 l -0.064,0.011 s 0.038,0.171 -0.1,0.182 l -0.007,-0.145 l -0.064,-0.048 l 0.038,-0.056 c 0.059,-0.123 -0.157,-0.1 -0.064,-0.03 c 0,0 -0.026,0.112 -0.026,0.093 c 0,-0.018 0,-0.082 -0.081,-0.056 c 0,0 0,-0.055 -0.101,-0.119 c 0.108,-0.052 -0.037,-0.133 -0.104,-0.044 c 0,0 -0.026,-0.112 -0.093,-0.156 c 0,0 -0.245,0.011 -0.245,-0.008 c 0,-0.018 -0.101,-0.156 -0.156,-0.111 l -0.149,0.119 s 0.026,0.104 -0.086,0.048 c 0.053,0.026 -0.122,-0.074 -0.011,-0.074 c 0.075,0.081 0.093,-0.037 0.045,-0.045 c -0.074,-0.019 -0.074,-0.108 -0.007,-0.145 l 0.081,-0.071 l -0.029,-0.2 s -0.015,-0.119 0.011,-0.156 c 0,0 0.119,-0.16 -0.011,-0.249 l -0.086,0.007 s -0.134,-0.1 -0.253,0.074 c 0,0 -0.037,0.164 0.037,0.209 l 0.067,0.007 l -0.011,0.074 l -0.048,0.093 l -0.086,-0.007 s -0.074,-0.045 -0.104,0.037 l 0.008,0.164 h-0.063 l -0.03,0.048 l -0.13,0.011 l 0.007,0.138 s 0.067,0.078 0.011,0.107 c 0,0 -0.033,0.078 0.011,0.09 l 0.223,0.319 l 0.012,0.294 l 0.1,0.011 l 0.007,0.082 s 0.075,0.056 0.03,0.13 c 0,0 -0.13,0.011 -0.037,0.1 v0.101 s -0.03,0.145 0.082,0.219 c 0,0 0.056,0.089 0.044,0.164 c 0,0 0.101,0.078 0.019,0.13 c 0,0 -0.093,0.152 0.011,0.152 l 0.45,0.42 s -0.074,0.182 -0.019,0.227 c 0.034,0 0.13,0.219 -0.029,0.227 l -0.316,0.007 l -0.123,0.108 l -0.353,0.007 s -0.045,0.019 -0.056,-0.074 s -0.082,-0.112 -0.093,-0.082 s -0.111,-0.033 -0.123,-0.07 c -0.014,-0.038 -0.163,-0.153 -0.193,-0.045 h-0.048 l -0.119,0.011 l -0.156,-0.126 l -0.168,-0.037 s -0.167,-0.145 -0.167,-0.183 c 0,-0.041 -0.085,-0.126 -0.085,-0.052 l -0.086,0.008 s -0.115,-0.037 -0.16,-0.182 c -0.041,-0.142 -0.074,-0.157 -0.178,-0.149 l -0.011,-0.089 h-0.093 s -0.119,-0.108 -0.138,-0.153 c -0.018,-0.044 -0.044,-0.1 -0.074,-0.007 s -0.138,0.037 -0.149,-0.056 c 0,0 -0.067,-0.018 -0.074,-0.056 c -0.008,-0.037 -0.167,-0.011 -0.082,0.09 l 0.008,0.156 h-0.101 l -0.026,-0.045 v-0.071 l -0.044,-0.026 l -0.008,-0.107 s -0.063,-0.03 -0.026,-0.093 c 0,0 -0.037,-0.019 -0.048,-0.082 c 0,0 0.078,-0.037 0.03,-0.048 c 0,0 -0.067,-0.071 -0.03,-0.108 c 0,0 0.052,-0.067 0.007,-0.112 c 0,0 -0.037,-0.07 -0.007,-0.089 l 0.044,-0.011 v-0.1 l 0.093,-0.008 l 0.026,-0.037 l 0.231,0.007 v0.045 s -0.082,0.015 -0.112,0.026 c -0.033,0.015 0.037,0.082 0.049,0.108 c 0.011,0.026 0.119,-0.067 0.111,-0.13 l 0.101,-0.008 l 0.018,-0.037 l 0.093,-0.007 l 0.007,0.07 l 0.064,0.011 l 0.011,0.03 h0.308 l 0.045,0.045 l 0.045,-0.045 l 0.159,0.008 l 0.026,-0.038 l 0.131,-0.044 s -0.015,-0.082 0.048,-0.089 c 0,0 0.007,-0.071 -0.03,-0.071 l -0.007,-0.149 l 0.029,-0.044 v-0.138 s 0.049,-0.007 0.03,-0.026 c -0.018,-0.018 0.026,-0.089 0.082,-0.108 c 0,0 0.045,-0.115 0.111,-0.126 l 0.03,-0.1 s 0.212,-0.078 0.279,-0.008 c 0,0 0.03,0.067 0.048,0.056 c 0.019,-0.015 0.093,0.018 0.093,0.056 c 0,0.037 0.138,0.044 0.101,0.018 c -0.038,-0.026 0.029,-0.052 0.055,-0.063 s 0.03,-0.104 0,-0.093 l -0.063,-0.007 l 0.026,-0.13 l 0.011,-0.045 l 0.056,-0.019 l -0.011,-0.1 l 0.093,-0.1 l -0.011,-0.101 l 0.111,-0.119 v-0.074 l 0.075,-0.052 v-0.171 l 0.037,-0.011 l 0.011,-0.063 s 0.048,-0.064 0.037,-0.082 c -0.011,-0.019 0.026,-0.075 0.045,-0.075 c 0.018,0 0.037,-0.055 0.029,-0.074 c -0.003,-0.018 0.064,-0.074 0.064,-0.074 l 0.119,0.007 l 0.037,-0.052 h0.082 l 0.029,-0.03 l 0.086,-0.007 c 0.03,0.007 0.096,-0.108 0.048,-0.1 l -0.186,0.007 l 0.075,-0.011 l 0.011,-0.037 l 0.063,-0.011 l 0.011,-0.026 s 0.082,0.011 0.1,-0.038 c 0.019,-0.048 0.142,-0.011 0.142,-0.011 s 0.148,0.071 0.141,-0.018 c 0.007,-0.034 0.193,-0.175 0.316,-0.064 l 0.216,0.157 s 0.118,0.1 0.118,0.029 c 0,0 0.09,-0.037 0.101,0 c 0,0 0.059,0.064 0.085,0.008 l 0.346,0.011 l 0.175,-0.145 v-0.082 h0.044 v-0.03 l 0.064,-0.011 l 0.011,-0.055 l 0.037,-0.049 l 0.048,0.019 l -0.03,0.018 l 0.008,0.071 h0.216 v0.071 l -0.038,0.026 l 0.012,0.137 h0.066 Z M 15.32,17.227 v0 l 0.004,0.431 s -0.049,0.115 -0.056,0.045 c -0.008,-0.071 -0.093,-0.052 -0.119,-0.071 s 0.007,-0.138 0.018,-0.1 c 0.012,0.037 0.086,0.029 0.086,0.029 s 0.041,-0.212 -0.007,-0.301 h-0.03 l -0.008,-0.044 l 0.112,0.011 Z M 15.208,17.736 l 0.06,0.037 l 0.093,-0.063 l -0.004,0.045 l -0.037,0.007 l -0.008,0.093 l 0.045,0.019 l -0.015,0.055 l -0.037,0.09 l -0.097,-0.134 v-0.149 Z M 15.368,18.156 l -0.048,-0.007 l 0.004,-0.049 l 0.044,-0.007 v0.063 Z M 15.312,18.457 l -0.052,0.008 v-0.045 l 0.052,-0.007 v0.044 Z M 15.387,18.264 c -0.015,0 -0.026,-0.011 -0.026,-0.026 s 0.011,-0.026 0.026,-0.026 s 0.026,0.011 0.026,0.026 s -0.011,0.026 -0.026,0.026 Z M 15.454,18.368 c 0,0.014 -0.012,0.026 -0.026,0.026 c -0.015,0 -0.026,-0.012 -0.026,-0.026 s 0.011,-0.026 0.026,-0.026 c 0.014,0 0.026,0.012 0.026,0.026 Z M 15.457,17.651 c 0,0.014 -0.011,0.026 -0.026,0.026 c -0.014,0 -0.026,-0.012 -0.026,-0.026 c 0,-0.015 0.012,-0.026 0.026,-0.026 c 0.015,0 0.026,0.011 0.026,0.026 Z M 17.413,16.799 l 0.007,-0.048 h0.03 l 0.015,-0.034 l 0.067,0.008 l 0.007,0.045 h0.037 v0.118 l -0.074,0.03 l -0.026,0.041 l -0.008,0.056 l -0.011,0.074 l -0.029,0.037 l -0.075,0.015 l -0.063,0.037 l -0.011,0.049 l -0.037,0.044 l -0.026,0.045 l -0.008,0.063 l -0.037,0.019 l -0.011,0.063 l -0.112,-0.045 l -0.018,-0.096 l 0.026,-0.112 l 0.13,-0.007 l 0.037,-0.093 l 0.03,-0.045 l 0.007,-0.048 l 0.112,-0.108 l 0.048,-0.011 l 0.011,-0.034 l 0.026,-0.022 l -0.007,-0.041 h-0.037 Z M 17.703,17.152 v0 h0.107 s 0.03,0.067 0.067,0.038 c 0,0 0.075,0.066 0.045,0.055 c -0.034,-0.011 -0.056,0.034 -0.007,0.052 l 0.011,0.045 l -0.026,0.03 s 0.015,0.096 -0.086,0.126 v0.112 l -0.03,0.018 l -0.007,0.075 h-0.067 l -0.045,0.07 s -0.063,0.022 -0.063,-0.007 c 0,-0.034 -0.082,-0.06 -0.093,0.011 l -0.167,-0.008 l -0.019,0.045 s -0.052,0.008 -0.081,0.056 c -0.03,0.052 -0.086,-0.056 -0.086,-0.056 l 0.03,-0.182 l 0.026,-0.074 l 0.048,-0.03 l 0.011,-0.082 l 0.067,-0.019 l 0.067,-0.018 l -0.007,-0.063 l 0.048,-0.019 l 0.011,-0.171 l 0.063,-0.011 v-0.056 l 0.012,-0.089 l 0.067,-0.063 l 0.092,0.044 l 0.012,0.082 v0.089 Z M 17.803,17.911 c -0.007,0.074 -0.1,0.1 -0.1,0.1 l -0.067,-0.018 l -0.037,-0.03 l -0.008,-0.089 l 0.056,-0.008 l 0.011,0.037 l 0.145,0.008 v0 Z M 18.138,17.509 c -0.008,-0.026 -0.015,-0.082 -0.067,-0.089 l 0.111,-0.082 s 0.019,0.097 -0.007,0.089 c -0.026,-0.007 -0.023,0.138 -0.037,0.082 Z M 18.465,17.182 c 0.026,0.056 0.018,0.138 0.111,0.201 c 0.03,0.022 -0.018,0.063 -0.048,0.044 c -0.03,-0.018 -0.119,-0.156 -0.119,-0.156 v-0.081 c 0.018,-0.049 0.045,-0.03 0.056,-0.008 v0 Z M 18.465,19.089 l 0.044,-0.03 l 0.034,0.012 l -0.041,0.07 l -0.019,-0.033 l -0.018,-0.019 Z M 19.204,18.9 l -0.022,-0.034 l 0.052,-0.03 l 0.019,0.03 l -0.049,0.034 Z M 20.992,20.208 v0 c -0.014,-0.041 0.049,-0.115 0.056,-0.152 c 0.008,-0.045 0.052,-0.045 0.026,-0.09 c -0.022,-0.044 0.026,-0.167 0.026,-0.193 c 0,-0.022 0.082,-0.004 0.093,-0.03 s 0.156,0.093 0.13,0.175 l 0.008,0.156 l 0.029,0.03 s 0.012,0.212 0.012,0.23 c 0,0.019 -0.242,0.082 -0.316,0.008 l -0.008,-0.108 l -0.056,-0.026 Z M 20.855,19.955 c -0.011,0.049 -0.056,0.075 -0.082,0.056 s 0.03,0.03 0.045,0.056 c 0.011,0.026 0.048,0.026 0.063,0 c 0.011,-0.026 0.007,-0.082 0.018,-0.108 c 0.012,-0.022 -0.037,-0.03 -0.044,-0.004 v0 Z M 20.569,18.807 h0.044 v0.119 h-0.044 v-0.119 Z M 21.208,17.598 c -0.026,-0.037 0.123,-0.1 0.149,-0.026 c 0.026,0.075 0,0.064 -0.026,0.056 c -0.023,-0.007 -0.086,0.019 -0.123,-0.03 v0 Z M 21.342,16.758 l 0.067,0.012 l -0.008,0.037 l -0.067,-0.011 l 0.008,-0.038 Z M 21.167,16.866 l -0.037,0.019 l -0.007,0.007 l -0.012,-0.007 l -0.048,-0.03 l 0.019,-0.033 l 0.041,0.026 l 0.044,-0.026 l 0.019,-0.012 l 0.007,0.023 l 0.015,0.029 l -0.037,0.015 l -0.004,-0.011 Z M 21.401,15.338 v0 l 0.045,0.082 l -0.026,0.082 l 0.048,0.019 l -0.011,0.052 l 0.045,0.029 l 0.011,0.201 l 0.067,0.019 v0.037 l -0.03,-0.008 l -0.03,0.064 l -0.104,-0.012 s 0.019,-0.081 -0.063,-0.093 c 0.019,-0.1 -0.141,-0.182 -0.138,-0.211 c 0.015,-0.075 -0.141,-0.112 -0.159,-0.082 c -0.019,0.03 -0.019,-0.045 -0.019,-0.045 l -0.067,0.008 l -0.007,-0.064 l 0.048,-0.018 v-0.101 l 0.1,-0.011 s 0.056,-0.1 0.142,-0.018 c 0.085,0.082 0.055,0.07 0.055,0.07 h0.093 Z M 21.673,15.978 v0 l 0.052,0.026 c -0.019,0.022 -0.052,0.078 -0.026,0.13 c 0.026,0.048 0,0.1 0,0.1 s -0.037,0.089 -0.019,0.108 c 0.019,0.019 -0.011,0.086 -0.018,0.13 c -0.004,0.041 -0.041,0.101 -0.067,0.13 c -0.026,0.034 -0.045,0.041 -0.064,0.071 c -0.018,0.03 -0.048,0.063 -0.067,0 l 0.012,-0.138 s -0.082,0.026 -0.008,-0.018 c 0.075,-0.045 0.063,-0.301 0.037,-0.346 s -0.055,-0.063 -0.055,-0.063 l 0.063,-0.119 l 0.111,-0.019 l 0.049,0.008 Z M 21.747,16.234 l 0.004,-0.048 l 0.037,0.004 l -0.004,0.052 l -0.037,-0.008 Z M 21.743,16.409 l -0.033,-0.019 l 0.018,-0.037 l 0.034,0.019 l -0.019,0.037 Z M 21.691,15.911 l -0.026,-0.056 s 0,-0.048 0.011,-0.074 c 0.012,-0.026 -0.026,-0.049 -0.044,-0.056 c -0.019,-0.007 -0.011,-0.056 -0.019,-0.082 c -0.007,-0.026 -0.048,-0.044 -0.048,-0.044 s -0.011,-0.093 -0.011,-0.112 s -0.056,-0.045 -0.037,-0.063 c 0.018,-0.019 0.029,-0.045 0.048,-0.056 c 0.018,-0.011 -0.019,-0.1 0.011,-0.082 c 0.03,0.019 0.03,0.052 0.045,0.075 c 0.011,0.026 -0.008,0.111 0.026,0.13 c 0.029,0.018 -0.008,0.082 0.044,0.082 c 0.049,0 0.019,0.119 0.019,0.119 s -0.011,0.089 0.018,0.092 c 0.03,0.008 0.012,0.157 0.012,0.157 l -0.049,-0.03 v0 Z M 21.29,14.896 v0 l 0.078,-0.004 s 0.03,0.056 0.048,0.063 c 0.019,0.004 0.063,0.019 0.063,0.03 s 0.03,0.101 0.03,0.101 s 0.026,0.055 0.056,0.081 c 0,0 -0.037,0.09 -0.037,0.071 s -0.008,-0.026 -0.037,-0.026 c -0.03,0 -0.045,-0.037 -0.038,-0.063 c 0.004,-0.026 0.004,-0.078 -0.007,-0.108 c -0.011,-0.033 -0.037,-0.019 -0.074,-0.026 c -0.038,-0.004 -0.026,-0.022 -0.026,-0.048 s -0.038,-0.045 -0.056,-0.071 Z M 21.349,14.837 c -0.018,-0.026 -0.037,-0.045 -0.063,-0.056 s -0.045,-0.026 -0.067,-0.026 c -0.026,0 -0.048,-0.026 -0.037,-0.056 s -0.019,-0.045 -0.019,-0.071 s 0.019,-0.026 0.049,-0.007 c 0.029,0.019 0.026,0.026 0.048,0.056 c 0.026,0.029 0.037,0.063 0.063,0.055 c 0.026,-0.007 0.045,0.056 0.067,0.038 c 0.026,-0.019 0.019,0.044 0.019,0.044 l -0.06,0.023 v0 Z M 20.628,15.547 c 0.034,0.033 -0.186,0.026 -0.186,0 s 0.019,-0.112 0.075,-0.093 c 0.055,0.018 0.063,-0.112 0.063,-0.112 s -0.049,0.008 -0.008,-0.018 c 0.045,-0.027 0,-0.064 -0.018,-0.082 c -0.019,-0.019 -0.037,-0.052 -0.037,-0.052 h0.085 c 0.037,-0.026 0.048,-0.145 0.048,-0.145 c 0.075,0.026 0.112,-0.026 0.112,-0.026 s 0.011,0.037 0.037,0.07 c 0.026,0.03 -0.063,0.045 -0.03,0.064 c 0.03,0.018 0.045,0.074 0.03,0.092 c -0.011,0.019 -0.082,0.008 -0.082,-0.018 s -0.026,0.03 0,0.063 c 0.026,0.03 -0.029,0.074 -0.044,0.074 c -0.011,0 -0.093,0.012 -0.026,0.052 c 0.067,0.038 0.141,0.019 0.141,0.019 s 0.056,-0.007 0.074,0.026 c 0.019,0.03 -0.007,0.037 -0.037,0.037 s -0.178,-0.011 -0.178,-0.011 s -0.037,0.041 -0.019,0.06 v0 Z M 20.23,15.602 c 0.03,-0.007 0.104,-0.011 0.119,0.008 c 0.011,0.018 -0.044,0.044 -0.044,0.044 l -0.075,0.011 c -0.022,-0.029 -0.029,-0.055 0,-0.063 v0 Z M 21.03,15.078 c 0.048,-0.026 0.156,-0.026 0.148,-0.063 c -0.007,-0.037 0.063,-0.048 0.063,-0.048 l 0.019,0.074 l 0.056,0.037 l 0.007,0.071 s 0.019,-0.011 -0.048,0.007 c -0.067,0.019 -0.026,0.049 -0.026,0.049 l -0.149,0.007 l -0.018,-0.063 l -0.052,-0.071 v0 Z M 20.788,14.736 v0 c -0.037,0 -0.082,0.041 -0.082,-0.048 l 0.082,-0.108 l 0.082,-0.048 l 0.018,0.074 s 0.052,0.015 0.064,0.063 c 0.011,0.052 0.011,0.052 0.055,0.063 c 0.041,0.012 0.056,0.038 0.03,0.082 c -0.026,0.045 -0.007,0.108 -0.082,0.101 c -0.074,-0.004 0.019,-0.06 -0.082,-0.049 c -0.096,0.015 -0.048,-0.13 -0.085,-0.13 Z M 20.952,15.268 l 0.018,-0.037 l 0.034,0.014 l -0.019,0.041 l -0.033,-0.018 Z M 20.888,15.208 h0.037 v0.045 h-0.037 v-0.045 Z M 20.918,14.372 l 0.007,0.056 l -0.037,0.003 l -0.007,-0.055 l 0.037,-0.004 Z M 20.814,14.955 h0.037 v0.03 h-0.037 v-0.03 Z M 20.714,14.955 l -0.004,-0.037 l 0.063,-0.003 l 0.004,0.037 l -0.063,0.003 Z M 20.204,15.561 l -0.033,-0.014 l 0.018,-0.045 l 0.034,0.015 l -0.019,0.044 Z M 20.011,15.446 l -0.004,-0.037 l 0.064,-0.007 l 0.003,0.037 l -0.063,0.007 Z M 18.94,15.435 v0.037 l -0.133,0.004 l -0.004,-0.037 l 0.137,-0.004 Z M 18.714,15.487 l -0.015,-0.056 l 0.037,-0.007 l 0.011,0.056 l -0.033,0.007 Z M 18.688,15.528 l -0.011,-0.037 l 0.018,-0.004 l 0.011,0.034 l -0.018,0.007 Z M 18.996,15.42 v0 l 0.093,-0.011 s 0.075,-0.019 0.082,0.019 c 0.007,0.037 0.056,0 0.082,-0.008 c 0.022,-0.007 -0.008,0.082 -0.008,0.082 s -0.067,0.052 -0.093,0.052 c -0.022,0 -0.067,-0.019 -0.067,-0.037 c 0,-0.019 -0.029,-0.045 -0.029,-0.045 l -0.067,-0.007 l 0.007,-0.045 Z M 19.305,15.353 v0 s 0.037,-0.052 0.056,-0.037 c 0.011,0.011 0.063,-0.007 0.055,-0.045 c -0.007,-0.037 0.056,-0.007 0.056,0.019 s 0.086,0.037 0.093,0.063 c 0.004,0.026 0.123,0.037 0.178,0.019 c 0.056,-0.019 0.064,0.007 0.093,-0.019 c 0.03,-0.026 0.116,0.093 0.123,0.119 c 0.004,0.026 0.03,0.097 0.011,0.127 c -0.018,0.033 -0.063,0.014 -0.13,-0.056 c -0.015,-0.015 -0.104,-0.03 -0.104,-0.03 s -0.082,0.011 -0.119,0.011 s -0.071,-0.007 -0.119,-0.026 c -0.048,-0.018 -0.048,-0.044 -0.056,-0.082 c -0.007,-0.037 -0.074,-0.003 -0.111,-0.011 c -0.037,-0.007 -0.026,-0.033 -0.026,-0.052 Z M 20.725,14.55 v0 c -0.019,0.056 -0.056,0.075 -0.097,0.049 c -0.041,-0.03 -0.022,-0.038 -0.085,-0.082 c -0.064,-0.045 -0.082,-0.019 -0.075,-0.063 c 0.008,-0.045 -0.074,-0.112 -0.122,-0.101 v-0.081 l -0.038,-0.019 l -0.048,-0.007 s -0.048,-0.019 -0.056,-0.064 c -0.007,-0.041 0.03,-0.085 0.049,-0.111 c 0.018,-0.023 0.018,-0.049 0,-0.093 c -0.019,-0.045 -0.093,-0.082 -0.093,-0.082 l -0.011,-0.108 h-0.067 l -0.045,-0.052 s 0.037,-0.015 0.067,-0.052 s -0.048,-0.093 -0.093,-0.137 c -0.045,-0.041 -0.037,0.007 -0.074,-0.011 c -0.037,-0.019 -0.011,-0.045 0,-0.082 s 0.085,0.011 0.085,0.011 s 0.231,0.189 0.223,0.245 c -0.003,0.06 0.108,0.119 0.156,0.089 c 0.049,-0.029 0.287,0.302 0.261,0.283 s -0.082,0.019 -0.082,0.019 s -0.011,0.148 0.018,0.13 c 0.03,-0.019 0.116,0.044 0.123,0.1 c 0,0 -0.015,0.071 0.048,0.082 l -0.044,0.137 Z M 19.706,13.695 c -0.007,-0.026 -0.018,-0.111 0.019,-0.107 c 0.037,0.007 0.011,0 0.056,0.018 c 0.044,0.019 0.048,-0.03 0.048,-0.03 h0.067 l 0.085,0.071 l -0.011,0.056 l -0.063,0.007 c -0.03,-0.048 -0.093,-0.03 -0.082,0.011 c 0.011,0.045 -0.03,0.127 -0.056,0.13 c -0.026,0.008 -0.104,0.008 -0.1,-0.029 c 0.011,-0.037 0.037,-0.127 0.037,-0.127 v0 Z M 19.658,13.528 v0 l -0.145,-0.126 l -0.048,-0.026 s -0.067,-0.004 -0.075,-0.03 c -0.007,-0.026 -0.018,-0.041 -0.074,-0.052 s -0.052,-0.074 -0.063,-0.112 c -0.011,-0.037 -0.037,-0.037 -0.037,-0.055 c 0,-0.019 0.074,0 0.074,0 s -0.008,0.055 0.011,0.063 c 0.019,0.004 0.093,-0.008 0.093,-0.008 s 0.019,0.056 -0.019,0.045 c -0.037,-0.011 0.067,0.089 0.067,0.089 s 0.116,0.026 0.104,0.052 c -0.011,0.026 0.045,0.063 0.075,0.063 c 0.029,0 0.037,0.049 0.037,0.049 v0.048 Z M 18.989,12.889 l -0.067,-0.008 v-0.055 l 0.048,0.011 l 0.019,0.052 Z M 18.97,12.625 v0 c 0.026,0.018 0.082,-0.075 0.082,-0.06 c 0,0.019 0.067,0.026 0.067,0.026 l 0.045,0.03 l 0.048,0.063 l -0.008,0.045 s -0.067,0.007 -0.067,-0.011 c 0,-0.019 -0.033,-0.056 -0.081,-0.056 c 0,0 -0.149,-0.086 -0.086,-0.037 Z M 20.108,12.662 v0 c 0.007,-0.019 0.252,0.007 0.305,-0.019 l 0.007,-0.037 l 0.119,-0.007 l 0.018,-0.03 l 0.045,0.019 l 0.063,0.011 l 0.037,0.037 l 0.157,0.011 l 0.048,0.074 l 0.045,0.064 l 0.137,0.007 l 0.007,0.074 l 0.038,0.019 l 0.037,0.011 v0.074 l 0.067,-0.007 l 0.007,0.037 l 0.045,0.019 l 0.007,0.108 s 0.019,0.081 0.026,0.1 c 0.008,0.019 0.112,0.007 0.112,0.007 l 0.037,0.038 v0.048 s -0.063,0.045 -0.019,0.063 c 0.045,0.019 0.13,-0.026 0.13,-0.026 s 0.026,0.108 -0.018,0.164 l -0.011,0.13 h0.067 l 0.011,0.07 l 0.137,0.149 l 0.067,0.007 l 0.045,0.027 v0.07 l 0.044,0.008 l -0.007,0.052 l 0.149,0.182 l 0.074,0.007 l 0.011,0.056 l 0.093,0.089 s 0.052,0.067 0.045,0.093 c -0.008,0.026 0.082,0.074 0.074,0.1 c -0.004,0.026 0.089,0.09 0.082,0.119 c -0.004,0.03 0.082,0.093 0.082,0.093 s 0.044,0.156 -0.019,0.138 c -0.063,-0.019 -0.074,0.074 -0.082,0.1 c -0.003,0.026 -0.059,0.082 -0.141,0.127 l -0.063,0.044 l -0.112,0.008 l -0.018,-0.075 l -0.067,-0.007 l -0.008,-0.056 l -0.063,-0.052 s -0.03,-0.056 -0.037,-0.082 s -0.082,-0.044 -0.082,-0.044 s -0.037,-0.052 -0.044,-0.082 c -0.004,-0.03 -0.041,-0.048 -0.067,-0.056 c -0.023,-0.007 -0.116,0 -0.123,-0.018 c -0.007,-0.019 -0.074,-0.093 -0.074,-0.093 l -0.082,-0.011 l -0.019,-0.038 l -0.067,0.008 l -0.044,-0.045 l -0.03,-0.056 s -0.019,-0.081 -0.026,-0.119 c -0.004,-0.037 -0.111,-0.074 -0.123,0.038 c 0,0 -0.085,0.007 -0.074,-0.019 c 0.015,-0.026 -0.074,-0.178 -0.178,-0.208 l -0.012,-0.182 s 0.067,-0.008 0.067,-0.045 s -0.081,-0.201 -0.186,-0.238 c -0.026,-0.011 -0.185,-0.007 -0.197,0.075 l -0.085,-0.008 s -0.011,-0.108 -0.019,-0.156 c -0.007,-0.052 -0.033,-0.022 -0.026,-0.052 c 0.004,-0.03 -0.063,-0.048 -0.044,-0.056 c 0.018,-0.007 0.056,-0.134 0.03,-0.171 c -0.023,-0.037 -0.116,-0.056 -0.105,-0.082 c 0.012,-0.026 0.012,-0.126 0.012,-0.126 s -0.049,0 -0.038,-0.03 c 0.012,-0.033 -0.026,-0.16 -0.119,-0.152 c 0,0 0,-0.063 -0.026,-0.071 c -0.022,-0.007 -0.104,-0.007 -0.104,-0.007 s -0.011,-0.082 0.019,-0.082 s 0.037,-0.074 0.056,-0.13 Z M 20.758,12.498 c -0.011,-0.048 0.123,-0.093 0.156,-0.055 c 0.03,0.037 0.119,0.044 0.13,0.23 c 0.004,0.067 -0.111,-0.071 -0.111,-0.071 l -0.093,-0.029 c -0.052,-0.011 -0.078,-0.041 -0.082,-0.075 v0 Z M 18.944,12.576 l -0.033,-0.014 l 0.026,-0.06 l 0.033,0.019 l -0.026,0.055 Z M 18.625,11.959 v0 c 0.048,0.045 0.029,0.082 -0.056,0.045 l -0.093,-0.093 l -0.141,-0.011 l -0.038,-0.063 l -0.197,-0.019 l 0.049,-0.056 l 0.093,-0.011 l 0.085,-0.056 l 0.082,-0.029 l 0.082,0.026 l 0.026,0.089 l 0.026,0.026 v0.071 l 0.082,0.081 Z M 18.613,11.651 v0 c 0.008,0.026 0.078,0 0.093,-0.037 l 0.142,-0.011 s 0.037,-0.008 0.04,-0.03 c 0.008,-0.026 0.105,-0.045 0.112,0 h0.111 s 0.064,0.003 0.093,-0.008 c 0.034,-0.015 0.056,0.086 0.026,0.075 c -0.029,-0.015 -0.104,0.011 -0.104,0.011 s -0.011,0.037 -0.037,0.063 l -0.308,-0.007 l -0.019,0.037 s -0.078,0.026 -0.16,0 c -0.082,-0.023 -0.004,-0.149 0.011,-0.093 Z M 18,12.71 v0 c -0.022,-0.007 -0.041,-0.074 -0.052,-0.115 c -0.007,-0.045 0.03,-0.045 0.037,-0.108 c 0.008,-0.063 0.067,0.019 0.074,0.049 c 0.008,0.033 0.045,0.052 0.082,0.044 c 0.037,-0.007 0.082,0.067 0.045,0.075 c -0.037,0.007 -0.041,0.011 -0.048,0.037 c -0.008,0.026 -0.041,0.048 -0.138,0.018 Z M 17.29,12.781 c -0.004,-0.022 0.123,-0.026 0.141,-0.008 c 0.019,0.019 0.008,0.053 0.063,0.053 c 0.056,0 0.03,0.037 0.026,0.055 c -0.007,0.019 -0.066,0.011 -0.074,-0.007 c -0.007,-0.019 -0.1,-0.026 -0.1,-0.026 s -0.049,-0.037 -0.056,-0.067 v0 Z M 19.327,11.513 l -0.041,-0.041 l 0.026,-0.029 l 0.03,0.033 l 0.048,-0.041 l 0.026,0.03 l -0.063,0.052 l -0.011,0.011 l -0.015,-0.015 Z M 19.052,11.368 l -0.011,-0.007 l -0.048,-0.03 l 0.018,-0.033 l 0.041,0.026 l 0.056,-0.037 l 0.022,0.029 l -0.071,0.045 l -0.007,0.007 Z M 18.829,12.647 l -0.052,-0.004 l 0.004,-0.037 l 0.063,0.008 h0.007 l 0.008,0.007 l 0.041,0.067 l -0.03,0.022 l -0.041,-0.063 Z M 16.807,14.361 l 0.007,0.07 h0.093 c 0.037,0 -0.03,-0.044 -0.03,-0.044 s -0.074,0.007 -0.07,-0.026 v0 Z M 16.926,14.364 l 0.022,-0.029 l 0.037,0.029 l -0.022,0.03 l -0.037,-0.03 Z M 15.799,13.19 l 0.026,-0.026 l 0.038,0.037 l -0.026,0.026 l -0.038,-0.037 Z M 17.543,21.297 l 0.011,-0.015 l -0.037,-0.018 l 0.015,-0.034 l 0.063,0.03 l 0.022,0.015 l -0.018,0.018 l -0.03,0.03 l -0.026,-0.026 Z M 17.056,20.844 l -0.019,-0.015 l 0.019,-0.015 l 0.037,-0.034 l 0.022,0.03 l -0.018,0.015 l 0.026,0.019 l -0.023,0.029 l -0.044,-0.029 Z M 21.714,19.621 v0 c 0.003,0.022 -0.004,0.041 -0.023,0.07 l -0.026,-0.026 c 0,-0.003 0.004,-0.007 0.008,-0.011 l -0.008,-0.033 c -0.003,-0.004 -0.007,-0.008 -0.011,-0.008 l 0.011,-0.037 c 0.004,0 0.041,0.011 0.049,0.045 Z M 21.769,19.502 l -0.059,-0.004 l 0.004,-0.056 l 0.059,0.008 l -0.004,0.052 Z M 23.2,19.015 c 0.026,-0.015 0.06,-0.049 0.056,0.022 c -0.003,0.071 -0.033,0.048 -0.056,0.071 c -0.022,0.022 -0.037,-0.071 0,-0.093 v0 Z M 23.516,18.747 v0 c -0.003,-0.004 -0.007,-0.004 -0.007,-0.007 l 0.007,0.037 c -0.011,0.004 -0.018,0 -0.026,-0.004 c -0.007,-0.007 -0.011,-0.018 -0.011,-0.03 c -0.003,-0.007 -0.003,-0.018 -0.007,-0.026 l 0.033,-0.018 c 0.008,0.015 0.011,0.03 0.011,0.041 v0.007 Z M 23.435,18.777 v0 l 0.033,-0.011 c 0.008,0.037 0.022,0.074 0.022,0.074 l -0.033,0.015 c 0,-0.004 -0.011,-0.041 -0.022,-0.078 Z M 23.297,18.926 v0 c 0,0.014 0.004,0.029 0.004,0.029 l -0.008,0.037 c -0.029,-0.003 -0.037,-0.04 -0.033,-0.07 l 0.037,0.004 Z M 23.137,18.178 v0 l -0.033,0.004 c 0,0.004 0,0.004 0,0.004 c -0.004,-0.004 -0.037,0.004 -0.06,0.018 l -0.022,-0.029 c 0.022,-0.015 0.071,-0.034 0.097,-0.023 c 0.011,0.004 0.015,0.015 0.018,0.026 Z M 21.424,16.175 v0 c 0.026,-0.026 0.067,0.13 0.033,0.193 c -0.011,0.026 -0.056,0.074 -0.074,0.082 c -0.019,0.004 -0.067,0.011 -0.067,0.03 c 0,0.018 -0.037,0.119 -0.056,0.13 s -0.223,0.011 -0.253,0.011 c -0.029,0 -0.093,0.111 -0.093,0.111 l 0.056,0.008 l -0.011,0.082 l -0.104,0.029 l -0.03,0.09 s -0.059,0.085 -0.085,0.092 c -0.026,0.008 -0.093,0.086 0,0.157 c 0.018,-0.012 0.111,0.093 0.111,0.145 l 0.037,0.089 s -0.007,0.137 0.093,0.163 c 0.011,-0.033 0.112,0.056 0.13,0.056 c 0.019,0 0.123,0.145 0.123,0.145 l -0.019,0.056 s -0.152,-0.019 -0.159,0.026 c 0,0 -0.101,0.063 -0.131,0.044 c -0.029,-0.018 -0.055,0.026 -0.066,0.045 c -0.012,0.019 -0.123,0.007 -0.123,0.007 l -0.011,-0.044 l -0.082,0.011 s 0.019,0.082 -0.045,0.108 h-0.159 c -0.086,0 -0.134,0.156 -0.142,0.212 c -0.007,0.055 -0.148,0.174 -0.148,0.174 s -0.075,-0.007 -0.082,0.056 l -0.03,0.063 l -0.063,0.03 l -0.112,0.03 l 0.012,0.082 h0.1 l 0.026,-0.03 l 0.093,-0.026 s 0.052,0 0.063,-0.037 c 0.015,-0.037 -0.03,-0.093 -0.011,-0.093 c 0.018,0 0.044,-0.045 0.044,-0.045 s 0.097,0 0.105,-0.03 l 0.092,0.09 v0.301 l -0.029,0.007 l -0.008,0.138 l -0.037,0.011 v0.063 l -0.044,0.037 l 0.007,0.075 l -0.037,0.037 l -0.008,0.119 l -0.193,-0.008 l -0.067,-0.026 l -0.044,-0.037 s -0.164,0.03 -0.194,-0.007 c -0.033,-0.038 -0.082,-0.03 -0.082,-0.03 l -0.026,-0.03 s -0.081,0.008 -0.1,-0.018 l -0.16,-0.082 l 0.019,0.074 l -0.093,0.019 l 0.123,0.044 s 0.081,0.064 0.081,0.045 s 0.086,0.037 0.104,0.011 c 0.019,-0.026 0.119,0.056 0.119,0.056 s 0.13,0.056 0.149,0.074 c 0.019,0.019 0.402,0.041 0.413,-0.089 l 0.029,-0.1 l 0.112,-0.145 h0.067 l -0.011,0.152 l 0.048,0.026 s 0.1,0.472 0.007,0.465 c -0.092,-0.004 -0.23,0.297 -0.092,0.345 l 0.308,0.257 v0.1 l -0.141,0.13 v0.056 l -0.045,0.019 c -0.074,0.015 -0.108,0.096 -0.03,0.108 c 0.108,0.011 0.101,0.156 -0.011,0.237 v0.138 l 0.064,0.037 l -0.688,0.584 l -0.082,0.011 l -0.074,0.071 l -0.149,0.007 l -0.037,0.03 l -0.049,0.007 l -0.029,-0.1 l -0.186,-0.056 l -0.234,-0.249 l -0.093,-0.007 l -0.082,-0.082 l 0.007,-0.052 l -0.048,-0.026 v-0.138 s 0.086,-0.108 0.019,-0.156 l -0.019,-0.071 l -0.056,-0.007 l -0.026,-0.108 l -0.074,-0.018 l -0.104,-0.03 l -0.063,-0.138 l -0.093,-0.111 s -0.093,0.03 -0.16,-0.019 c -0.067,-0.052 -0.234,-0.037 -0.223,0.019 c -0.011,0.018 -0.294,0.004 -0.338,-0.008 c -0.041,-0.011 -0.03,-0.037 -0.03,-0.037 l -0.245,-0.007 s -0.023,-0.082 -0.049,-0.075 c -0.026,0.004 -0.082,0.023 -0.1,-0.052 l -0.048,-0.1 l -0.026,-0.071 l -0.049,-0.007 s 0.037,-0.108 -0.048,-0.119 l -0.048,-0.026 l -0.038,-0.093 l 0.064,-0.007 v-0.03 l 0.044,-0.011 v-0.056 l 0.037,-0.026 l 0.011,-0.13 l 0.075,-0.026 l 0.037,-0.056 l 0.056,-0.019 s 0.059,-0.033 0.048,-0.063 c -0.011,-0.029 0.112,-0.104 0.242,-0.111 l 0.048,-0.071 h0.048 l 0.019,0.037 l 0.048,-0.026 l 0.112,-0.011 l 0.007,-0.03 l 0.067,-0.041 l 0.074,-0.037 s 0.231,0.026 0.224,-0.018 c -0.008,-0.045 0.111,-0.045 0.122,0.018 l 0.008,0.093 l 0.067,0.019 s 0.07,0.056 0.081,-0.008 c 0.041,0.071 0.234,0.078 0.197,0.026 c -0.037,-0.048 0.056,-0.093 0.056,-0.093 l 0.056,-0.007 l 0.026,-0.037 l 0.082,-0.008 l 0.029,-0.029 h0.168 l 0.007,-0.03 l 0.048,-0.026 l 0.064,-0.026 l -0.008,-0.056 s 0,-0.022 0.026,-0.07 c 0.026,-0.049 -0.056,-0.157 -0.104,-0.119 c -0.052,0.037 -0.108,0.048 -0.119,0.111 l -0.085,0.026 l -0.067,-0.03 s 0.018,-0.037 0,-0.081 c -0.019,-0.045 0.011,-0.13 0.093,-0.119 l 0.011,-0.064 l 0.16,-0.011 l 0.011,-0.026 s 0.041,0 0.067,-0.011 s 0.063,-0.067 -0.011,-0.111 h-0.008 l 0.134,-0.153 c 0.004,0.004 0.004,0.008 0.011,0.011 c 0.034,0.019 0.089,0.008 0.1,-0.011 c 0.012,-0.018 0.03,-0.03 0.038,0.008 c 0.007,0.037 0.119,0.044 0.13,0.007 s -0.026,-0.111 -0.056,-0.093 c -0.03,0.019 -0.082,0 -0.074,-0.018 c 0.007,-0.019 -0.06,-0.101 -0.142,-0.026 c 0,0 -0.018,-0.026 0,-0.082 c 0.019,-0.056 -0.093,-0.019 -0.085,0.007 c 0.007,0.023 -0.022,0.13 0.007,0.149 c 0.03,0.018 0.056,0 0.075,0.018 c 0.015,0.015 -0.008,0.023 0,0.034 l -0.134,0.152 l -0.19,-0.018 l -0.007,-0.03 h-0.045 s -0.018,0.037 -0.007,0.119 l -0.156,-0.007 v0.044 l 0.037,0.011 l 0.011,0.13 l -0.045,0.012 l 0.012,0.092 l -0.038,-0.007 c -0.029,-0.048 -0.074,-0.019 -0.048,0.089 l 0.074,0.019 l 0.008,0.063 l 0.104,0.019 l -0.008,0.055 h-0.111 l -0.019,-0.037 h-0.055 l -0.019,-0.044 l -0.056,0.007 s -0.044,-0.007 -0.044,-0.037 s -0.093,-0.156 -0.093,-0.156 h-0.082 c -0.052,-0.008 -0.112,-0.023 -0.063,0.048 l 0.074,0.03 l 0.067,0.03 l 0.037,0.044 l -0.037,-0.007 l -0.011,0.082 s -0.03,0.011 -0.037,-0.027 c -0.004,-0.026 0.037,-0.033 -0.03,-0.052 l -0.082,-0.011 s -0.011,-0.044 -0.074,-0.037 c 0,0 -0.063,-0.074 -0.075,-0.011 l -0.141,0.03 l -0.241,0.256 l -0.168,-0.007 v-0.045 l -0.067,0.011 l 0.008,-0.107 l -0.008,-0.075 l 0.038,-0.007 l 0.007,-0.112 c 0.019,0.019 0.223,0.075 0.223,-0.007 l 0.019,-0.108 l -0.049,-0.007 l -0.044,-0.049 l 0.048,-0.007 v-0.045 c 0.141,0.045 0.204,-0.011 0.149,-0.03 c 0.026,0 0.137,-0.07 0.037,-0.07 l 0.074,-0.075 l 0.03,-0.037 l 0.007,-0.089 l 0.045,0.008 l 0.026,0.044 l 0.074,0.008 l 0.064,0.018 l 0.048,-0.056 l 0.056,-0.044 l -0.03,-0.011 s -0.03,-0.071 0.019,-0.064 c 0.048,0.008 0.1,-0.089 0.037,-0.063 c -0.03,0.015 -0.06,0.023 -0.067,-0.048 c 0,-0.019 0.026,-0.208 -0.049,-0.182 l -0.063,0.07 v0.183 l 0.037,0.018 l -0.011,0.112 h-0.055 s -0.075,-0.078 -0.093,-0.052 c -0.019,0.022 -0.112,0.018 -0.112,-0.026 l -0.007,-0.164 l 0.074,-0.071 v-0.119 s 0.059,-0.007 0.03,-0.07 l 0.044,-0.049 s 0.082,-0.014 0.045,-0.063 c 0,-0.033 0.119,-0.044 0.175,-0.007 c 0.018,-0.019 0.093,-0.03 0.156,0 v-0.071 l 0.037,-0.026 v-0.052 l 0.03,-0.03 s -0.026,-0.111 0.011,-0.137 s 0.037,-0.074 -0.037,-0.045 l -0.045,-0.048 v-0.201 l -0.037,-0.011 l 0.007,-0.071 l -0.037,-0.007 s 0,-0.045 -0.018,-0.071 c -0.019,-0.026 -0.056,-0.014 -0.071,0.038 l -0.145,-0.019 l 0.074,-0.019 l 0.026,-0.037 s 0.067,0.011 0.086,-0.044 l 0.018,-0.064 s 0.09,-0.044 0.026,-0.119 l -0.037,-0.011 v-0.089 s 0.037,0.008 0.03,-0.03 c -0.004,-0.037 -0.037,-0.1 -0.104,-0.055 l -0.063,0.107 l -0.045,-0.026 l -0.044,-0.007 v-0.037 s 0.092,0.026 0.081,-0.019 l 0.03,-0.018 l 0.011,-0.056 l -0.178,-0.182 l -0.093,-0.008 l -0.019,-0.029 l -0.156,-0.008 l -0.011,-0.074 l -0.063,-0.008 l -0.03,-0.029 l -0.037,-0.03 v-0.138 l 0.037,0.008 l 0.019,0.037 h0.044 l 0.067,0.022 l -0.011,-0.156 l -0.167,-0.019 l 0.007,-0.074 h0.093 l 0.026,-0.026 l 0.086,-0.037 l 0.074,0.048 l 0.074,0.03 c 0.019,0.019 0.145,0.063 0.194,0.011 c 0.018,-0.015 0.007,-0.056 0.007,-0.056 s 0.056,-0.011 0.037,-0.037 c -0.018,-0.026 0.03,-0.044 0.03,-0.044 s 0.059,-0.023 0.067,-0.052 c 0.004,-0.034 0.104,-0.026 0.104,-0.026 s -0.011,0.111 -0.037,0.182 c -0.026,0.067 -0.093,0.022 -0.082,0.111 l 0.119,0.008 s 0.093,0.111 0.104,0.13 c 0.015,0.018 0.13,0.029 0.138,-0.026 c 0,0 0.085,0.018 0.13,-0.026 c 0.044,-0.045 -0.03,-0.015 -0.056,-0.045 s 0.03,-0.03 -0.008,-0.048 c -0.037,-0.019 -0.055,-0.019 -0.044,-0.063 c 0.011,-0.045 0.056,-0.008 0.037,-0.038 c -0.019,-0.033 0.007,-0.081 0.093,-0.081 l 0.037,-0.071 l 0.03,0.007 s 0,0.026 -0.026,0.064 c -0.022,0.037 0.063,0.1 0.082,0.044 c 0,0 0.093,0.015 0.122,-0.011 c 0.03,-0.026 0.212,-0.071 0.168,-0.019 c -0.045,0.053 0.074,0.183 0.122,0.09 c 0,0 0.019,-0.075 0.112,-0.138 l 0.093,0.008 l 0.048,0.007 l 0.082,0.011 l -0.03,0.026 h-0.048 l -0.049,0.026 c -0.037,0.015 0.071,0.071 -0.029,0.089 c -0.097,0.019 0,0.138 -0.011,0.157 c -0.012,0.018 0.037,0.074 0.055,0.093 c 0.019,0.018 0.063,-0.019 0.045,-0.045 c -0.019,-0.026 0,-0.074 0,-0.1 s 0.048,-0.008 0.048,-0.008 s 0.011,0.048 0.075,0.048 c 0.059,0 0.029,-0.037 0.011,-0.13 c -0.019,-0.096 0.081,-0.145 0.193,-0.089 l 0.093,0.011 l 0.011,0.03 l 0.156,0.019 l 0.13,0.145 s 0.008,0.029 0.008,0.055 s 0.056,0.045 0.056,0.045 l 0.111,0.007 v0.056 l -0.019,0.037 c -0.059,0.156 0.082,0.063 0.119,0.019 c 0.015,-0.015 0.008,-0.063 0.008,-0.063 l 0.067,-0.011 l 0.018,-0.038 s 0.097,0.008 0.123,0 c 0.026,-0.007 0.056,0.056 0.082,0.075 c 0.022,0.018 0.048,0.055 0.03,0.055 c -0.019,0 -0.027,0.112 -0.027,0.112 l -0.048,0.007 s 0.045,0.116 0.008,0.108 c -0.038,-0.007 -0.075,0.067 -0.019,0.093 c 0.019,0.008 0.167,0 0.167,0 l 0.026,-0.03 s 0.056,-0.026 0.064,-0.07 c 0.007,-0.045 0,-0.063 0,-0.063 l 0.029,-0.026 l 0.019,-0.071 s 0.056,-0.011 0.082,-0.037 Z M 18,18.435 c 0.007,-0.008 0.019,0.03 0.037,0.022 c 0.019,-0.004 0.026,0.034 0.008,0.034 c -0.019,0 -0.019,0.022 -0.019,0.033 s 0,0.034 -0.015,0.048 c -0.015,0.015 -0.026,0.004 -0.044,-0.003 c -0.019,-0.011 -0.026,-0.011 -0.052,-0.011 c -0.023,0 -0.004,0.037 -0.004,0.037 s -0.097,-0.004 -0.078,-0.019 c 0.018,-0.015 0.037,-0.018 0.022,-0.03 c -0.015,-0.011 0,-0.018 0,-0.037 c 0,-0.018 0.045,-0.011 0.033,-0.022 c -0.014,-0.015 0,-0.067 0.023,-0.037 l 0.015,-0.034 c -0.015,-0.015 -0.004,-0.018 -0.034,-0.029 c -0.026,-0.012 -0.004,-0.067 -0.004,-0.067 l 0.004,-0.038 c 0.008,-0.048 0.101,-0.052 0.108,-0.011 c 0.004,0.041 0,0.071 0,0.071 l 0.026,0.011 s -0.004,0.03 -0.026,0.03 s 0,0.015 -0.015,0.03 l 0.015,0.022 v0 Z M 17.695,18.483 c 0.015,-0.03 0.045,-0.148 0.082,-0.111 s 0.059,0 0.059,0 s 0.019,0.018 0.008,0.055 c -0.008,0.038 -0.019,0.075 -0.041,0.082 c -0.022,0.004 -0.041,0.019 -0.071,0.023 c -0.022,0.003 -0.037,-0.049 -0.037,-0.049 v0 Z"/>
	</g>
</svg>
