<svg xmlns="http://www.w3.org/2000/svg" viewBox="0 0 36 36">
	<path fill="#4B92DB" d="M36 27c0 2.209-1.791 4-4 4H4c-2.209 0-4-1.791-4-4V9c0-2.209 1.791-4 4-4h28c2.209 0 4 1.791 4 4v18z"/>
	<g fill="#FFF">
		<path d="M10.736,19.855 L10.781,19.892 C10.733,19.557 10.707,19.193 10.803,18.874 C10.948,18.361 11.13,17.862 11.223,17.331 C11.298,16.918 11.383,16.454 11.335,16.056 C11.279,16.271 11.223,16.483 11.104,16.669 C10.655,17.364 10.194,18.182 10.51,19.067 C10.502,19.078 10.491,19.089 10.48,19.082 C10.354,18.788 10.324,18.457 10.242,18.145 C10.023,17.316 9.387,16.621 9.573,15.662 C9.473,15.87 9.435,16.104 9.383,16.331 C9.272,16.918 9.383,17.539 9.543,18.082 C9.74,18.755 10.398,19.238 10.736,19.855 Z M10.565,15.55 C10.714,15.245 10.956,14.955 11.246,14.74 C11.885,14.257 12.584,13.632 12.595,12.814 C12.379,13.402 11.736,13.647 11.309,14.048 C11.082,14.26 10.907,14.517 10.807,14.785 L10.792,14.773 C10.844,14.535 10.945,14.324 11.015,14.093 C11.201,13.469 11.168,12.721 11.777,12.301 C11.465,12.383 11.201,12.584 10.967,12.844 C10.473,13.391 10.517,14.197 10.58,14.911 C10.603,15.134 10.591,15.324 10.565,15.55 Z M11.309,13.77 C11.651,13.45 12.045,13.212 12.335,12.833 C12.681,12.376 12.982,11.863 13.435,11.469 C12.822,11.707 12.16,11.952 11.762,12.584 C11.528,12.952 11.491,13.387 11.309,13.77 Z M11.565,15.387 C11.714,15.086 11.807,14.744 11.848,14.413 C11.792,14.554 11.707,14.684 11.588,14.796 C11.09,15.268 10.506,15.729 10.394,16.398 C10.38,16.494 10.368,16.591 10.342,16.684 C10.32,16.695 10.32,16.669 10.313,16.662 L10.376,15.836 C10.435,15.03 10.012,14.134 10.476,13.424 C10.461,13.42 10.45,13.435 10.439,13.439 C10.015,13.978 9.733,14.573 9.733,15.297 C9.733,16.193 10.249,16.822 10.313,17.662 C10.447,16.784 11.183,16.16 11.565,15.387 Z M10.58,20.892 C11.06,21.271 11.632,21.565 12.071,21.899 C11.985,21.68 11.844,21.479 11.788,21.253 C11.532,20.215 11.673,19.011 11.231,18.052 C11.313,18.598 11.097,19.082 11.049,19.602 C11.008,20.03 11.082,20.446 11.249,20.803 C11.298,20.911 11.387,21.004 11.413,21.115 C11.253,20.97 11.138,20.788 11.03,20.609 C10.513,19.773 9.432,19.23 9.357,18.212 C9.32,18.665 9.361,19.145 9.51,19.546 C9.714,20.096 10.116,20.524 10.58,20.892 Z M17.1,23.639 C16.264,23.639 15.513,24.044 14.781,24.349 C14.115,24.624 13.234,24.572 12.643,24.163 C12.933,24.527 13.324,24.754 13.729,24.907 C14.476,25.204 15.35,24.977 15.989,24.568 C16.446,24.275 16.84,23.858 17.387,23.858 C18.268,23.858 19.193,24.762 19.985,25.579 C20.108,25.479 20.238,25.375 20.338,25.26 C19.509,24.472 18.338,23.639 17.1,23.639 Z M15.606,23.728 C15.736,23.695 15.892,23.706 16.011,23.661 C15.513,23.561 15.034,23.409 14.647,23.055 C14.093,22.55 13.602,22.011 13.011,21.617 C13.476,22.241 13.606,23.148 14.454,23.464 C14.602,23.52 14.777,23.531 14.907,23.613 C14.744,23.639 14.602,23.587 14.45,23.554 C13.357,23.319 12.026,23.62 11.209,22.691 C11.517,23.301 12.156,23.78 12.774,23.981 C13.721,24.301 14.714,23.948 15.606,23.728 Z M13.777,23.271 C13.067,22.699 12.959,21.84 12.643,21.089 C12.446,20.621 12.127,20.201 11.785,19.792 C12.16,20.543 11.997,21.509 12.484,22.215 C12.636,22.438 12.848,22.65 13.045,22.825 L13.037,22.836 C12.859,22.754 12.699,22.628 12.536,22.494 C11.684,21.784 10.402,21.695 9.893,20.539 C10.03,21.386 10.703,22.137 11.432,22.613 C12.123,23.067 13.011,23.018 13.777,23.271 Z"/>
		<path d="M23.669,12.833 C23.959,13.216 24.353,13.45 24.695,13.77 C24.513,13.387 24.475,12.952 24.245,12.584 C23.847,11.952 23.186,11.707 22.572,11.469 C23.018,11.863 23.319,12.372 23.669,12.833 Z M24.988,14.093 C25.055,14.32 25.156,14.535 25.212,14.773 L25.197,14.785 C25.096,14.517 24.922,14.26 24.695,14.048 C24.267,13.643 23.624,13.402 23.412,12.811 C23.424,13.632 24.122,14.257 24.762,14.736 C25.048,14.952 25.293,15.242 25.442,15.547 C25.416,15.32 25.405,15.13 25.427,14.911 C25.494,14.193 25.535,13.391 25.044,12.844 C24.81,12.584 24.546,12.379 24.234,12.301 C24.836,12.721 24.803,13.469 24.988,14.093 Z M25.628,15.833 L25.691,16.658 C25.684,16.665 25.684,16.688 25.661,16.68 C25.635,16.587 25.624,16.491 25.609,16.394 C25.498,15.729 24.91,15.264 24.416,14.792 C24.297,14.68 24.212,14.55 24.156,14.409 C24.197,14.74 24.29,15.082 24.438,15.383 C24.821,16.156 25.557,16.781 25.691,17.662 C25.754,16.818 26.271,16.193 26.271,15.297 C26.271,14.573 25.988,13.978 25.565,13.439 C25.553,13.431 25.542,13.42 25.527,13.424 C25.992,14.134 25.565,15.03 25.628,15.833 Z M25.762,18.141 C25.68,18.453 25.65,18.788 25.524,19.078 C25.513,19.085 25.501,19.071 25.494,19.063 C25.81,18.178 25.349,17.364 24.899,16.665 C24.78,16.483 24.725,16.268 24.669,16.052 C24.62,16.454 24.706,16.915 24.78,17.327 C24.877,17.859 25.055,18.357 25.2,18.87 C25.297,19.189 25.271,19.55 25.223,19.888 L25.267,19.851 C25.602,19.234 26.263,18.751 26.464,18.074 C26.624,17.535 26.736,16.911 26.624,16.323 C26.572,16.097 26.531,15.863 26.434,15.654 C26.617,16.617 25.981,17.312 25.762,18.141 Z M21.219,24.349 C20.483,24.044 19.736,23.639 18.9,23.639 C17.665,23.639 16.491,24.475 15.669,25.26 C15.77,25.375 15.9,25.483 16.022,25.579 C16.81,24.765 17.74,23.858 18.621,23.858 C19.167,23.858 19.561,24.275 20.018,24.568 C20.654,24.974 21.528,25.204 22.279,24.907 C22.68,24.754 23.07,24.527 23.364,24.163 C22.769,24.568 21.885,24.624 21.219,24.349 Z M24.977,20.602 C24.866,20.78 24.754,20.966 24.594,21.108 C24.62,21 24.71,20.903 24.758,20.795 C24.925,20.435 25,20.022 24.959,19.595 C24.907,19.074 24.691,18.591 24.777,18.045 C24.331,19.004 24.475,20.208 24.219,21.245 C24.163,21.476 24.022,21.676 23.936,21.892 C24.375,21.557 24.948,21.264 25.427,20.885 C25.892,20.52 26.293,20.089 26.505,19.531 C26.658,19.13 26.695,18.65 26.658,18.197 C26.579,19.223 25.494,19.766 24.977,20.602 Z M23.461,22.494 C23.297,22.628 23.137,22.754 22.959,22.836 L22.951,22.825 C23.148,22.647 23.36,22.435 23.513,22.215 C24,21.509 23.836,20.539 24.212,19.792 C23.87,20.201 23.55,20.621 23.353,21.089 C23.037,21.84 22.929,22.699 22.219,23.271 C22.985,23.018 23.873,23.067 24.561,22.617 C25.286,22.141 25.959,21.39 26.1,20.543 C25.594,21.695 24.316,21.784 23.461,22.494 Z M21.554,23.557 C21.401,23.591 21.26,23.639 21.096,23.617 C21.227,23.535 21.398,23.524 21.55,23.468 C22.398,23.148 22.528,22.241 22.992,21.621 C22.401,22.015 21.911,22.554 21.357,23.059 C20.97,23.412 20.491,23.561 19.992,23.665 C20.111,23.71 20.268,23.699 20.398,23.732 C21.294,23.955 22.282,24.304 23.234,23.988 C23.847,23.784 24.487,23.304 24.799,22.699 C23.977,23.624 22.643,23.327 21.554,23.557 Z"/>
		<path d="M18,10.867 C14.617,10.867 11.866,13.617 11.866,17 C11.866,20.383 14.617,23.134 18,23.134 C21.383,23.134 24.133,20.383 24.133,17 C24.133,13.617 21.383,10.867 18,10.867 Z M18,18.171 C17.353,18.171 16.829,17.647 16.829,17 C16.829,16.353 17.353,15.829 18,15.829 C18.647,15.829 19.171,16.353 19.171,17 C19.171,17.647 18.647,18.171 18,18.171 Z M18.881,16.015 C18.665,15.822 18.387,15.699 18.078,15.68 L18.078,14.677 C18.662,14.695 19.193,14.929 19.591,15.305 L18.881,16.015 Z M17.926,15.68 C17.617,15.699 17.338,15.822 17.123,16.015 L16.413,15.305 C16.81,14.929 17.342,14.695 17.926,14.677 L17.926,15.68 L17.926,15.68 Z M17.019,16.123 C16.825,16.338 16.703,16.617 16.684,16.926 L15.68,16.926 C15.699,16.342 15.933,15.81 16.309,15.413 L17.019,16.123 Z M16.684,17.074 C16.703,17.383 16.825,17.662 17.019,17.877 L16.309,18.587 C15.933,18.19 15.699,17.658 15.68,17.074 L16.684,17.074 L16.684,17.074 Z M17.123,17.985 C17.338,18.178 17.617,18.301 17.926,18.32 L17.926,19.323 C17.342,19.305 16.81,19.071 16.413,18.695 L17.123,17.985 Z M18.074,18.316 C18.383,18.297 18.662,18.175 18.877,17.981 L19.587,18.691 C19.19,19.067 18.658,19.301 18.074,19.32 L18.074,18.316 Z M18.985,17.877 C19.178,17.662 19.301,17.383 19.32,17.074 L20.323,17.074 C20.305,17.658 20.071,18.19 19.695,18.587 L18.985,17.877 Z M19.32,16.926 C19.301,16.617 19.178,16.338 18.985,16.123 L19.695,15.413 C20.071,15.81 20.305,16.342 20.323,16.926 L19.32,16.926 Z M19.695,15.201 C19.268,14.799 18.703,14.547 18.074,14.528 L18.074,13.413 C19.007,13.431 19.855,13.811 20.483,14.413 L19.695,15.201 Z M17.926,14.528 C17.301,14.547 16.732,14.799 16.305,15.201 L15.517,14.413 C16.145,13.811 16.993,13.431 17.926,13.413 L17.926,14.528 L17.926,14.528 Z M16.201,15.305 C15.799,15.732 15.547,16.297 15.528,16.926 L14.413,16.926 C14.431,15.993 14.811,15.145 15.413,14.517 L16.201,15.305 Z M15.532,17.074 C15.55,17.699 15.803,18.268 16.205,18.695 L15.413,19.483 C14.811,18.855 14.431,18.007 14.413,17.074 L15.532,17.074 Z M16.309,18.799 C16.736,19.201 17.301,19.453 17.929,19.472 L17.929,20.587 C16.996,20.569 16.149,20.189 15.521,19.587 L16.309,18.799 Z M18.074,19.468 C18.699,19.45 19.268,19.197 19.695,18.795 L20.483,19.584 C19.855,20.186 19.007,20.565 18.074,20.583 L18.074,19.468 Z M19.799,18.691 C20.201,18.264 20.453,17.699 20.472,17.071 L21.587,17.071 C21.569,18.004 21.189,18.851 20.587,19.479 L19.799,18.691 Z M20.472,16.926 C20.453,16.301 20.201,15.732 19.799,15.305 L20.587,14.517 C21.189,15.145 21.569,15.993 21.587,16.926 L20.472,16.926 Z M20.587,14.309 C19.933,13.68 19.048,13.286 18.074,13.268 L18.074,12.279 C19.32,12.298 20.45,12.803 21.282,13.61 L20.587,14.309 Z M17.926,13.264 C16.952,13.283 16.067,13.677 15.413,14.305 L14.718,13.61 C15.55,12.803 16.68,12.298 17.926,12.279 L17.926,13.264 Z M15.309,14.413 C14.68,15.067 14.286,15.952 14.268,16.926 L13.283,16.926 C13.301,15.68 13.807,14.55 14.614,13.718 L15.309,14.413 Z M14.268,17.074 C14.286,18.048 14.68,18.933 15.309,19.587 L14.614,20.282 C13.807,19.45 13.301,18.32 13.283,17.074 L14.268,17.074 L14.268,17.074 Z M15.413,19.691 C16.067,20.32 16.952,20.714 17.926,20.732 L17.926,21.717 C16.68,21.699 15.55,21.193 14.718,20.386 L15.413,19.691 Z M18.074,20.736 C19.048,20.717 19.933,20.323 20.587,19.695 L21.282,20.39 C20.45,21.197 19.32,21.702 18.074,21.721 L18.074,20.736 Z M20.695,19.587 C21.323,18.933 21.717,18.048 21.736,17.074 L22.721,17.074 C22.702,18.32 22.197,19.45 21.39,20.282 L20.695,19.587 Z M21.736,16.926 C21.717,15.952 21.323,15.067 20.695,14.413 L21.39,13.718 C22.197,14.55 22.702,15.68 22.721,16.926 L21.736,16.926 Z M21.39,13.506 C20.528,12.669 19.364,12.149 18.074,12.13 L18.074,11.015 C19.669,11.034 21.115,11.681 22.178,12.718 L21.39,13.506 Z M17.926,12.13 C16.639,12.149 15.472,12.669 14.61,13.506 L13.826,12.718 C14.889,11.681 16.335,11.034 17.929,11.015 L17.929,12.13 L17.926,12.13 Z M14.506,13.61 C13.669,14.472 13.149,15.636 13.13,16.926 L12.015,16.926 C12.034,15.331 12.681,13.885 13.718,12.822 L14.506,13.61 Z M13.134,17.074 C13.153,18.361 13.673,19.528 14.509,20.39 L13.718,21.174 C12.681,20.115 12.037,18.669 12.019,17.074 L13.134,17.074 Z M14.614,20.494 C15.476,21.331 16.639,21.851 17.929,21.87 L17.929,22.985 C16.335,22.966 14.889,22.319 13.826,21.282 L14.614,20.494 Z M18.074,21.87 C19.361,21.851 20.528,21.331 21.39,20.494 L22.178,21.282 C21.115,22.319 19.669,22.966 18.074,22.985 L18.074,21.87 L18.074,21.87 Z M21.494,20.386 C22.331,19.524 22.851,18.361 22.87,17.071 L23.985,17.071 C23.966,18.665 23.319,20.111 22.282,21.174 L21.494,20.386 Z M22.87,16.926 C22.851,15.639 22.331,14.472 21.494,13.61 L22.282,12.822 C23.319,13.885 23.966,15.331 23.985,16.926 L22.87,16.926 Z"/>
		<path d="M12.997,19.699 L13.089,19.743 L13.119,19.829 L13.164,19.862 L13.205,19.955 L13.182,20 L13.112,19.937 L13.063,19.866 L13.037,19.81 Z M17.81,15.985 L17.744,15.985 L17.732,15.848 L17.77,15.822 L17.77,15.751 L17.554,15.751 L17.546,15.68 L17.576,15.662 L17.528,15.643 L17.491,15.692 L17.48,15.747 L17.416,15.758 L17.416,15.788 L17.372,15.788 L17.372,15.87 L17.197,16.015 L16.851,16.004 C16.825,16.06 16.766,15.996 16.766,15.996 C16.755,15.959 16.665,15.996 16.665,15.996 C16.665,16.067 16.547,15.967 16.547,15.967 L16.331,15.81 C16.208,15.699 16.022,15.84 16.015,15.874 C16.022,15.963 15.874,15.892 15.874,15.892 C15.874,15.892 15.751,15.855 15.732,15.903 C15.714,15.952 15.632,15.941 15.632,15.941 L15.621,15.967 L15.558,15.978 L15.547,16.015 L15.472,16.026 L15.658,16.019 C15.706,16.011 15.64,16.126 15.61,16.119 L15.524,16.126 L15.495,16.156 L15.413,16.156 L15.376,16.208 L15.257,16.201 C15.257,16.201 15.19,16.257 15.193,16.275 C15.201,16.294 15.182,16.349 15.164,16.349 C15.145,16.349 15.108,16.405 15.119,16.424 C15.13,16.442 15.082,16.506 15.082,16.506 L15.071,16.569 L15.034,16.58 L15.034,16.751 L14.959,16.803 L14.959,16.877 L14.848,16.996 L14.859,17.097 L14.766,17.197 L14.777,17.297 L14.721,17.316 L14.71,17.361 L14.684,17.491 L14.747,17.498 C14.777,17.487 14.773,17.58 14.747,17.591 C14.721,17.602 14.654,17.628 14.692,17.654 C14.729,17.68 14.591,17.673 14.591,17.636 C14.591,17.598 14.517,17.565 14.498,17.58 C14.48,17.591 14.45,17.524 14.45,17.524 C14.383,17.454 14.171,17.532 14.171,17.532 L14.141,17.632 C14.075,17.643 14.03,17.758 14.03,17.758 C13.974,17.777 13.93,17.848 13.948,17.866 C13.967,17.885 13.918,17.892 13.918,17.892 L13.918,18.03 L13.889,18.074 L13.896,18.223 C13.933,18.223 13.926,18.294 13.926,18.294 C13.863,18.301 13.878,18.383 13.878,18.383 L13.747,18.427 L13.721,18.465 L13.562,18.457 L13.517,18.502 L13.472,18.457 L13.164,18.457 L13.153,18.427 L13.089,18.416 L13.082,18.346 L12.989,18.353 L12.971,18.39 L12.87,18.398 C12.878,18.461 12.77,18.554 12.759,18.528 C12.747,18.502 12.677,18.435 12.71,18.42 C12.74,18.409 12.822,18.394 12.822,18.394 L12.822,18.349 L12.591,18.342 L12.565,18.379 L12.472,18.387 L12.472,18.487 L12.428,18.498 C12.398,18.517 12.435,18.587 12.435,18.587 C12.48,18.632 12.428,18.699 12.428,18.699 C12.391,18.736 12.458,18.807 12.458,18.807 C12.506,18.818 12.428,18.855 12.428,18.855 C12.439,18.918 12.476,18.937 12.476,18.937 C12.439,19 12.502,19.03 12.502,19.03 L12.51,19.137 L12.554,19.163 L12.554,19.234 L12.58,19.279 L12.681,19.279 L12.673,19.123 C12.588,19.022 12.747,18.996 12.755,19.033 C12.762,19.071 12.829,19.089 12.829,19.089 C12.84,19.182 12.948,19.238 12.978,19.145 C13.008,19.052 13.034,19.108 13.052,19.152 C13.071,19.197 13.19,19.305 13.19,19.305 L13.283,19.305 L13.294,19.394 C13.398,19.386 13.431,19.401 13.472,19.543 C13.517,19.688 13.632,19.725 13.632,19.725 L13.718,19.717 C13.718,19.643 13.803,19.728 13.803,19.769 C13.803,19.807 13.97,19.952 13.97,19.952 L14.138,19.989 L14.294,20.115 L14.413,20.104 L14.461,20.104 C14.491,19.996 14.64,20.111 14.654,20.149 C14.666,20.186 14.766,20.249 14.777,20.219 C14.788,20.189 14.859,20.208 14.87,20.301 C14.881,20.394 14.926,20.375 14.926,20.375 L15.279,20.368 L15.402,20.26 L15.718,20.253 C15.877,20.245 15.781,20.026 15.747,20.026 C15.692,19.981 15.766,19.799 15.766,19.799 L15.316,19.379 C15.212,19.379 15.305,19.227 15.305,19.227 C15.387,19.175 15.286,19.097 15.286,19.097 C15.298,19.022 15.242,18.933 15.242,18.933 C15.13,18.859 15.16,18.714 15.16,18.714 L15.16,18.613 C15.067,18.524 15.197,18.513 15.197,18.513 C15.242,18.439 15.167,18.383 15.167,18.383 L15.16,18.301 L15.06,18.29 L15.048,17.996 L14.825,17.677 C14.781,17.665 14.814,17.587 14.814,17.587 C14.87,17.558 14.803,17.48 14.803,17.48 L14.796,17.342 L14.926,17.331 L14.956,17.283 L15.019,17.283 L15.011,17.119 C15.041,17.037 15.115,17.082 15.115,17.082 L15.201,17.089 L15.249,16.996 L15.26,16.922 L15.193,16.915 C15.119,16.87 15.156,16.706 15.156,16.706 C15.275,16.532 15.409,16.632 15.409,16.632 L15.495,16.625 C15.625,16.714 15.506,16.874 15.506,16.874 C15.48,16.911 15.495,17.03 15.495,17.03 L15.524,17.23 L15.443,17.301 C15.376,17.338 15.376,17.427 15.45,17.446 C15.498,17.454 15.48,17.572 15.405,17.491 C15.294,17.491 15.469,17.591 15.416,17.565 C15.528,17.621 15.502,17.517 15.502,17.517 L15.651,17.398 C15.706,17.353 15.807,17.491 15.807,17.509 C15.807,17.528 16.052,17.517 16.052,17.517 C16.119,17.561 16.145,17.673 16.145,17.673 C16.212,17.584 16.357,17.665 16.249,17.717 C16.35,17.781 16.35,17.836 16.35,17.836 C16.431,17.81 16.431,17.874 16.431,17.892 C16.431,17.911 16.457,17.799 16.457,17.799 C16.364,17.729 16.58,17.706 16.521,17.829 L16.483,17.885 L16.547,17.933 L16.554,18.078 C16.692,18.067 16.654,17.896 16.654,17.896 L16.718,17.885 C16.718,17.829 16.762,17.859 16.762,17.859 C16.718,17.647 16.863,17.61 16.863,17.61 C16.944,17.591 16.948,17.42 16.948,17.42 C16.892,17.394 16.922,17.309 16.985,17.383 C17.048,17.457 16.948,17.23 16.948,17.23 L16.9,17.186 L16.833,17.178 L16.825,17.108 L16.714,17.108 L16.695,17.197 L16.654,17.216 L16.643,17.19 L16.625,17.26 L16.513,17.26 L16.506,17.186 L16.573,17.167 L16.599,17.13 L16.617,17.03 L16.699,17.03 L16.803,17 C16.81,16.892 16.866,16.918 16.866,16.918 L16.903,16.948 L16.959,16.993 L16.967,17.03 L16.929,17.048 L16.922,17.1 L16.941,17.171 L16.989,17.171 C17.007,17.071 17.138,17.071 17.175,17.134 L17.212,17.045 C17.126,17 17.212,16.933 17.234,16.963 C17.26,16.993 17.316,16.881 17.316,16.881 C17.316,16.881 17.361,16.937 17.316,16.862 C17.271,16.788 17.346,16.751 17.346,16.751 C17.335,16.677 17.428,16.688 17.428,16.688 L17.435,16.587 L17.349,16.58 C17.331,16.669 17.257,16.591 17.294,16.573 C17.331,16.554 17.368,16.517 17.368,16.517 L17.368,16.454 L17.405,16.442 L17.413,16.379 L17.506,16.379 L17.587,16.342 L17.606,16.312 L17.691,16.305 L17.814,16.193 L17.803,16.145 C17.729,16.145 17.803,16.089 17.803,16.089 L17.81,15.985 L17.81,15.985 Z M15.32,17.227 L15.208,17.216 L15.216,17.26 L15.246,17.26 C15.294,17.349 15.253,17.561 15.253,17.561 C15.253,17.561 15.179,17.569 15.167,17.532 C15.156,17.494 15.123,17.613 15.149,17.632 C15.175,17.651 15.26,17.632 15.268,17.703 C15.275,17.773 15.324,17.658 15.324,17.658 L15.32,17.227 L15.32,17.227 Z M15.208,17.736 L15.208,17.885 L15.305,18.019 L15.342,17.929 L15.357,17.874 L15.312,17.855 L15.32,17.762 L15.357,17.755 L15.361,17.71 L15.268,17.773 Z M17.413,16.799 L17.45,16.799 L17.457,16.84 L17.431,16.862 L17.42,16.896 L17.372,16.907 L17.26,17.015 L17.253,17.063 L17.223,17.108 L17.186,17.201 L17.056,17.208 L17.03,17.32 L17.048,17.416 L17.16,17.461 L17.171,17.398 L17.208,17.379 L17.216,17.316 L17.242,17.271 L17.279,17.227 L17.29,17.178 L17.353,17.141 L17.428,17.126 L17.457,17.089 L17.468,17.015 L17.476,16.959 L17.502,16.918 L17.576,16.888 L17.576,16.77 L17.539,16.77 L17.532,16.725 L17.465,16.717 L17.45,16.751 L17.42,16.751 Z M17.703,17.152 L17.703,17.063 L17.691,16.981 L17.599,16.937 L17.532,17 L17.52,17.089 L17.52,17.145 L17.457,17.156 L17.446,17.327 L17.398,17.346 L17.405,17.409 L17.338,17.427 L17.271,17.446 L17.26,17.528 L17.212,17.558 L17.186,17.632 L17.156,17.814 C17.156,17.814 17.212,17.922 17.242,17.87 C17.271,17.822 17.323,17.814 17.323,17.814 L17.342,17.769 L17.509,17.777 C17.52,17.706 17.602,17.732 17.602,17.766 C17.602,17.795 17.665,17.773 17.665,17.773 L17.71,17.703 L17.777,17.703 L17.784,17.628 L17.814,17.61 L17.814,17.498 C17.915,17.468 17.9,17.372 17.9,17.372 L17.926,17.342 L17.915,17.297 C17.866,17.279 17.888,17.234 17.922,17.245 C17.952,17.256 17.877,17.19 17.877,17.19 C17.84,17.219 17.81,17.152 17.81,17.152 L17.703,17.152 L17.703,17.152 Z M17.803,17.911 C17.796,17.985 17.703,18.011 17.703,18.011 L17.636,17.993 L17.599,17.963 L17.591,17.874 L17.647,17.866 L17.658,17.903 L17.803,17.911 L17.803,17.911 Z M18.138,17.509 C18.152,17.565 18.149,17.42 18.175,17.427 C18.201,17.435 18.182,17.338 18.182,17.338 L18.071,17.42 C18.123,17.427 18.13,17.483 18.138,17.509 Z M18.465,17.182 C18.491,17.238 18.483,17.32 18.576,17.383 C18.606,17.405 18.558,17.446 18.528,17.427 C18.498,17.409 18.409,17.271 18.409,17.271 L18.409,17.19 C18.427,17.141 18.454,17.16 18.465,17.182 L18.465,17.182 Z M20.992,20.208 L21.048,20.234 L21.056,20.342 C21.13,20.416 21.372,20.353 21.372,20.334 C21.372,20.316 21.36,20.104 21.36,20.104 L21.331,20.074 L21.323,19.918 C21.349,19.836 21.204,19.717 21.193,19.743 C21.182,19.769 21.1,19.751 21.1,19.773 C21.1,19.799 21.052,19.922 21.074,19.966 C21.1,20.011 21.056,20.011 21.048,20.056 C21.041,20.093 20.978,20.167 20.992,20.208 L20.992,20.208 Z M21.208,17.598 C21.182,17.561 21.331,17.498 21.357,17.572 C21.383,17.647 21.357,17.636 21.331,17.628 C21.308,17.621 21.245,17.647 21.208,17.598 L21.208,17.598 Z M21.401,15.338 L21.308,15.338 C21.308,15.338 21.338,15.35 21.253,15.268 C21.167,15.186 21.111,15.286 21.111,15.286 L21.011,15.297 L21.011,15.398 L20.963,15.416 L20.97,15.48 L21.037,15.472 C21.037,15.472 21.037,15.547 21.056,15.517 C21.074,15.487 21.23,15.524 21.215,15.599 C21.212,15.628 21.372,15.71 21.353,15.81 C21.435,15.822 21.416,15.903 21.416,15.903 L21.52,15.915 L21.55,15.851 L21.58,15.859 L21.58,15.822 L21.513,15.803 L21.502,15.602 L21.457,15.573 L21.468,15.521 L21.42,15.502 L21.446,15.42 L21.401,15.338 L21.401,15.338 Z M21.673,15.978 L21.624,15.97 L21.513,15.989 L21.45,16.108 C21.45,16.108 21.479,16.126 21.505,16.171 C21.531,16.216 21.543,16.472 21.468,16.517 C21.394,16.561 21.476,16.535 21.476,16.535 L21.464,16.673 C21.483,16.736 21.513,16.703 21.531,16.673 C21.55,16.643 21.569,16.636 21.595,16.602 C21.621,16.573 21.658,16.513 21.662,16.472 C21.669,16.428 21.699,16.361 21.68,16.342 C21.662,16.323 21.699,16.234 21.699,16.234 C21.699,16.234 21.725,16.182 21.699,16.134 C21.673,16.082 21.706,16.026 21.725,16.004 L21.673,15.978 L21.673,15.978 Z M21.691,15.911 L21.665,15.855 C21.665,15.855 21.665,15.807 21.676,15.781 C21.688,15.755 21.65,15.732 21.632,15.725 C21.613,15.718 21.621,15.669 21.613,15.643 C21.606,15.617 21.565,15.599 21.565,15.599 C21.565,15.599 21.554,15.506 21.554,15.487 C21.554,15.468 21.498,15.442 21.517,15.424 C21.535,15.405 21.546,15.379 21.565,15.368 C21.583,15.357 21.546,15.268 21.576,15.286 C21.606,15.305 21.606,15.338 21.621,15.361 C21.632,15.387 21.613,15.472 21.647,15.491 C21.676,15.509 21.639,15.573 21.691,15.573 C21.74,15.573 21.71,15.692 21.71,15.692 C21.71,15.692 21.699,15.781 21.728,15.784 C21.758,15.792 21.74,15.941 21.74,15.941 L21.691,15.911 L21.691,15.911 Z M21.29,14.896 C21.308,14.922 21.346,14.941 21.346,14.967 C21.346,14.993 21.334,15.011 21.372,15.015 C21.409,15.022 21.435,15.008 21.446,15.041 C21.457,15.071 21.457,15.123 21.453,15.149 C21.446,15.175 21.461,15.212 21.491,15.212 C21.52,15.212 21.528,15.219 21.528,15.238 C21.528,15.257 21.565,15.167 21.565,15.167 C21.535,15.141 21.509,15.086 21.509,15.086 C21.509,15.086 21.479,14.996 21.479,14.985 C21.479,14.974 21.435,14.959 21.416,14.955 C21.398,14.948 21.368,14.892 21.368,14.892 L21.29,14.896 L21.29,14.896 Z M21.349,14.837 C21.331,14.811 21.312,14.792 21.286,14.781 C21.26,14.77 21.241,14.755 21.219,14.755 C21.193,14.755 21.171,14.729 21.182,14.699 C21.193,14.669 21.163,14.654 21.163,14.628 C21.163,14.602 21.182,14.602 21.212,14.621 C21.241,14.64 21.238,14.647 21.26,14.677 C21.286,14.706 21.297,14.74 21.323,14.732 C21.349,14.725 21.368,14.788 21.39,14.77 C21.416,14.751 21.409,14.814 21.409,14.814 L21.349,14.837 L21.349,14.837 Z M20.628,15.547 C20.662,15.58 20.442,15.573 20.442,15.547 C20.442,15.521 20.461,15.435 20.517,15.454 C20.572,15.472 20.58,15.342 20.58,15.342 C20.58,15.342 20.531,15.35 20.572,15.324 C20.617,15.297 20.572,15.26 20.554,15.242 C20.535,15.223 20.517,15.19 20.517,15.19 L20.602,15.19 C20.639,15.164 20.65,15.045 20.65,15.045 C20.725,15.071 20.762,15.019 20.762,15.019 C20.762,15.019 20.773,15.056 20.799,15.089 C20.825,15.119 20.736,15.134 20.769,15.153 C20.799,15.171 20.814,15.227 20.799,15.245 C20.788,15.264 20.717,15.253 20.717,15.227 C20.717,15.201 20.691,15.257 20.717,15.29 C20.743,15.32 20.688,15.364 20.673,15.364 C20.662,15.364 20.58,15.376 20.647,15.416 C20.714,15.454 20.788,15.435 20.788,15.435 C20.788,15.435 20.844,15.428 20.862,15.461 C20.881,15.491 20.855,15.498 20.825,15.498 C20.795,15.498 20.647,15.487 20.647,15.487 C20.647,15.487 20.61,15.528 20.628,15.547 L20.628,15.547 Z M21.03,15.078 C21.078,15.052 21.186,15.052 21.178,15.015 C21.171,14.978 21.241,14.967 21.241,14.967 L21.26,15.041 L21.316,15.078 L21.323,15.149 C21.323,15.149 21.342,15.138 21.275,15.156 C21.208,15.175 21.249,15.205 21.249,15.205 L21.1,15.212 L21.082,15.149 L21.03,15.078 L21.03,15.078 Z M20.788,14.736 C20.825,14.736 20.777,14.881 20.873,14.866 C20.974,14.855 20.881,14.911 20.955,14.915 C21.03,14.922 21.011,14.859 21.037,14.814 C21.063,14.77 21.048,14.744 21.007,14.732 C20.963,14.721 20.963,14.721 20.952,14.669 C20.94,14.621 20.888,14.606 20.888,14.606 L20.87,14.532 L20.788,14.58 L20.706,14.688 C20.706,14.777 20.751,14.736 20.788,14.736 L20.788,14.736 Z M18.996,15.42 L18.989,15.465 L19.056,15.472 C19.056,15.472 19.085,15.498 19.085,15.517 C19.085,15.535 19.13,15.554 19.152,15.554 C19.178,15.554 19.245,15.502 19.245,15.502 C19.245,15.502 19.275,15.413 19.253,15.42 C19.227,15.428 19.178,15.465 19.171,15.428 C19.164,15.39 19.089,15.409 19.089,15.409 L18.996,15.42 L18.996,15.42 Z M19.305,15.353 C19.305,15.372 19.294,15.398 19.331,15.405 C19.368,15.413 19.435,15.379 19.442,15.416 C19.45,15.454 19.45,15.48 19.498,15.498 C19.546,15.517 19.58,15.524 19.617,15.524 C19.654,15.524 19.736,15.513 19.736,15.513 C19.736,15.513 19.825,15.528 19.84,15.543 C19.907,15.613 19.952,15.632 19.97,15.599 C19.989,15.569 19.963,15.498 19.959,15.472 C19.952,15.446 19.866,15.327 19.836,15.353 C19.807,15.379 19.799,15.353 19.743,15.372 C19.688,15.39 19.569,15.379 19.565,15.353 C19.558,15.327 19.472,15.316 19.472,15.29 C19.472,15.264 19.409,15.234 19.416,15.271 C19.424,15.309 19.372,15.327 19.361,15.316 C19.342,15.301 19.305,15.353 19.305,15.353 L19.305,15.353 Z M20.725,14.55 L20.769,14.413 C20.706,14.402 20.721,14.331 20.721,14.331 C20.714,14.275 20.628,14.212 20.598,14.231 C20.569,14.249 20.58,14.101 20.58,14.101 C20.58,14.101 20.636,14.063 20.662,14.082 C20.688,14.101 20.45,13.77 20.401,13.799 C20.353,13.829 20.242,13.77 20.245,13.71 C20.253,13.654 20.022,13.465 20.022,13.465 C20.022,13.465 19.948,13.417 19.937,13.454 C19.926,13.491 19.9,13.517 19.937,13.536 C19.974,13.554 19.966,13.506 20.011,13.547 C20.056,13.591 20.134,13.647 20.104,13.684 C20.074,13.721 20.037,13.736 20.037,13.736 L20.082,13.788 L20.149,13.788 L20.16,13.896 C20.16,13.896 20.234,13.933 20.253,13.978 C20.271,14.022 20.271,14.048 20.253,14.071 C20.234,14.097 20.197,14.141 20.204,14.182 C20.212,14.227 20.26,14.246 20.26,14.246 L20.308,14.253 L20.346,14.272 L20.346,14.353 C20.394,14.342 20.476,14.409 20.468,14.454 C20.461,14.498 20.479,14.472 20.543,14.517 C20.606,14.561 20.587,14.569 20.628,14.599 C20.669,14.625 20.706,14.606 20.725,14.55 L20.725,14.55 Z M19.706,13.695 C19.699,13.669 19.688,13.584 19.725,13.588 C19.762,13.595 19.736,13.588 19.781,13.606 C19.825,13.625 19.829,13.576 19.829,13.576 L19.896,13.576 L19.981,13.647 L19.97,13.703 L19.907,13.71 C19.877,13.662 19.814,13.68 19.825,13.721 C19.836,13.766 19.795,13.848 19.769,13.851 C19.743,13.859 19.665,13.859 19.669,13.822 C19.68,13.785 19.706,13.695 19.706,13.695 L19.706,13.695 Z M19.658,13.528 L19.658,13.48 C19.658,13.48 19.65,13.431 19.621,13.431 C19.591,13.431 19.535,13.394 19.546,13.368 C19.558,13.342 19.442,13.316 19.442,13.316 C19.442,13.316 19.338,13.216 19.375,13.227 C19.413,13.238 19.394,13.182 19.394,13.182 C19.394,13.182 19.32,13.194 19.301,13.19 C19.282,13.182 19.29,13.127 19.29,13.127 C19.29,13.127 19.216,13.108 19.216,13.127 C19.216,13.145 19.242,13.145 19.253,13.182 C19.264,13.22 19.26,13.283 19.316,13.294 C19.372,13.305 19.383,13.32 19.39,13.346 C19.398,13.372 19.465,13.376 19.465,13.376 L19.513,13.402 L19.658,13.528 L19.658,13.528 Z M18.97,12.625 C18.907,12.576 19.056,12.662 19.056,12.662 C19.104,12.662 19.137,12.699 19.137,12.718 C19.137,12.736 19.204,12.729 19.204,12.729 L19.212,12.684 L19.164,12.621 L19.119,12.591 C19.119,12.591 19.052,12.584 19.052,12.565 C19.052,12.55 18.996,12.643 18.97,12.625 L18.97,12.625 Z M20.108,12.662 C20.089,12.718 20.082,12.792 20.052,12.792 C20.022,12.792 20.033,12.874 20.033,12.874 C20.033,12.874 20.115,12.874 20.137,12.881 C20.163,12.889 20.163,12.952 20.163,12.952 C20.256,12.944 20.294,13.071 20.282,13.104 C20.271,13.134 20.32,13.134 20.32,13.134 C20.32,13.134 20.32,13.234 20.308,13.26 C20.297,13.286 20.39,13.305 20.413,13.342 C20.439,13.379 20.401,13.506 20.383,13.513 C20.364,13.521 20.431,13.539 20.427,13.569 C20.42,13.599 20.446,13.569 20.453,13.621 C20.461,13.669 20.472,13.777 20.472,13.777 L20.557,13.785 C20.569,13.703 20.728,13.699 20.754,13.71 C20.859,13.747 20.94,13.911 20.94,13.948 C20.94,13.985 20.873,13.993 20.873,13.993 L20.885,14.175 C20.989,14.205 21.078,14.357 21.063,14.383 C21.052,14.409 21.137,14.402 21.137,14.402 C21.149,14.29 21.256,14.327 21.26,14.364 C21.267,14.402 21.286,14.483 21.286,14.483 L21.316,14.539 L21.36,14.584 L21.427,14.576 L21.446,14.614 L21.528,14.625 C21.528,14.625 21.595,14.699 21.602,14.718 C21.609,14.736 21.702,14.729 21.725,14.736 C21.751,14.744 21.788,14.762 21.792,14.792 C21.799,14.822 21.836,14.874 21.836,14.874 C21.836,14.874 21.911,14.892 21.918,14.918 C21.925,14.944 21.955,15 21.955,15 L22.018,15.052 L22.026,15.108 L22.093,15.115 L22.111,15.19 L22.223,15.182 L22.286,15.138 C22.368,15.093 22.424,15.037 22.427,15.011 C22.435,14.985 22.446,14.892 22.509,14.911 C22.572,14.929 22.528,14.773 22.528,14.773 C22.528,14.773 22.442,14.71 22.446,14.68 C22.453,14.651 22.36,14.587 22.364,14.561 C22.372,14.535 22.282,14.487 22.29,14.461 C22.297,14.435 22.245,14.368 22.245,14.368 L22.152,14.279 L22.141,14.223 L22.067,14.216 L21.918,14.034 L21.925,13.982 L21.881,13.974 L21.881,13.904 L21.836,13.877 L21.769,13.87 L21.632,13.721 L21.621,13.651 L21.554,13.651 L21.565,13.521 C21.609,13.465 21.583,13.357 21.583,13.357 C21.583,13.357 21.498,13.402 21.453,13.383 C21.409,13.365 21.472,13.32 21.472,13.32 L21.472,13.272 L21.435,13.234 C21.435,13.234 21.331,13.246 21.323,13.227 C21.316,13.208 21.297,13.127 21.297,13.127 L21.29,13.019 L21.245,13 L21.238,12.963 L21.171,12.97 L21.171,12.896 L21.134,12.885 L21.096,12.866 L21.089,12.792 L20.952,12.785 L20.907,12.721 L20.859,12.647 L20.702,12.636 L20.665,12.599 L20.602,12.588 L20.557,12.569 L20.539,12.599 L20.42,12.606 L20.413,12.643 C20.36,12.669 20.115,12.643 20.108,12.662 L20.108,12.662 Z M20.758,12.498 C20.747,12.45 20.881,12.405 20.914,12.443 C20.944,12.48 21.033,12.487 21.044,12.673 C21.048,12.74 20.933,12.602 20.933,12.602 L20.84,12.573 C20.788,12.562 20.762,12.532 20.758,12.498 L20.758,12.498 Z M18.625,11.959 L18.543,11.878 L18.543,11.807 L18.517,11.781 L18.491,11.692 L18.409,11.666 L18.327,11.695 L18.242,11.751 L18.149,11.762 L18.1,11.818 L18.297,11.837 L18.335,11.9 L18.476,11.911 L18.569,12.004 C18.654,12.041 18.673,12.004 18.625,11.959 L18.625,11.959 Z M18.613,11.651 C18.598,11.595 18.52,11.721 18.602,11.744 C18.684,11.77 18.762,11.744 18.762,11.744 L18.781,11.707 L19.089,11.714 C19.115,11.688 19.126,11.651 19.126,11.651 C19.126,11.651 19.201,11.625 19.23,11.64 C19.26,11.651 19.238,11.55 19.204,11.565 C19.175,11.576 19.111,11.573 19.111,11.573 L19,11.573 C18.993,11.528 18.896,11.547 18.888,11.573 C18.885,11.595 18.848,11.603 18.848,11.603 L18.706,11.614 C18.691,11.651 18.621,11.677 18.613,11.651 L18.613,11.651 Z M18,12.71 C18.097,12.74 18.13,12.718 18.138,12.692 C18.145,12.666 18.149,12.662 18.186,12.655 C18.223,12.647 18.178,12.573 18.141,12.58 C18.104,12.588 18.067,12.569 18.059,12.536 C18.052,12.506 17.993,12.424 17.985,12.487 C17.978,12.55 17.941,12.55 17.948,12.595 C17.959,12.636 17.978,12.703 18,12.71 L18,12.71 Z M17.29,12.781 C17.286,12.759 17.413,12.755 17.431,12.773 C17.45,12.792 17.439,12.826 17.494,12.826 C17.55,12.826 17.524,12.863 17.52,12.881 C17.513,12.9 17.454,12.892 17.446,12.874 C17.439,12.855 17.346,12.848 17.346,12.848 C17.346,12.848 17.297,12.811 17.29,12.781 L17.29,12.781 Z M21.424,16.175 C21.398,16.201 21.342,16.212 21.342,16.212 L21.323,16.283 L21.294,16.309 C21.294,16.309 21.301,16.327 21.294,16.372 C21.286,16.416 21.23,16.442 21.23,16.442 L21.204,16.472 C21.204,16.472 21.056,16.48 21.037,16.472 C20.981,16.446 21.018,16.372 21.056,16.379 C21.093,16.387 21.048,16.271 21.048,16.271 L21.096,16.264 C21.096,16.264 21.104,16.152 21.123,16.152 C21.141,16.152 21.115,16.115 21.093,16.097 C21.067,16.078 21.037,16.015 21.011,16.022 C20.985,16.03 20.888,16.022 20.888,16.022 L20.87,16.06 L20.803,16.071 C20.803,16.071 20.81,16.119 20.795,16.134 C20.758,16.178 20.617,16.271 20.676,16.115 L20.695,16.078 L20.695,16.022 L20.584,16.015 C20.584,16.015 20.528,15.996 20.528,15.97 C20.528,15.944 20.52,15.915 20.52,15.915 L20.39,15.77 L20.234,15.751 L20.223,15.721 L20.13,15.71 C20.018,15.654 19.918,15.703 19.937,15.799 C19.955,15.892 19.985,15.929 19.926,15.929 C19.862,15.929 19.851,15.881 19.851,15.881 C19.851,15.881 19.803,15.863 19.803,15.889 C19.803,15.915 19.784,15.963 19.803,15.989 C19.821,16.015 19.777,16.052 19.758,16.034 C19.74,16.015 19.691,15.959 19.703,15.941 C19.714,15.922 19.617,15.803 19.714,15.784 C19.814,15.766 19.706,15.71 19.743,15.695 L19.792,15.669 L19.84,15.669 L19.87,15.643 L19.788,15.632 L19.74,15.625 L19.647,15.617 C19.554,15.68 19.535,15.755 19.535,15.755 C19.487,15.848 19.368,15.718 19.413,15.665 C19.457,15.613 19.275,15.658 19.245,15.684 C19.216,15.71 19.123,15.695 19.123,15.695 C19.104,15.751 19.019,15.688 19.041,15.651 C19.067,15.613 19.067,15.587 19.067,15.587 L19.037,15.58 L19,15.651 C18.914,15.651 18.888,15.699 18.907,15.732 C18.926,15.762 18.881,15.725 18.87,15.77 C18.859,15.814 18.877,15.814 18.914,15.833 C18.952,15.851 18.896,15.851 18.922,15.881 C18.948,15.911 19.022,15.881 18.978,15.926 C18.933,15.97 18.848,15.952 18.848,15.952 C18.84,16.007 18.725,15.996 18.71,15.978 C18.699,15.959 18.606,15.848 18.606,15.848 L18.487,15.84 C18.476,15.751 18.543,15.796 18.569,15.729 C18.595,15.658 18.606,15.547 18.606,15.547 C18.606,15.547 18.506,15.539 18.502,15.573 C18.494,15.602 18.435,15.625 18.435,15.625 C18.435,15.625 18.387,15.643 18.405,15.669 C18.424,15.695 18.368,15.706 18.368,15.706 C18.368,15.706 18.379,15.747 18.361,15.762 C18.312,15.814 18.186,15.77 18.167,15.751 L18.093,15.721 L18.019,15.673 L17.933,15.71 L17.907,15.736 L17.814,15.736 L17.807,15.81 L17.974,15.829 L17.985,15.985 L17.918,15.963 L17.874,15.963 L17.855,15.926 L17.818,15.918 L17.818,16.056 L17.855,16.086 L17.885,16.115 L17.948,16.123 L17.959,16.197 L18.115,16.205 L18.134,16.234 L18.227,16.242 L18.405,16.424 L18.394,16.48 L18.364,16.498 C18.375,16.543 18.283,16.517 18.283,16.517 L18.283,16.554 L18.327,16.561 L18.372,16.587 L18.435,16.48 C18.502,16.435 18.535,16.498 18.539,16.535 C18.546,16.573 18.509,16.565 18.509,16.565 L18.509,16.654 L18.546,16.665 C18.61,16.74 18.52,16.784 18.52,16.784 L18.502,16.848 C18.483,16.903 18.416,16.892 18.416,16.892 L18.39,16.929 L18.316,16.948 L18.461,16.967 C18.476,16.915 18.513,16.903 18.532,16.929 C18.55,16.955 18.55,17 18.55,17 L18.587,17.007 L18.58,17.078 L18.617,17.089 L18.617,17.29 L18.662,17.338 C18.736,17.309 18.736,17.357 18.699,17.383 C18.662,17.409 18.688,17.52 18.688,17.52 L18.658,17.55 L18.658,17.602 L18.621,17.628 L18.621,17.699 C18.558,17.669 18.483,17.68 18.465,17.699 C18.409,17.662 18.29,17.673 18.29,17.706 C18.327,17.755 18.245,17.769 18.245,17.769 L18.201,17.818 C18.23,17.881 18.171,17.888 18.171,17.888 L18.171,18.007 L18.097,18.078 L18.104,18.242 C18.104,18.286 18.197,18.29 18.216,18.268 C18.234,18.242 18.309,18.32 18.309,18.32 L18.364,18.32 L18.375,18.208 L18.338,18.19 L18.338,18.007 L18.401,17.937 C18.476,17.911 18.45,18.1 18.45,18.119 C18.457,18.19 18.487,18.182 18.517,18.167 C18.58,18.141 18.528,18.238 18.48,18.23 C18.431,18.223 18.461,18.294 18.461,18.294 L18.491,18.305 L18.435,18.349 L18.387,18.405 L18.323,18.387 L18.249,18.379 L18.223,18.335 L18.178,18.327 L18.171,18.416 L18.141,18.453 L18.067,18.528 C18.167,18.528 18.056,18.598 18.03,18.598 C18.085,18.617 18.022,18.673 17.881,18.628 L17.881,18.673 L17.833,18.68 L17.877,18.729 L17.926,18.736 L17.907,18.844 C17.907,18.926 17.703,18.87 17.684,18.851 L17.677,18.963 L17.639,18.97 L17.647,19.045 L17.639,19.152 L17.706,19.141 L17.706,19.186 L17.874,19.193 L18.115,18.937 L18.256,18.907 C18.268,18.844 18.331,18.918 18.331,18.918 C18.394,18.911 18.405,18.955 18.405,18.955 L18.487,18.966 C18.554,18.985 18.513,18.992 18.517,19.018 C18.524,19.056 18.554,19.045 18.554,19.045 L18.565,18.963 L18.602,18.97 L18.565,18.926 L18.498,18.896 L18.424,18.866 C18.375,18.795 18.435,18.81 18.487,18.818 L18.569,18.818 C18.569,18.818 18.662,18.944 18.662,18.974 C18.662,19.004 18.706,19.011 18.706,19.011 L18.762,19.004 L18.781,19.048 L18.836,19.048 L18.855,19.085 L18.966,19.085 L18.974,19.03 L18.87,19.011 L18.862,18.948 L18.788,18.929 C18.762,18.821 18.807,18.792 18.836,18.84 L18.874,18.847 L18.862,18.755 L18.907,18.743 L18.896,18.613 L18.859,18.602 L18.859,18.558 L19.015,18.565 C19.004,18.483 19.022,18.446 19.022,18.446 L19.067,18.446 L19.074,18.476 L19.264,18.494 L19.398,18.342 C19.39,18.331 19.413,18.323 19.398,18.308 C19.379,18.29 19.353,18.308 19.323,18.29 C19.294,18.271 19.323,18.164 19.316,18.141 C19.308,18.115 19.42,18.078 19.401,18.134 C19.383,18.19 19.401,18.216 19.401,18.216 C19.483,18.141 19.55,18.223 19.543,18.242 C19.535,18.26 19.587,18.279 19.617,18.26 C19.647,18.242 19.684,18.316 19.673,18.353 C19.662,18.39 19.55,18.383 19.543,18.346 C19.535,18.308 19.517,18.32 19.505,18.338 C19.494,18.357 19.439,18.368 19.405,18.349 C19.398,18.346 19.398,18.342 19.394,18.338 L19.26,18.491 L19.268,18.491 C19.342,18.535 19.305,18.591 19.279,18.602 C19.253,18.613 19.212,18.613 19.212,18.613 L19.201,18.639 L19.041,18.65 L19.03,18.714 C18.948,18.703 18.918,18.788 18.937,18.833 C18.955,18.877 18.937,18.914 18.937,18.914 L19.004,18.944 L19.089,18.918 C19.1,18.855 19.156,18.844 19.208,18.807 C19.256,18.769 19.338,18.877 19.312,18.926 C19.286,18.974 19.286,18.996 19.286,18.996 L19.294,19.052 L19.23,19.078 L19.182,19.104 L19.175,19.134 L19.007,19.134 L18.978,19.163 L18.896,19.171 L18.87,19.208 L18.814,19.215 C18.814,19.215 18.721,19.26 18.758,19.308 C18.795,19.36 18.602,19.353 18.561,19.282 C18.55,19.346 18.48,19.29 18.48,19.29 L18.413,19.271 L18.405,19.178 C18.394,19.115 18.275,19.115 18.283,19.16 C18.29,19.204 18.059,19.178 18.059,19.178 L17.985,19.215 L17.918,19.256 L17.911,19.286 L17.799,19.297 L17.751,19.323 L17.732,19.286 L17.684,19.286 L17.636,19.357 C17.506,19.364 17.383,19.439 17.394,19.468 C17.405,19.498 17.346,19.531 17.346,19.531 L17.29,19.55 L17.253,19.606 L17.178,19.632 L17.167,19.762 L17.13,19.788 L17.13,19.844 L17.086,19.855 L17.086,19.885 L17.022,19.892 L17.06,19.985 L17.108,20.011 C17.193,20.022 17.156,20.13 17.156,20.13 L17.205,20.137 L17.231,20.208 L17.279,20.308 C17.297,20.383 17.353,20.364 17.379,20.36 C17.405,20.353 17.428,20.435 17.428,20.435 L17.673,20.442 C17.673,20.442 17.662,20.468 17.703,20.479 C17.747,20.491 18.03,20.505 18.041,20.487 C18.03,20.431 18.197,20.416 18.264,20.468 C18.331,20.517 18.424,20.487 18.424,20.487 L18.517,20.598 L18.58,20.736 L18.684,20.766 L18.758,20.784 L18.784,20.892 L18.84,20.899 L18.859,20.97 C18.926,21.018 18.84,21.126 18.84,21.126 L18.84,21.264 L18.888,21.29 L18.881,21.342 L18.963,21.424 L19.056,21.431 L19.29,21.68 L19.476,21.736 L19.505,21.836 L19.554,21.829 L19.591,21.799 L19.74,21.792 L19.814,21.721 L19.896,21.71 L20.584,21.126 L20.52,21.089 L20.52,20.951 C20.632,20.87 20.639,20.725 20.531,20.714 C20.453,20.702 20.487,20.621 20.561,20.606 L20.606,20.587 L20.606,20.531 L20.747,20.401 L20.747,20.301 L20.439,20.044 C20.301,19.996 20.439,19.695 20.531,19.699 C20.624,19.706 20.524,19.234 20.524,19.234 L20.476,19.208 L20.487,19.056 L20.42,19.056 L20.308,19.201 L20.279,19.301 C20.268,19.431 19.885,19.409 19.866,19.39 C19.847,19.372 19.717,19.316 19.717,19.316 C19.717,19.316 19.617,19.234 19.598,19.26 C19.58,19.286 19.494,19.23 19.494,19.249 C19.494,19.268 19.413,19.204 19.413,19.204 L19.29,19.16 L19.383,19.141 L19.364,19.067 L19.524,19.149 C19.543,19.175 19.624,19.167 19.624,19.167 L19.65,19.197 C19.65,19.197 19.699,19.189 19.732,19.227 C19.762,19.264 19.926,19.234 19.926,19.234 L19.97,19.271 L20.037,19.297 L20.23,19.305 L20.238,19.186 L20.275,19.149 L20.268,19.074 L20.312,19.037 L20.312,18.974 L20.349,18.963 L20.357,18.825 L20.386,18.818 L20.386,18.517 L20.294,18.427 C20.286,18.457 20.189,18.457 20.189,18.457 C20.189,18.457 20.163,18.502 20.145,18.502 C20.126,18.502 20.171,18.558 20.156,18.595 C20.145,18.632 20.093,18.632 20.093,18.632 L20,18.658 L19.974,18.688 L19.874,18.688 L19.862,18.606 L19.974,18.576 L20.037,18.546 L20.067,18.483 C20.074,18.42 20.149,18.427 20.149,18.427 C20.149,18.427 20.29,18.308 20.297,18.253 C20.305,18.197 20.353,18.041 20.439,18.041 L20.598,18.041 C20.662,18.015 20.643,17.933 20.643,17.933 L20.725,17.922 L20.736,17.966 C20.736,17.966 20.847,17.978 20.859,17.959 C20.87,17.94 20.896,17.896 20.925,17.914 C20.955,17.933 21.056,17.87 21.056,17.87 C21.063,17.825 21.215,17.844 21.215,17.844 L21.234,17.788 C21.234,17.788 21.13,17.643 21.111,17.643 C21.093,17.643 20.992,17.554 20.981,17.587 C20.881,17.561 20.888,17.424 20.888,17.424 L20.851,17.335 C20.851,17.283 20.758,17.178 20.74,17.19 C20.647,17.119 20.714,17.041 20.74,17.033 C20.766,17.026 20.825,16.941 20.825,16.941 L20.855,16.851 L20.959,16.822 L20.97,16.74 L20.914,16.732 C20.914,16.732 20.978,16.621 21.007,16.621 C21.037,16.621 21.241,16.621 21.26,16.61 C21.279,16.599 21.316,16.498 21.316,16.48 C21.316,16.461 21.364,16.454 21.383,16.45 C21.401,16.442 21.446,16.394 21.457,16.368 C21.491,16.305 21.45,16.149 21.424,16.175 L21.424,16.175 Z M18,18.435 C18.007,18.427 18.019,18.465 18.037,18.457 C18.056,18.453 18.063,18.491 18.045,18.491 C18.026,18.491 18.026,18.513 18.026,18.524 C18.026,18.535 18.026,18.558 18.011,18.572 C17.996,18.587 17.985,18.576 17.967,18.569 C17.948,18.558 17.941,18.558 17.915,18.558 C17.892,18.558 17.911,18.595 17.911,18.595 C17.911,18.595 17.814,18.591 17.833,18.576 C17.851,18.561 17.87,18.558 17.855,18.546 C17.84,18.535 17.855,18.528 17.855,18.509 C17.855,18.491 17.9,18.498 17.888,18.487 C17.874,18.472 17.888,18.42 17.911,18.45 L17.926,18.416 C17.911,18.401 17.922,18.398 17.892,18.387 C17.866,18.375 17.888,18.32 17.888,18.32 L17.892,18.282 C17.9,18.234 17.993,18.23 18,18.271 C18.004,18.312 18,18.342 18,18.342 L18.026,18.353 C18.026,18.353 18.022,18.383 18,18.383 C17.978,18.383 18,18.398 17.985,18.413 L18,18.435 L18,18.435 Z M17.695,18.483 C17.71,18.453 17.74,18.335 17.777,18.372 C17.814,18.409 17.836,18.372 17.836,18.372 C17.836,18.372 17.855,18.39 17.844,18.427 C17.836,18.465 17.825,18.502 17.803,18.509 C17.781,18.513 17.762,18.528 17.732,18.532 C17.71,18.535 17.695,18.483 17.695,18.483 L17.695,18.483 Z"/>
	</g>
</svg>

