<svg xmlns="http://www.w3.org/2000/svg" viewBox="0 0 36 36">
	<path d="M 32,0 a 4,4 0 01 4,4 v18 l-2,2 h-32 l-2,-2 v-18 a 4,4 0 01 4,-4 h28 Z"  fill="#FFCC4D"/>
	<path d="M 32.1143,18.7363 c 1.587,-0.451 1.587,-1.147 0.001,-1.599 l -4.056,-1.203 l 3.3,-2.615 c 1.291,-1.023 1.008,-1.687 -0.629,-1.498 l -4.249,0.518 l 2.079,-3.738 c 0.802,-1.44 0.281,-1.963 -1.158,-1.162 l -3.742,2.05 l 0.497,-4.22 c 0.188,-1.634 -0.492,-1.915 -1.516,-0.623 l -2.651,3.349 l -1.17,-4.11 c -0.451,-1.587 -1.189,-1.587 -1.641,0 l -1.169,4.11 l -2.655,-3.352 c -1.023,-1.289 -1.704,-1.007 -1.515,0.629 l 0.493,4.247 l -3.733,-2.08 c -1.442,-0.803 -1.964,-0.281 -1.161,1.161 l 2.08,3.733 l -4.247,-0.493 c -1.636,-0.189 -1.918,0.492 -0.629,1.515 l 3.352,2.655 l -4.11,1.169 c -1.587,0.452 -1.587,1.19 0,1.642 l 4.11,1.169 l -3.349,2.653 c -1.292,1.024 -1.011,1.705 0.623,1.517 l 4.22,-0.5 l -2.066,3.742 c -0.8,1.439 -0.27,1.96 1.169,1.158 l 3.745,-2.079 l -0.494,4.247 c -0.189,1.637 0.491,1.918 1.515,0.627 l 2.652,-3.351 l 1.169,4.111 c 0.452,1.586 1.106,1.586 1.557,-0.001 l 1.169,-4.11 l 2.729,3.351 c 1.022,1.29 1.709,1.01 1.521,-0.625 l -0.495,-4.22 l 3.74,2.065 c 1.441,0.803 1.963,0.272 1.16,-1.167 l -2.05,-3.748 l 4.22,0.497 c 1.635,0.188 1.915,-0.492 0.625,-1.515 l -3.351,-2.737 l 4.11,-1.169 Z" fill="#F4900C"/>
	<circle fill="#FFE8B6" cx="18" cy="18" r="9.629"/>
	<path d="M 0,22 h36 v10 a 4,4 0 01 -4,4 h-28 a 4,4 0 01 -4,-4 v-10 Z"  fill="#269"/>
	<path d="M22 28c-1.979 0-3.25-.749-4-1.437-.75.688-2.021 1.437-4 1.437-3.577 0-4.842-2.448-4.895-2.553-.247-.494-.047-1.095.447-1.342.491-.244 1.086-.049 1.336.437.046.082.834 1.458 3.112 1.458 2.298 0 3.08-1.4 3.112-1.46.177-.328.503-.524.899-.533.373.006.716.212.883.546C18.92 24.6 19.701 26 22 26s3.08-1.4 3.112-1.46c.26-.481.859-.673 1.345-.42.485.251.682.839.438 1.327C26.843 25.552 25.577 28 22 28zm4 6c-1.979 0-3.25-.749-4-1.437-.75.688-2.021 1.437-4 1.437s-3.25-.749-4-1.437c-.75.688-2.021 1.437-4 1.437-3.577 0-4.842-2.448-4.895-2.553-.247-.494-.047-1.095.447-1.342.491-.243 1.086-.049 1.336.437C6.934 30.624 7.722 32 10 32c2.298 0 3.08-1.4 3.112-1.46.177-.328.523-.534.899-.533.373.006.716.212.883.546C14.92 30.6 15.702 32 18 32c2.299 0 3.08-1.4 3.112-1.46.177-.328.53-.541.899-.533.373.006.716.212.883.546C22.92 30.6 23.701 32 26 32s3.08-1.4 3.112-1.46c.26-.481.86-.673 1.345-.42.485.251.682.839.438 1.327C30.843 31.552 29.577 34 26 34z" fill="#3B88C3"/>
</svg>
