<svg xmlns="http://www.w3.org/2000/svg" viewBox="0 0 36 36">
	<path fill="#66757F" d="M 18,0 v36 a 18,-18 0 00 0,-36 Z"/>
	<path fill="#FFD983" d="M 18,0 c 0.295,0 0.58,0.03 0.87,0.044 c 5.891,2.563 10.13,9.625 10.13,17.956 c 0,8.332 -4.239,15.393 -10.13,17.957 c -0.29,0.014 -0.575,0.043 -0.87,0.043 a 18,-18 0 01 0,-36 Z"/>
	<circle fill="#FFCC4D" cx="10.5" cy="8.5" r="3.5"/>
	<circle fill="#FFCC4D" cx="20" cy="16" r="3"/>
	<circle fill="#FFCC4D" cx="21.5" cy="27.5" r="3.5"/>
	<circle fill="#FFCC4D" cx="21" cy="6" r="2"/>
	<circle fill="#FFCC4D" cx="3" cy="18" r="1"/>
	<circle fill="#5B6876" cx="30" cy="9" r="1"/>
	<circle fill="#FFCC4D" cx="15" cy="31" r="1"/>
	<circle fill="#5B6876" cx="32" cy="19" r="2"/>
	<circle fill="#FFCC4D" cx="10" cy="23" r="2"/>
</svg>
