<svg xmlns="http://www.w3.org/2000/svg" viewBox="0 0 36 36">
  <defs/>
  <path fill="#808285" d="M10.634,18.952 L11.338,18.248 L27.507,34.417 L26.803,35.121 C24.238,34.901 22.351,33.464 21.904,33.04 C21.455,32.613 16.973,28.11 16.973,28.11 C15.564,26.701 13.227,27.644 11.338,26.701 C8.52,25.292 9.929,22.474 9.225,21.77 C8.873,21.418 8.696,20.537 8.873,20.009 C9.049,19.48 10.634,18.952 10.634,18.952 Z"/>
  <path fill="#A6A6A6" d="M13.803,17.895 L14.508,17.191 L31.226,33.909 L30.522,34.614 C30.449,34.64 28.966,35.287 26.803,35.121 L10.634,18.952 L13.803,17.895 Z"/>
  <path fill="#BDBDBD" d="M33.861,21.084 C34.597,21.912 36.226,24.14 35.965,27.377 L34.484,31.532 C34.451,31.578 33.008,33.766 30.522,34.613 L13.803,17.895 L19.087,16.134 L23.313,14.726 C23.313,14.726 24.894,13.545 26.303,13.489 C27.711,13.432 29.75,12.728 30.426,13.405 C31.131,14.109 29.355,15.429 30.357,17.543 L33.879,21.065 L33.861,21.084 Z"/>
  <path fill="#D8D8D8" d="M23.313,14.726 L35.965,27.378 C35.957,27.476 35.831,29.63 34.484,31.532 L19.087,16.134 L23.313,14.726 Z"/>
  <path fill="#FFCC4D" d="M27.54,14.726 C27.911,15.711 27.693,17.171 27.037,18.45 C26.396,19.699 25.336,20.765 24.003,21.051 C23.565,21.145 23.1,21.163 22.609,21.065 C21.105,20.764 18.586,20.855 17.5,21.592 C17.162,21.821 16.958,22.11 16.973,22.474 C16.998,23.104 16.223,23.454 15.164,23.482 C13.76,23.519 11.851,22.987 10.634,21.77 L8.168,19.304 L2.941,13.982 L16.946,4.179 L26.131,13.317 L27.54,14.726 Z"/>
  <path fill="#FFAC33" d="M19.014,17.47 C19.403,17.859 19.304,18.392 18.794,18.66 C18.284,18.927 17.555,18.829 17.166,18.44 C16.777,18.051 16.875,17.519 17.385,17.251 C17.896,16.983 18.625,17.081 19.014,17.47 Z"/>
  <path fill="#FFAC33" d="M21.685,10.28 C22.074,10.669 22.172,11.398 21.904,11.908 C21.636,12.418 21.104,12.516 20.715,12.127 C20.326,11.738 20.228,11.009 20.495,10.499 C20.763,9.989 21.296,9.891 21.685,10.28 Z"/>
  <path fill="#D99E82" d="M24.456,16.282 C24.845,16.671 24.964,17.42 24.721,17.955 C24.478,18.491 23.966,18.609 23.577,18.22 C23.188,17.831 23.069,17.082 23.312,16.546 C23.555,16.011 24.067,15.893 24.456,16.282 Z"/>
  <path fill="#D99E82" d="M13.098,20.008 C13.487,20.397 13.33,20.87 12.747,21.065 C12.164,21.26 11.376,21.103 10.987,20.714 C10.598,20.325 10.755,19.852 11.338,19.656 C11.921,19.461 12.709,19.619 13.098,20.008 Z"/>
  <path fill="#FFAC33" d="M15.652,4.247 C18.57,7.165 18.11,11.436 14.626,13.787 C11.141,16.137 5.95,15.677 3.032,12.76 C0.114,9.842 0.574,5.571 4.059,3.22 C7.544,0.87 12.735,1.329 15.652,4.247 Z"/>
  <path fill="#C1694F" d="M3.155,7.407 C3.224,7.103 3.36,6.802 3.59,6.572 C4.236,5.926 5.063,5.289 6.167,5.264 C6.877,5.247 7.701,5.355 8.668,5.939 L15.738,5.999 L15.734,6 C15.739,6.005 15.742,6.011 15.747,6.016 C17.175,8.413 16.506,11.353 13.921,13.082 C10.891,15.109 6.384,14.702 3.855,12.173 L3.151,12.173 Z"/>
  <path fill="#C1694F" d="M3.603,7.667 C3.992,8.056 3.992,8.687 3.603,9.076 C3.214,9.465 2.584,9.465 2.195,9.076 C1.806,8.687 1.806,8.056 2.195,7.667 C2.584,7.278 3.214,7.278 3.603,7.667 Z"/>
  <path fill="#C1694F" d="M4.308,8.372 C4.697,8.761 4.697,9.391 4.308,9.781 C3.919,10.17 3.288,10.17 2.899,9.781 C2.51,9.391 2.51,8.761 2.899,8.372 C3.288,7.983 3.919,7.983 4.308,8.372 Z"/>
  <path fill="#C1694F" d="M5.365,9.428 C5.948,10.012 5.948,10.958 5.365,11.542 C4.781,12.125 3.835,12.125 3.251,11.542 C2.668,10.958 2.668,10.012 3.251,9.428 C3.835,8.845 4.781,8.845 5.365,9.428 Z"/>
  <path fill="#D99E82" d="M10.634,13.317 C11.023,13.706 11.023,14.337 10.634,14.726 C10.245,15.115 9.614,15.115 9.225,14.726 C8.836,14.337 8.836,13.706 9.225,13.317 C9.614,12.928 10.245,12.928 10.634,13.317 Z"/>
  <path fill="#F4900C" d="M8.668,6.15 C7.701,5.566 6.877,5.353 6.167,5.369 L6.173,5.334 C8.916,3.5 12.862,3.666 15.463,5.587 C15.666,5.867 15.823,6.145 15.947,6.421 L8.668,6.15 Z"/>
  <path fill="#FFE8B6" d="M16.494,3.68 Q18.974,6.16 18.633,9.326 Q18.292,12.493 15.33,14.491 Q12.368,16.489 8.519,16.148 Q4.671,15.807 2.191,13.327 Q-0.289,10.847 0.052,7.68 Q0.393,4.514 3.355,2.516 Q6.317,0.518 10.165,0.859 Q14.014,1.2 16.494,3.68 Z M14.811,4.815 Q12.915,2.918 9.972,2.657 Q7.029,2.397 4.764,3.925 Q2.498,5.453 2.238,7.874 Q1.977,10.296 3.874,12.192 Q5.77,14.089 8.713,14.349 Q11.656,14.61 13.921,13.082 Q16.186,11.554 16.447,9.133 Q16.708,6.711 14.811,4.815 Z"/>
  <path fill="#D99E82" d="M6.407,7.681 C6.796,8.07 6.796,8.701 6.407,9.09 C6.018,9.479 5.387,9.479 4.998,9.09 C4.609,8.701 4.609,8.07 4.998,7.681 C5.387,7.292 6.018,7.292 6.407,7.681 Z"/>
  <path fill="#D99E82" d="M8.168,9.442 C8.752,10.026 8.752,10.972 8.168,11.556 C7.585,12.139 6.638,12.139 6.055,11.556 C5.471,10.972 5.471,10.026 6.055,9.442 C6.638,8.859 7.585,8.859 8.168,9.442 Z"/>
  <path fill="#D99E82" d="M10.634,10.499 C11.023,10.888 11.023,11.519 10.634,11.908 C10.245,12.297 9.614,12.297 9.225,11.908 C8.836,11.519 8.836,10.888 9.225,10.499 C9.614,10.11 10.245,10.11 10.634,10.499 Z"/>
  <path fill="#D99E82" d="M4.646,7.329 C4.841,7.524 4.841,7.839 4.646,8.034 C4.451,8.228 4.136,8.228 3.942,8.034 C3.747,7.839 3.747,7.524 3.942,7.329 C4.136,7.135 4.451,7.135 4.646,7.329 Z"/>
  <path fill="#D99E82" d="M8.52,12.612 C8.909,13.001 8.909,13.632 8.52,14.021 C8.131,14.41 7.501,14.41 7.111,14.021 C6.722,13.632 6.722,13.001 7.111,12.612 C7.501,12.223 8.131,12.223 8.52,12.612 Z"/>
  <path fill="#FFD983" d="M7.464,4.511 C8.047,5.095 8.047,6.041 7.464,6.625 C6.88,7.208 5.934,7.208 5.35,6.625 C4.767,6.041 4.767,5.095 5.35,4.511 C5.934,3.928 6.88,3.928 7.464,4.511 Z"/>
  <path fill="#77B255" d="M10.634,3.455 C11.412,4.233 11.412,5.494 10.634,6.273 C9.855,7.051 8.594,7.051 7.816,6.273 C7.038,5.494 7.038,4.233 7.816,3.455 C8.594,2.677 9.855,2.677 10.634,3.455 Z"/>
  <path fill="#77B255" d="M11.338,5.568 C11.727,5.957 11.727,6.588 11.338,6.977 C10.949,7.366 10.318,7.366 9.929,6.977 C9.54,6.588 9.54,5.957 9.929,5.568 C10.318,5.179 10.949,5.179 11.338,5.568 Z"/>
  <path fill="#77B255" d="M12.747,5.568 C13.136,5.957 13.136,6.588 12.747,6.977 C12.358,7.366 11.727,7.366 11.338,6.977 C10.949,6.588 10.949,5.957 11.338,5.568 C11.727,5.179 12.358,5.179 12.747,5.568 Z"/>
  <path fill="#77B255" d="M14.156,8.386 C14.545,8.775 14.545,9.406 14.156,9.795 C13.767,10.184 13.136,10.184 12.747,9.795 C12.358,9.406 12.358,8.775 12.747,8.386 C13.136,7.997 13.767,7.997 14.156,8.386 Z"/>
  <path fill="#77B255" d="M15.565,8.386 C15.954,8.775 15.954,9.406 15.565,9.795 C15.175,10.184 14.545,10.184 14.156,9.795 C13.767,9.406 13.767,8.775 14.156,8.386 C14.545,7.997 15.175,7.997 15.565,8.386 Z"/>
  <path fill="#77B255" d="M15.565,9.795 C15.954,10.184 15.954,10.814 15.565,11.203 C15.175,11.592 14.545,11.592 14.156,11.203 C13.767,10.814 13.767,10.184 14.156,9.795 C14.545,9.406 15.175,9.406 15.565,9.795 Z"/>
  <path fill="#77B255" d="M14.156,9.795 C14.545,10.184 14.545,10.814 14.156,11.203 C13.767,11.592 13.136,11.592 12.747,11.203 C12.358,10.814 12.358,10.184 12.747,9.795 C13.136,9.406 13.767,9.406 14.156,9.795 Z"/>
  <path fill="#77B255" d="M16.269,7.681 C16.658,8.07 16.658,8.701 16.269,9.09 C15.88,9.479 15.249,9.479 14.86,9.09 C14.471,8.701 14.471,8.07 14.86,7.681 C15.249,7.292 15.88,7.292 16.269,7.681 Z"/>
  <path fill="#77B255" d="M14.156,6.977 C14.545,7.366 14.545,7.997 14.156,8.386 C13.767,8.775 13.136,8.775 12.747,8.386 C12.358,7.997 12.358,7.366 12.747,6.977 C13.136,6.588 13.767,6.588 14.156,6.977 Z"/>
  <path fill="#77B255" d="M14.156,5.568 C14.545,5.957 14.545,6.588 14.156,6.977 C13.767,7.366 13.136,7.366 12.747,6.977 C12.358,6.588 12.358,5.957 12.747,5.568 C13.136,5.179 13.767,5.179 14.156,5.568 Z"/>
  <path fill="#77B255" d="M12.042,4.864 C12.431,5.253 12.431,5.883 12.042,6.273 C11.653,6.662 11.023,6.662 10.634,6.273 C10.245,5.883 10.245,5.253 10.634,4.864 C11.023,4.475 11.653,4.475 12.042,4.864 Z"/>
  <path fill="#77B255" d="M11.338,6.977 C11.727,7.366 11.727,7.997 11.338,8.386 C10.949,8.775 10.318,8.775 9.929,8.386 C9.54,7.997 9.54,7.366 9.929,6.977 C10.318,6.588 10.949,6.588 11.338,6.977 Z"/>
  <path fill="#77B255" d="M13.011,7.241 C13.546,7.776 13.546,8.643 13.011,9.178 C12.476,9.713 11.609,9.713 11.074,9.178 C10.539,8.643 10.539,7.776 11.074,7.241 C11.609,6.706 12.476,6.706 13.011,7.241 Z"/>
  <path fill="#A6D388" d="M15.212,8.034 C15.407,8.228 15.407,8.543 15.212,8.738 C15.018,8.933 14.702,8.933 14.508,8.738 C14.313,8.543 14.313,8.228 14.508,8.034 C14.702,7.839 15.018,7.839 15.212,8.034 Z"/>
  <path fill="#A6D388" d="M8.873,4.511 C9.067,4.706 9.067,5.021 8.873,5.216 C8.678,5.41 8.363,5.41 8.168,5.216 C7.974,5.021 7.974,4.706 8.168,4.511 C8.363,4.317 8.678,4.317 8.873,4.511 Z"/>
  <path fill="#A6D388" d="M14.86,7.681 C15.249,8.07 15.249,8.701 14.86,9.09 C14.471,9.479 13.84,9.479 13.451,9.09 C13.062,8.701 13.062,8.07 13.451,7.681 C13.84,7.292 14.471,7.292 14.86,7.681 Z"/>
  <path fill="#A6D388" d="M10.634,4.864 C11.023,5.253 11.023,5.883 10.634,6.273 C10.245,6.662 9.614,6.662 9.225,6.273 C8.836,5.883 8.836,5.253 9.225,4.864 C9.614,4.475 10.245,4.475 10.634,4.864 Z"/>
  <path fill="#A6D388" d="M12.042,4.864 C12.431,5.253 12.431,5.883 12.042,6.273 C11.653,6.662 11.023,6.662 10.634,6.273 C10.245,5.883 10.245,5.253 10.634,4.864 C11.023,4.475 11.653,4.475 12.042,4.864 Z"/>
  <path fill="#A6D388" d="M13.099,5.92 C13.683,6.504 13.683,7.45 13.099,8.034 C12.515,8.617 11.569,8.617 10.986,8.034 C10.402,7.45 10.402,6.504 10.986,5.92 C11.569,5.337 12.515,5.337 13.099,5.92 Z"/>
  <path fill="#77B255" d="M15.565,5.568 C15.954,5.957 15.954,6.588 15.565,6.977 C15.175,7.366 14.545,7.366 14.156,6.977 C13.767,6.588 13.767,5.957 14.156,5.568 C14.545,5.179 15.175,5.179 15.565,5.568 Z"/>
  <path fill="#77B255" d="M13.451,4.864 C13.84,5.253 13.84,5.883 13.451,6.273 C13.062,6.662 12.431,6.662 12.042,6.273 C11.653,5.883 11.653,5.253 12.042,4.864 C12.431,4.475 13.062,4.475 13.451,4.864 Z"/>
  <path fill="#77B255" d="M13.451,3.455 C13.84,3.844 13.84,4.475 13.451,4.864 C13.062,5.253 12.431,5.253 12.042,4.864 C11.653,4.475 11.653,3.844 12.042,3.455 C12.431,3.066 13.062,3.066 13.451,3.455 Z"/>
  <path fill="#DD2E44" d="M10.986,3.455 C11.278,3.747 11.278,4.22 10.986,4.511 C10.694,4.803 10.221,4.803 9.929,4.511 C9.637,4.22 9.637,3.747 9.929,3.455 C10.221,3.163 10.694,3.163 10.986,3.455 Z"/>
  <path fill="#DD2E44" d="M15.212,6.273 C15.504,6.564 15.504,7.037 15.212,7.329 C14.921,7.621 14.447,7.621 14.156,7.329 C13.864,7.037 13.864,6.564 14.156,6.273 C14.447,5.981 14.921,5.981 15.212,6.273 Z"/>
  <path fill="#DD2E44" d="M14.86,9.09 C15.249,9.479 15.249,10.11 14.86,10.499 C14.471,10.888 13.84,10.888 13.451,10.499 C13.062,10.11 13.062,9.479 13.451,9.09 C13.84,8.701 14.471,8.701 14.86,9.09 Z"/>
  <path fill="#DD2E44" d="M12.747,5.568 C13.136,5.957 13.136,6.588 12.747,6.977 C12.358,7.366 11.727,7.366 11.338,6.977 C10.949,6.588 10.949,5.957 11.338,5.568 C11.727,5.179 12.358,5.179 12.747,5.568 Z"/>
  <path fill="#DD2E44" d="M13.803,3.807 C13.998,4.002 13.998,4.317 13.803,4.511 C13.609,4.706 13.294,4.706 13.099,4.511 C12.905,4.317 12.905,4.002 13.099,3.807 C13.294,3.613 13.609,3.613 13.803,3.807 Z"/>
  <path fill="#FFD983" d="M13.451,11.908 C13.84,12.297 13.84,12.928 13.451,13.317 C13.062,13.706 12.431,13.706 12.042,13.317 C11.653,12.928 11.653,12.297 12.042,11.908 C12.431,11.519 13.062,11.519 13.451,11.908 Z"/>
  <path fill="#FFD983" d="M9.577,6.625 C10.16,7.208 10.16,8.154 9.577,8.738 C8.993,9.322 8.047,9.322 7.464,8.738 C6.88,8.154 6.88,7.208 7.464,6.625 C8.047,6.041 8.993,6.041 9.577,6.625 Z"/>
  <path fill="#FFD983" d="M10.281,8.738 C10.865,9.322 10.865,10.268 10.281,10.851 C9.698,11.435 8.752,11.435 8.168,10.851 C7.585,10.268 7.585,9.322 8.168,8.738 C8.752,8.154 9.698,8.154 10.281,8.738 Z"/>
  <path fill="#FFD983" d="M12.395,9.442 C12.978,10.026 12.978,10.972 12.395,11.556 C11.811,12.139 10.865,12.139 10.281,11.556 C9.698,10.972 9.698,10.026 10.281,9.442 C10.865,8.859 11.811,8.859 12.395,9.442 Z"/>
  <path fill="#FFE8B6" d="M11.338,9.442 C11.824,9.929 11.824,10.717 11.338,11.203 C10.852,11.69 10.063,11.69 9.577,11.203 C9.091,10.717 9.091,9.929 9.577,9.442 C10.063,8.956 10.852,8.956 11.338,9.442 Z"/>
  <path fill="#FFE8B6" d="M9.577,7.681 C9.869,7.973 9.869,8.446 9.577,8.738 C9.285,9.03 8.812,9.03 8.52,8.738 C8.229,8.446 8.229,7.973 8.52,7.681 C8.812,7.39 9.285,7.39 9.577,7.681 Z"/>
  <path fill="#FFE8B6" d="M8.168,6.273 C8.46,6.564 8.46,7.037 8.168,7.329 C7.876,7.621 7.403,7.621 7.111,7.329 C6.82,7.037 6.82,6.564 7.111,6.273 C7.403,5.981 7.876,5.981 8.168,6.273 Z"/>
</svg>

