<svg xmlns="http://www.w3.org/2000/svg" viewBox="0 0 36 36">
	<path d="M 15.29,9.593 s 0.417,0.87 0.867,2.575 l 0.993,1.092 l -0.453,1.403 c 0.086,0.491 0.166,1.012 0.238,1.573 l 0.965,1.254 l -0.723,1.295 c 0.033,0.518 0.058,1.058 0.075,1.619 l 0.748,1.396 l -0.848,1.205 c -0.074,0.599 -0.182,1.196 -0.31,1.788 l 0.438,1.507 l -1.109,0.968 c -0.208,0.643 -0.431,1.261 -0.654,1.841 l 0.263,1.531 l -1.252,0.828 c -0.501,1.119 -0.871,1.863 -0.871,2.018 c 0,0.491 0.35,1.408 2.797,2.02 c 3.827,0.956 4.196,-0.621 4.196,-0.621 s 0.243,-0.738 0.525,-2.192 l -0.635,-1.243 l 1.059,-1.435 c 0.081,-0.642 0.156,-1.349 0.223,-2.116 l -0.712,-1.229 l 0.877,-1.377 c 0.03,-0.71 0.046,-1.471 0.053,-2.259 l -0.8,-1.204 l 0.738,-1.405 c -0.055,-0.805 -0.138,-1.583 -0.248,-2.325 l -1.01,-0.98 l 0.527,-1.533 c -0.173,-0.724 -0.358,-1.397 -0.55,-2.017 l -1.107,-0.93 l 0.254,-1.47 c -0.527,-1.299 -0.942,-2.043 -0.942,-2.043 l -3.612,0.466 Z" fill="#C1694F"/>
	<g fill="#D99E82">
		<path d="M 18.306,30.067 c 1.746,0.305 2.85,0.104 3.293,-0.053 c -0.134,1.073 -0.283,1.96 -0.423,2.678 c -0.373,0.047 -0.762,0.08 -1.176,0.08 c -0.679,0 -1.402,-0.063 -2.131,-0.19 c -1.262,-0.22 -2.425,-0.617 -3.341,-1.115 c 0.299,-0.668 0.645,-1.468 0.989,-2.359 c 0.491,0.307 1.386,0.715 2.789,0.959 Z"/>
		<path d="M 19.366,25.395 c 1.11,0.109 1.992,0.035 2.62,-0.102 c -0.04,0.939 -0.097,1.805 -0.165,2.606 c -0.456,0.059 -0.933,0.099 -1.434,0.099 c -0.416,0 -0.842,-0.022 -1.271,-0.064 c -1.064,-0.104 -2.08,-0.34 -2.945,-0.666 c 0.257,-0.793 0.485,-1.626 0.67,-2.475 c 0.59,0.253 1.432,0.495 2.525,0.602 Z"/>
		<path d="M 19.675,23.262 h-0.062 c -0.855,-0.004 -1.698,-0.096 -2.46,-0.257 c 0.082,-0.667 0.127,-1.334 0.117,-1.99 c -0.003,-0.209 -0.012,-0.406 -0.018,-0.61 c 0.527,0.151 1.29,0.301 2.374,0.306 c 1.068,-0.014 1.823,-0.148 2.353,-0.286 c 0.041,0.61 0.07,1.231 0.07,1.872 c 0,0.253 -0.005,0.491 -0.008,0.737 c -0.736,0.146 -1.544,0.228 -2.366,0.228 Z"/>
		<path d="M 19.427,18.685 c -0.604,0.086 -1.216,0.13 -1.803,0.13 c -0.156,0 -0.294,-0.024 -0.446,-0.03 c -0.06,-0.917 -0.142,-1.768 -0.242,-2.549 c 0.524,0.046 1.219,0.054 2.129,-0.077 c 0.982,-0.141 1.685,-0.369 2.181,-0.573 c 0.186,0.786 0.352,1.624 0.485,2.514 c -0.715,0.252 -1.48,0.466 -2.304,0.585 Z"/>
		<path d="M 20.697,13.569 c -0.597,0.276 -1.227,0.529 -1.906,0.718 c -0.71,0.197 -1.412,0.308 -2.094,0.376 c -0.169,-0.971 -0.356,-1.803 -0.54,-2.495 c 0.514,-0.031 1.156,-0.119 1.951,-0.34 c 0.733,-0.203 1.294,-0.437 1.736,-0.659 c 0.269,0.662 0.565,1.469 0.853,2.4 Z"/>
	</g>
	<path fill="#3E721D" d="M32.61 4.305c-.044-.061-4.48-5.994-10.234-3.39-2.581 1.167-4.247 3.074-4.851 5.535-1.125-1.568-2.835-2.565-5.093-2.968C6.233 2.376 2.507 9.25 2.47 9.32c-.054.102-.031.229.056.305s.217.081.311.015c.028-.02 2.846-1.993 7.543-1.157 4.801.854 8.167 1.694 8.201 1.702.02.005.041.007.061.007.069 0 .136-.028.184-.08.032-.035 3.22-3.46 6.153-4.787 4.339-1.961 7.298-.659 7.326-.646.104.046.227.018.298-.07.072-.087.075-.213.007-.304z"/>
	<path fill="#5C913B" d="M27.884 7.63c-4.405-2.328-7.849-1.193-9.995.22-2.575-.487-7.334-.459-11.364 4.707-4.983 6.387-.618 14.342-.573 14.422.067.119.193.191.327.191.015 0 .031-.001.046-.003.151-.019.276-.127.316-.274.015-.054 1.527-5.52 5.35-10.118 2.074-2.496 4.55-4.806 6.308-6.34 1.762.298 4.327.947 6.846 2.354 4.958 2.773 7.234 7.466 7.257 7.513.068.144.211.226.379.212.158-.018.289-.133.325-.287.02-.088 1.968-8.8-5.222-12.597z"/>
</svg>
