<svg xmlns="http://www.w3.org/2000/svg" viewBox="0 0 36 36">
	<path fill="#5C913B" d="M 2.472,6.572 l 1.86,0.723 l 9.438,18.835 l 20.243,-7.292 l 1.855,0.722 c -2.538,6.673 -9.122,11.44 -16.868,11.44 c -9.941,0 -18,-7.835 -18,-17.5 c 0,-2.462 0.528,-4.802 1.472,-6.928 Z"/>
	<path fill="#FFE8B6" d="M 4.332,7.295 l 1.859,0.724 l 10.281,11.58 l 15.684,-1.483 l 1.857,0.722 c -2.243,5.958 -8.109,10.218 -15.013,10.218 c -8.836,0 -16,-6.965 -16,-15.556 c 0,-2.207 0.479,-4.303 1.332,-6.205 Z"/>
	<path fill="#DD2E44" d="M 6.191,8.019 l 25.965,10.097 c -1.946,5.242 -7.094,8.995 -13.156,8.995 c -7.732,0 -14,-6.093 -14,-13.611 c 0,-1.952 0.43,-3.803 1.191,-5.481 Z"/>
	<g fill="#000000">
		<ellipse rx="0.5" ry="1" transform="translate(9.5 14) rotate(33.706)"/>
		<ellipse rx="0.5" ry="1" transform="translate(15.5 15) rotate(33.706)"/>
		<ellipse rx="0.5" ry="1" transform="translate(20.5 20) rotate(-5.198)"/>
		<ellipse rx="0.5" ry="1" transform="translate(11.5 18) rotate(-5.198)"/>
		<ellipse rx="0.5" ry="1" transform="translate(15.5 23) rotate(37.065)"/>
		<ellipse rx="0.5" ry="1" transform="translate(23.5 24) rotate(-29.535)"/>
		<ellipse rx="0.5" ry="1" transform="translate(16.5 19) rotate(-33.257)"/>
		<ellipse rx="0.5" ry="1" transform="translate(25.5 20) rotate(37.076)"/>
	</g>
</svg>
