<svg xmlns="http://www.w3.org/2000/svg" viewBox="0 0 36 36">
	<path d="M 16,7 v2 h-10 v-2 c -1.1,0 -1.554,-0.781 -1.008,-1.736 l 2.016,-3.528 c 0.546,-0.955 1.729,-1.22 2.631,-0.589 l 6.722,4.706 c 0.902,0.631 0.739,1.147 -0.361,1.147 Z" fill="#da2f47"/>
	<path d="M 20,7 c -1.1,0 -1.263,-0.516 -0.361,-1.147 l 6.722,-4.706 c 0.902,-0.631 2.085,-0.366 2.631,0.589 l 2.016,3.528 c 0.546,0.955 0.092,1.736 -1.008,1.736 v2 h-10 v-2 Z" fill="#da2f47"/>
	<path fill="#ffd983" d="M 3,17 l 1,-1 l -1,-1 v-2 h30 v2 l -1,1 l 1,1 v14 a 4,4 0 01 -4,4 h-7 l -4,-4 l -4,4 h-7 a 4,4 0 01 -4,-4 v-14 Z"/>
	<path fill="#ffd983" d="M 0,11 a 4,4 0 01 4,-4 h28 a 4,4 0 01 4,4 a 4,4 0 01 -4,4 h-28 a 4,4 0 01 -4,-4 Z"/>
	<path fill="#FCAB40" d="M 3,15 h30 v2 h-30 v-2 Z"/>
	<path d="M 19,3 a 3,3 0 01 3,3 v29 h-8 v-29 a 3,3 0 01 3,-3 h2 Z" fill="#DA2F47"/>
</svg>
