<svg xmlns="http://www.w3.org/2000/svg" viewBox="0 0 36 36">
	<path fill="#662113" d="M 7.754,7.754 c 3.686,-3.686 8.616,-6.114 13.581,-6.911 l 2,0.5 l 1.137,-0.779 c 3.162,-0.054 6.235,0.588 8.897,2.067 c 1.479,2.662 2.121,5.735 2.068,8.897 l -1,1 l 0.72,2.137 c -0.797,4.965 -3.225,9.895 -6.911,13.581 s -8.616,6.114 -13.581,6.911 l -2,-0.5 l -1.136,0.779 c -3.162,0.054 -6.236,-0.588 -8.898,-2.067 c -1.479,-2.662 -2.121,-5.736 -2.067,-8.897 l 1,-1 l -0.721,-2.137 c 0.797,-4.965 3.225,-9.895 6.911,-13.581 Z"/>
	<path fill="#E1E8ED" d="M 22.828,11.757 l -0.708,-0.706 c -0.391,-0.391 -0.391,-1.024 0,-1.414 c 0.39,-0.391 1.024,-0.391 1.414,0 l 0.707,0.707 l 1,-1 c 0.391,-0.391 1.024,-0.391 1.415,0 c 0.39,0.391 0.39,1.023 0,1.414 l -1,1 l 0.707,0.707 c 0.391,0.391 0.391,1.023 0,1.414 c -0.391,0.39 -1.023,0.391 -1.414,0 l -0.707,-0.707 l -2.414,2.414 l 0.707,0.707 c 0.392,0.391 0.391,1.023 0,1.414 c -0.39,0.391 -1.023,0.391 -1.414,0 l -0.707,-0.707 l -3.414,3.414 l 0.707,0.708 c 0.391,0.39 0.391,1.023 0,1.414 c -0.391,0.392 -1.023,0.392 -1.414,0 l -0.707,-0.707 l -2.414,2.414 l 0.707,0.707 c 0.391,0.39 0.391,1.022 0,1.414 c -0.391,0.391 -1.023,0.391 -1.414,0 l -0.707,-0.707 l -1,1 c -0.391,0.391 -1.023,0.391 -1.414,0 s -0.391,-1.023 0,-1.415 l 1,-1 l -0.707,-0.707 c -0.391,-0.39 -0.391,-1.023 0,-1.414 s 1.023,-0.391 1.414,0 l 0.707,0.707 l 2.414,-2.414 l -0.707,-0.707 c -0.391,-0.391 -0.391,-1.023 0,-1.414 s 1.023,-0.391 1.414,0 l 0.707,0.707 l 3.414,-3.414 l -0.707,-0.708 c -0.391,-0.39 -0.391,-1.023 0,-1.414 s 1.023,-0.391 1.414,0 l 0.707,0.707 l 2.414,-2.414 Z"/><path fill="#E1E8ED" d="M 0.564,24.472 c 0.018,-1.041 0.111,-2.088 0.279,-3.137 l 13.822,13.823 c -1.048,0.168 -2.096,0.261 -3.136,0.279 l -10.965,-10.965 Z"/><path fill="#E1E8ED" d="M 24.472,0.564 l 10.965,10.965 c -0.018,1.04 -0.111,2.087 -0.279,3.136 l -13.822,-13.822 c 1.048,-0.168 2.096,-0.261 3.136,-0.279 Z"/>
</svg>
