<svg xmlns="http://www.w3.org/2000/svg" viewBox="0 0 36 36">
	<path fill="#66757F" d="M 28.25,8.513 v11.474 a 0.263,0.263 0 01 -0.263,0.263 h-0.474 a 0.263,0.263 0 01 -0.263,-0.263 v-11.474 a 0.263,0.263 0 01 0.263,-0.263 h0.474 a 0.263,0.263 0 01 0.263,0.263 Z"/>
	<g fill="#F4900C">
		<circle cx="27.75" cy="19.75" r="1.5"/>
		<circle cx="27.75" cy="22.25" r="1"/>
	</g>
	<path d="M 34.844,24 h-0.844 v2.469 h0.844 v1 h-14.188 v-1 h0.844 v-2.469 h-0.844 v-1 h14.188 v1 Z"  fill="#66757F"/>
	
	<path fill="#BE1931" d="M 33.25,8.25 a 1,1 0 01 1,1 v2 a 1,1 0 01 -1,1 h-19.495 l 3.713,21.75 h1.74 v2 h-18.958 v-2 h1.781 l 3.714,-21.75 h-1.495 a 1,1 0 01 -1,-1 v-2 c 0,-0.36 0.201,-0.661 0.486,-0.837 c 0.003,-0.004 0.003,-0.01 0.006,-0.014 l 5.529,-7.793 c 0.062,-0.206 0.253,-0.356 0.479,-0.356 c 0.068,0 0.132,0.014 0.191,0.038 l 19.18,7.962 h4.129 ZM 11.481,12.25 h-3.461 l 1.73,1.389 l 1.731,-1.389 ZM 9.75,21.3 l -3.667,2.404 l 3.667,2 l 3.667,-2 l -3.667,-2.404 ZM 6.111,22.01 l 2.34,-1.561 l -1.866,-1.223 l -0.474,2.784 ZM 11.049,20.449 l 2.347,1.564 l -0.477,-2.789 l -1.87,1.225 ZM 9.75,19.583 l 2.828,-1.885 l -2.828,-2.322 l -2.828,2.322 l 2.828,1.885 ZM 7.187,15.696 l 1.493,-1.199 l -1.131,-0.928 l -0.362,2.127 ZM 10.82,14.498 l 1.496,1.201 l -0.364,-2.13 l -1.132,0.929 ZM 5.073,8.25 h1.177 v-1 a 1,1 0 01 1,-1 h2 v-3.888 l -4.177,5.888 ZM 5.603,24.988 l -0.56,3.283 l 3.29,-1.794 l -2.73,-1.489 ZM 15.443,34 l -0.687,-4.019 l -5.006,-2.731 l -4.997,2.726 l -0.686,4.024 h11.376 ZM 13.903,24.985 l -2.736,1.492 l 3.298,1.799 l -0.562,-3.291 ZM 13.25,8.25 h13.263 l -16.263,-6.751 v4.751 h2 a 1,1 0 01 1,1 v1 ZM 15.25,11.25 v-2 h-1.16 v2 h1.16 ZM 18.25,11.25 v-2 h-2 v2 h2 ZM 21.25,11.25 v-2 h-2 v2 h2 ZM 24.25,11.25 v-2 h-2 v2 h2 ZM 27.25,11.25 v-2 h-2 v2 h2 ZM 30.25,11.25 v-2 h-2 v2 h2 ZM 33.25,10.75 v-1 a 0.5,0.5 0 00 -0.5,-0.5 h-1.5 v2 h1.5 a 0.5,0.5 0 00 0.5,-0.5 Z"/>
	<path d="M 11.25,7.25 h1 h-2 a 1,1 0 00 -1,1 v2 a 1,1 0 00 1,1 h1 a 1,1 0 00 1,-1 v-2 a 1,1 0 00 -1,-1 Z" fill="#4B545D"/>
	<path d="M 11.25,7.25 h2 v4 h-2 v-4 Z"  fill="#CCD6DD"/>
</svg>
