<svg xmlns="http://www.w3.org/2000/svg" viewBox="0 0 36 36">
	<path fill="#BE1931" d="M 6,5 h4 l 0.154,2 l -1.5,1 l 1.654,1 l 0.154,2 l -1.5,1 l 1.653,1 l 0.154,2 l -1.5,1 l 1.654,1 l 0.077,1 v2 h-6 v-2 l 0.077,-1 l 1.5,-1 l -1.346,-1 l 0.154,-2 l 1.5,-1 l -1.347,-1 l 0.154,-2 l 1.5,-1 l -1.346,-1 l 0.154,-2 Z"/>
	<path fill="#BE1931" d="M 16,5 h4 l 0.154,2 l -1.5,1 l 1.654,1 l 0.154,2 l -1.5,1 l 1.653,1 l 0.154,2 l -1.5,1 l 1.654,1 l 0.077,1 v2 h-6 v-2 l 0.077,-1 l 1.5,-1 l -1.346,-1 l 0.154,-2 l 1.5,-1 l -1.347,-1 l 0.154,-2 l 1.5,-1 l -1.346,-1 l 0.154,-2 Z"/>
	<path fill="#BE1931" d="M 26,5 h4 l 0.154,2 l -1.5,1 l 1.654,1 l 0.154,2 l -1.5,1 l 1.653,1 l 0.154,2 l -1.5,1 l 1.654,1 l 0.077,1 v2 h-6 v-2 l 0.077,-1 l 1.5,-1 l -1.346,-1 l 0.154,-2 l 1.5,-1 l -1.347,-1 l 0.154,-2 l 1.5,-1 l -1.346,-1 l 0.154,-2 Z"/>
	
	<path fill="#E6E7E8" d="M 5.077,17 l 0.154,-2 h5.538 l 0.154,2 h-5.846 Z"/>
	<path fill="#E6E7E8" d="M 15.077,17 l 0.154,-2 h5.538 l 0.154,2 h-5.846 Z"/>
	<path fill="#E6E7E8" d="M 25.077,17 l 0.154,-2 h5.538 l 0.154,2 h-5.846 Z"/>
	<path fill="#E6E7E8" d="M 5.385,13 l 0.153,-2 h4.924 l 0.153,2 h-5.23 Z"/>
	<path fill="#E6E7E8" d="M 15.385,13 l 0.153,-2 h4.924 l 0.153,2 h-5.23 Z"/>
	<path fill="#E6E7E8" d="M 25.385,13 l 0.153,-2 h4.924 l 0.153,2 h-5.23 Z"/>
	<path fill="#E6E7E8" d="M 5.692,9 l 0.154,-2 h4.308 l 0.154,2 h-4.616 Z"/>
	<path fill="#E6E7E8" d="M 15.692,9 l 0.154,-2 h4.308 l 0.154,2 h-4.616 Z"/>
	<path fill="#E6E7E8" d="M 25.692,9 l 0.154,-2 h4.308 l 0.154,2 h-4.616 Z"/>
	<circle cx="8" cy="4" r="1" fill="#D1D3D4"/>
	<circle cx="18" cy="4" r="1" fill="#D1D3D4"/>
	<circle cx="28" cy="4" r="1" fill="#D1D3D4"/>
	<circle cx="9" cy="2" r="2" fill="#D1D3D4"/>
	<circle cx="19" cy="2" r="2" fill="#D1D3D4"/>
	<circle cx="29" cy="2" r="2" fill="#D1D3D4"/>
	
	<path fill="#A0041E" d="M 1,20 a 2,2 0 01 2,-2 h30 a 2,2 0 01 2,2 l -1,1 l 1,1 v12 a 2,2 0 01 -2,2 h-30 a 2,2 0 01 -2,-2 v-12 l 1,-1 l -1,-1 Z"/>
	<path d="M 1,20 h34 v2 h-34 v-2 Z" fill="#C1694F"/>
	<path d="M 6,24 h4 v4 h-4 v-4 Z" fill="#AAB8C2"/>
	<path d="M 16,24 h4 v4 h-4 v-4 Z" fill="#AAB8C2"/>
	<path d="M 26,24 h4 v4 h-4 v-4 Z" fill="#AAB8C2"/>
	<path d="M 6,30 h4 v4 h-4 v-4 Z" fill="#AAB8C2"/>
	<path d="M 16,30 h4 v4 h-4 v-4 Z" fill="#AAB8C2"/>
	<path d="M 26,30 h4 v4 h-4 v-4 Z" fill="#AAB8C2"/>
</svg>
