<svg xmlns="http://www.w3.org/2000/svg" viewBox="0 0 36 36">
	<path fill="#be1931" d="M 0,12 a 4,4 0 01 4,-4 h13 a 4,4 0 01 4,4 l -4,4 h-13 l -4,-4 Z"/>
	<path fill="#be1931" d="M 16,5 a 4,4 0 01 4,-4 h12 a 4,4 0 01 4,4 l -4,4 h-12 l -4,-4 Z"/>
	<path d="M 0,12 h21 v19 l -5,5 h-14 a 2,2 0 01 -2,-2 v-22 Z" fill="#f4abba"/>
	<path d="M 16,5 h20 v29 a 2,2 0 01 -2,2 h-18 v-31 Z" fill="#ffd4de"/>
	<path fill="#55ACEE" d="M 18,8 h4 v4 h-4 v-4 Z"/>
	<path fill="#55ACEE" d="M 24,8 h4 v4 h-4 v-4 Z"/>
	<path fill="#55ACEE" d="M 30,8 h4 v4 h-4 v-4 Z"/>
	<path fill="#55ACEE" d="M 18,14 h4 v4 h-4 v-4 Z"/>
	<path fill="#55ACEE" d="M 24,14 h4 v4 h-4 v-4 Z"/>
	<path fill="#55ACEE" d="M 30,14 h4 v4 h-4 v-4 Z"/>
	
	<path fill="#55ACEE" d="M 18,20 h4 v4 h-4 v-4 Z"/>
	<path fill="#55ACEE" d="M 24,20 h4 v4 h-4 v-4 Z"/>
	<path fill="#55ACEE" d="M 30,20 h4 v4 h-4 v-4 Z"/>
	
	<path fill="#55ACEE" d="M 18,26 h4 v4 h-4 v-4 Z"/>
	<path fill="#55ACEE" d="M 24,26 h4 v4 h-4 v-4 Z"/>
	<path fill="#55ACEE" d="M 30,26 h4 v4 h-4 v-4 Z"/>
	<path d="M 22,32 h8 v4 h-8 v-4 Z" fill="#3B88C3"/>
	
	<path fill="#3B88C3" d="M 2,26 h5 v4 h-5 v-4 Z"/>
	<path fill="#3B88C3" d="M 9,26 h5 v4 h-5 v-4 Z"/>
	<path d="M 2,32 h12 v4 h-12 v-4 Z" fill="#3B88C3"/>
	
	<path d="M 10,14 h2 v10 h-2 v-4 h-4 v4 h-2 v-10 h2 v4 h4 v-4 Z" fill="#dd2e44"/>
	<path d="M 3,3 c 0,-2.761 3.963,-4 5,0 c 1.122,-4 5,-2.761 5,0 c 0,3 -5,6 -5,6 s -5,-3 -5,-6 Z"  fill="#EA596E"/>
</svg>
