<svg xmlns="http://www.w3.org/2000/svg" viewBox="0 0 36 36">
	<path d="M 5.942,32 v1 h-1.883 v-1 c 0.137,-4.657 0.506,-8 0.941,-8 c 0.436,0 0.805,3.343 0.942,8 Z"  fill="#FFCC4D"/>
	<path d="M 10,18.731 c 0,5.575 -2.238,7.269 -5,7.269 c -2.761,0 -5,-1.694 -5,-7.269 c 0,-5.577 4,-13.731 5,-13.731 s 5,8.154 5,13.731 Z"  fill="#77B255"/>
	<path fill="#A0041E" d="M 12.344,14.702 h-2 a 0.5,0.5 0 01 -0.5,-0.5 v-7 a 0.5,0.5 0 01 0.5,-0.5 h2 a 0.5,0.5 0 01 0.5,0.5 v7 a 0.5,0.5 0 01 -0.5,0.5 Z"/>
	<path d="M 8,16 l 13,-13 l 13,13 v17 h-26 v-17 Z"  fill="#FFE8B6"/>
	<path d="M 21,16 h1 v17 h-1 v-17 Z"  fill="#FFCC4D"/>
	<path d="M 21,17 c -0.256,0 -0.512,-0.098 -0.707,-0.293 c -0.391,-0.391 -0.391,-1.023 0,-1.414 l 6.5,-6.5 l 1.414,1.414 l -6.5,6.5 c -0.195,0.195 -0.451,0.293 -0.707,0.293 Z"  fill="#66757F"/>
	<path d="M 34,17 c -0.256,0 -0.512,-0.098 -0.707,-0.293 l -12.293,-12.293 l -12.293,12.293 c -0.391,0.391 -1.023,0.391 -1.414,0 s -0.391,-1.023 0,-1.414 l 13,-13 c 0.391,-0.391 1.023,-0.391 1.414,0 l 13,13 c 0.391,0.391 0.391,1.023 0,1.414 c -0.195,0.195 -0.451,0.293 -0.707,0.293 Z"  fill="#66757F"/>
	<path d="M 13,26 h4 v6 h-4 v-6 Z"  fill="#C1694F"/>
	<path d="M 13,17 h4 v4 h-4 v-4 Z"  fill="#55ACEE"/>
	<path d="M 25.5,17 h4 v4 h-4 v-4 Z"  fill="#55ACEE"/>
	<path d="M 25.5,26 h4 v4 h-4 v-4 Z"  fill="#55ACEE"/>
	<path fill="#5C913B" d="M 36,33.5 a 1.5,1.5 0 01 -1.5,1.5 h-33 a 1.5,1.5 0 01 -1.5,-1.5 a 1.5,1.5 0 01 1.5,-1.5 h33 a 1.5,1.5 0 01 1.5,1.5 Z"/>
	<path d="M 10.625,29.991 c 0,1.613 -0.858,2.103 -1.917,2.103 c -1.058,0 -1.917,-0.49 -1.917,-2.103 s 1.533,-3.973 1.917,-3.973 s 1.917,2.359 1.917,3.973 Z"  fill="#77B255"/>
	<path d="M 35.875,29.991 c 0,1.613 -0.858,2.103 -1.917,2.103 c -1.058,0 -1.917,-0.49 -1.917,-2.103 s 1.533,-3.973 1.917,-3.973 s 1.917,2.359 1.917,3.973 Z"  fill="#77B255"/>
</svg>
