<svg xmlns="http://www.w3.org/2000/svg" viewBox="0 0 36 36">
	<path d="M 14,4 l2,-2 h4 l2,2 v4 l3,2 v4 h-14 v-4 l3,-2 v-4 Z" fill="#EDBB9F"/>
	<path d="M 14,4 a 4,4 0 01 8,0 Z" fill="#D99E82"/>
	<path d="M 23,8 a 2,2 0 01 2,2 h-14 a 2,2 0 01 2,-2 h10 Z" fill="#D99E82"/>
	<path d="M 33,12 a 2,2 0 01 2,2 l-1,1 h-32 l-1,-1 a 2,2, 0 01 2,-2 h30 Z" fill="#D99E82"/>
	<path d="M 1,14 h34 v2 l-1,1 h-32 l-1,-1 v-2 Z" fill="#FFE8B6"/>
	<path d="M 1,16 h34 v2 l-1,1 h-32 l-1,-1 v-2 Z" fill="#C1694F"/>
	<path d="M 1,18 h34 v16 a 2,2 0 01 -2,2 h-30 a 2,2 0 01 -2,-2 v-16 Z" fill="#BE1931"/>
	
	<path d="M 15,36 v-6 a 3,3 0 01 6,0 v6 h-6 Z" fill="#CCD6DD"/>
	<path d="M 25,34 v-4 a 2,2 0 01 6,0 v4 h-6 Z" fill="#AAB8C2"/>
	<path d="M 5,34 v-4 a 2,2 0 01 6,0 v4 h-6 Z" fill="#AAB8C2"/>
	
	<path d="M 21.667,21.244 c 0.206,-0.203 0.415,0.006 0.416,0.005 l 0.626,0.633 s 0.208,0.205 0.004,0.404 c -0.208,0.204 -0.392,0.016 -0.392,0.016 l -2.467,2.468 c -1.226,1.226 -3.216,1.226 -4.442,0 c -1.227,-1.228 -1.227,-3.215 0,-4.442 c 1.226,-1.226 3.216,-1.226 4.442,0 c 0.457,0.456 0.743,1.019 0.859,1.609 l -0.895,0.894 c 0.085,-0.657 -0.12,-1.341 -0.622,-1.846 c -0.866,-0.864 -2.265,-0.864 -3.128,0 c -0.862,0.863 -0.862,2.263 0,3.127 c 0.864,0.863 2.263,0.863 3.128,0 l 2.464,-2.465 s -0.197,-0.202 0.007,-0.403 Z" fill="#FFAC33"/>
	<path d="M 14.22,23.579 l -0.918,-0.918 c -0.715,-0.716 -1.923,-0.277 -2.087,-0.441 c 0,0 -0.164,-0.164 0,-0.328 l 1.974,-1.977 s 0.165,-0.164 0.329,0 c 0.165,0.163 -0.329,1.319 0.495,2.141 l 0.085,0.085 c -0.053,0.481 -0.013,0.969 0.122,1.438 Z" fill="#FFAC33"/>
</svg>
