<svg xmlns="http://www.w3.org/2000/svg" viewBox="0 0 36 36">
	<path fill="#FF000E" d=" M4,5 h28 a4,4 0 01 4,4 v0.333 l-2,2 h-32 l-2,-2 v-0.333 a4,4 0 01 4,-4z "/>
	<path fill="#FF7300" d="M 0,9.333 h36 v4.334 l-2,2 h-32 l-2,-2 z"/>
	<path fill="#FAD220" d="M 0,13.667  h36 v4.333 l-2,2 h-32 l-2,-2 z"/>
	<path fill="#138F3E" d="M 0,18 h36 v4.333 l-2,2 h-32 l-2,-2 z"/>
	<path fill="#3558A0" d="M 0,22.333  h36 v4.334 l-2,2 h-32 l-2,-2 z"/>
	<path fill="#880082" d="M 0,26.667  h36 v0.333 a4,4 0 01 -4,4 h-28 a 4,4 0 01 -4,-4 v0.333 z"/>
</svg>
