<svg xmlns="http://www.w3.org/2000/svg" viewBox="0 0 36 36">
	<path fill="#3E721D" d="M 12.434,29.833 c -0.134,1.432 -1.809,2.58 -1.587,0.824 c 0.538,-4.284 -1.724,-4.241 -2.662,-2.99 c -1.125,1.5 -1.772,0.806 -1.167,0.062 c 1,-1.229 0.646,-1.853 -0.646,-0.895 c -1.292,0.957 -1.083,-0.438 0.083,-1.188 s 0.625,-1.791 -0.917,-0.375 c -0.874,0.802 -0.618,-0.721 0.479,-1.521 c 2,-1.459 7.043,-0.625 6.417,6.083 Z"/>
	<path fill="#3E721D" d="M 34.542,5.022 c -0.667,0.355 -5.751,0.605 -5.792,2.938 s 2.793,12.917 1.959,15.583 s -4.291,8.334 -8.25,7.25 s -8.667,-3.501 -7.542,-7.209 c 1.125,-3.709 5.458,-14.773 -5.584,-18.855 c 0,0 0.583,-3.5 2.333,-4.667 c 0.686,-0.458 1.167,1.75 1.75,1.75 s 1.167,-1.75 2.917,-1.75 c 0.583,0 0.583,1.75 1.167,1.75 c 0.583,0 2.243,-0.577 2.333,0 c 0.126,0.812 -0.167,1.729 0.292,2.104 s 1.553,-0.148 1.901,0.489 c 0.349,0.636 -0.61,1.553 -0.526,1.97 s 0.719,0.583 0.526,1.375 s -0.65,0.833 -0.692,1.417 s 0.885,1.081 0.692,1.686 c -0.192,0.606 -0.651,0.688 -0.859,1.459 s 0.541,0.649 0.333,1.439 s -0.958,0.991 -1.208,1.766 c -0.25,0.774 0.666,0.941 0.208,1.691 s -1.291,0.875 -1.333,1.333 s 0.209,0.818 0.042,1.555 c -0.167,0.736 -1.126,0.362 -1.209,0.945 s 0.209,0.875 0.209,1.583 s -0.709,0.834 -0.625,1.542 s 0.75,0.167 1.167,1 s -0.249,1.583 0.209,2.083 s 1.083,-0.667 1.708,-0.25 s 0.677,1.25 1.359,1.375 s 0.891,-1.292 1.391,-1.25 s 1.625,0.709 2.208,0.417 s 0.541,-1.459 1,-1.959 s 1.042,-0.041 1.458,-0.583 s -0.145,-1.175 -0.062,-1.967 s 0.854,-1.241 0.812,-1.866 s -0.667,-0.625 -0.917,-1.292 s 0.458,-1.25 0.208,-1.875 s -1.332,-0.833 -1.291,-1.458 s 0.459,-1.333 0.25,-2.042 s -1.084,-1.166 -1.042,-1.707 s 0.499,-1.25 0.583,-1.646 s -0.749,-0.812 -0.666,-1.479 s 0.624,-0.621 0.832,-1.223 s -0.749,-0.901 -0.249,-1.672 s 0.751,-0.27 1.167,-0.688 c 0.416,-0.417 -0.001,-1.334 0.416,-1.542 s 1.25,-0.042 1.667,-0.333 s 0.417,-0.708 0.875,-0.875 s 1.042,0.542 1.417,0.542 s 1.041,-0.708 1.541,-0.542 c 0.5,0.167 1.584,1.333 0.917,1.688 Z"/>
	<path fill="#77B255" d="M20.946 8.937c0 4.375-1.714 8.201-2.946 11.17-1.333 3.212-1 9 4 9s6.511-3.191 7-5c1.358-5.021-2-8-2-13 0-9 8-7 8-6s-6.934 1.374-3 9S36 36 22 36 8 27.107 10 23.107c1.416-2.832 4-7.107.5-9.045-2.282-1.263 10.446-5.125 10.446-5.125z"/>
	<path fill="#77B255" d="M21 7.897c0 3.978-2.382 8.144-5.833 7.566-5.323-.89-5.606-2.587-6.417-1.546-2.917 3.743-4.644-.485-5.307-1.186C3.276 12.555 0 11.59 0 9.744c0-1.197 1.75-2.418 2.917-1.231 1.722-.043 8.167-6.156 12.25-6.156C19.25 2.356 21 5.435 21 7.897z"/>
	
	<circle r="1.167" cx="13.416" cy="7.062" fill="#292F33"/>
	
	<path fill="#FFF" d="M11.083 11.144c0 .645-.392.583-.875.583s-.875.061-.875-.583c0-.644.392-2.333.875-2.333s.875 1.689.875 2.333zm-2.333.583c0 .645-.392.583-.875.583-.483.001-.875.062-.875-.583 0-.644.392-2.333.875-2.333s.875 1.689.875 2.333z"/>
	
	<path fill="#3E721D" d="M11.001 11.152c-3.095.442-6.215 1.224-7.558 1.579.167.177.403.579.709 1.021 1.472-.38 4.253-1.051 7.015-1.444.319-.046.54-.342.495-.661-.047-.32-.344-.542-.661-.495z"/>
	<path fill="#3E721D" d="M11.335 7.771c-.256 0-.512-.098-.707-.293-.391-.391-.391-1.023 0-1.414.083-.083 2.081-2.043 5.374-2.043.552 0 1 .448 1 1s-.448 1-1 1c-2.435 0-3.945 1.442-3.96 1.457-.195.195-.451.293-.707.293z"/>
	<path fill="#3E721D" d="M2.917 10.271c0 .483-.392.292-.875.292s-.875.191-.875-.292.392-.875.875-.875.875.392.875.875z"/>
	
	<path fill="#5C913B" d="M10.708 25.333c.627-6.708-5.417-7.542-7.417-6.083-1.097.8-1.353 2.323-.479 1.521 1.542-1.416 2.083-.375.917.375-1.167.75-1.375 2.146-.083 1.188s1.646-.334.646.895c-.605.744.042 1.438 1.167-.062.938-1.251 4.2-1.294 3.662 2.99-.222 1.756 1.454.608 1.587-.824z"/>
</svg>
