<svg xmlns="http://www.w3.org/2000/svg" viewBox="0 0 36 36">
	<path d="M 29.049,7.033 c 4.423,4.424 5.71,21.367 1.289,25.788 c -4.425,4.424 -12.185,3.783 -16.607,-0.64 c -2.979,-2.979 -3.834,-10.952 0.589,-15.377 c 4.424,-4.421 10.306,-14.194 14.729,-9.771 Z" fill="#ccd6dd"/>
	<path fill="#ccd6dd" d="M 24.071,5.567 l 0.759,-0.096 c 2.898,-0.365 5.483,1.666 5.912,5.912 c 0.426,4.252 -10.359,21.297 -13.752,21.725 c -2.175,0.273 -5.546,-2.28 -5.913,-5.912 l -0.096,-0.949 l 3.419,-11.547 l 9.671,-9.133 Z"/>
	<path fill="#99aab5" d="M 24.071,5.567 c -0.68,4.967 -9.395,18.738 -13.09,20.68 l -1.233,-12.208 c -0.366,-3.63 1.687,-6.873 4.586,-7.24 l 9.737,-1.232 Z"/>
	<path fill="#ccd6dd" d="M 15.4,1.933 l 1.267,-0.16 c 2.151,-0.272 4.069,1.234 4.387,4.386 c 0.318,3.155 -7.686,15.8 -10.204,16.119 c -1.613,0.202 -4.115,-1.693 -4.388,-4.389 l -0.16,-1.586 l 2.878,-9.043 l 6.22,-5.327 Z"/>
	<path fill="#99aab5" d="M 15.4,1.933 c -1.004,3.877 -6.319,12.271 -9.098,14.37 l -0.825,-8.172 c -0.272,-2.694 1.252,-5.1 3.402,-5.374 l 6.521,-0.824 Z"/>
	<path d="M 6.247,12.806 c -0.993,0.125 -2.533,-1.043 -2.701,-2.702 l -0.606,-6.006 c -0.167,-1.659 0.77,-3.14 2.093,-3.308 l 4.795,-0.606 c 1.324,-0.168 2.503,0.759 2.699,2.699 c 0.197,1.943 -4.732,9.725 -6.28,9.923 Z" fill="#ccd6dd"/>
	<path d="M 30.609,14.397 c 0.801,2.371 1.545,11.57 -1.532,15.543 c -3.079,3.972 -8.043,-1.389 -5.312,-6.205 c 2.73,-4.815 6.035,-11.734 6.844,-9.338 Z" fill="#66757f"/>
</svg>
