<svg xmlns="http://www.w3.org/2000/svg" viewBox="0 0 36 36">
	<path fill="#3E721D" d="M 35.125,13.344 c 0,0.906 0.847,1.189 0.845,1.907 c 0,0.719 -1.049,1.159 -1.174,2.097 s 0.934,1.546 0.796,2.393 c -0.163,0.998 -1.492,1.12 -1.749,2.184 c -0.256,1.064 0.812,1.726 0.812,2.356 c 0,0.957 -2.312,1.575 -2.312,2.531 c 0,0.957 1.184,2.499 0,3.156 c -1.116,0.62 -1.518,0.372 -2.094,1.375 s 0.475,1.953 0.094,2.969 c -0.436,1.159 -2.031,0.188 -2.375,1.688 h-3.359 s 6.861,-13.718 -9.302,-27.736 c 0,0 0.956,-5.74 3.826,-7.653 c 1.126,-0.751 1.913,2.87 2.87,2.87 c 0.956,0 1.913,-2.87 4.783,-2.87 c 0.956,0 0.956,2.87 1.913,2.87 c 0.956,0 3.552,-0.812 3.552,0.145 s -1.078,2.727 0.274,2.725 c 3.632,-0.006 1.536,1.518 1.745,3.312 c 0.073,0.625 1.626,0.39 1.626,1.046 c 0,0.308 -0.771,1.635 -0.771,2.635 Z"/>
	<path fill="#77B255" d="M 34.438,13.458 c 0,0.184 -0.015,0.368 -0.022,0.553 l 0.021,-0.008 c 0,8.153 -4.089,17.214 -8.871,21.997 h-9.566 s 9.069,-8.271 1.833,-12.128 c -2.181,-0.964 -2.68,-1.572 -3.483,-0.542 c -4.784,6.138 -7.616,-0.796 -8.704,-1.945 c -0.273,-0.289 -5.646,-1.871 -5.646,-4.899 c 0,-1.963 2.87,-3.965 4.784,-2.017 c 2.823,-0.072 13.393,-10.096 20.088,-10.096 c 6.696,0 9.566,5.047 9.566,9.085 Z"/>
	<circle r="1.913" cx="22.002" cy="12.09" fill="#292F33"/>
	<path fill="#FFF" d="M 18.176,18.782 c 0,1.058 -0.643,0.956 -1.436,0.956 c -0.792,0 -1.434,0.101 -1.434,-0.956 c 0,-1.056 0.642,-3.826 1.434,-3.826 c 0.793,0 1.436,2.771 1.436,3.826 Z"/>
	<path fill="#FFF" d="M 14.349,19.738 c 0,1.058 -0.643,0.957 -1.435,0.957 s -1.435,0.101 -1.435,-0.957 c 0,-1.056 0.643,-3.826 1.435,-3.826 c 0.792,0.001 1.435,2.771 1.435,3.826 Z"/>
	<path fill="#3E721D" d="M 18.04,18.795 c 0.52,-0.076 1.008,0.288 1.083,0.812 c 0.075,0.522 -0.288,1.009 -0.812,1.083 c -4.528,0.645 -9.088,1.745 -11.503,2.369 c -0.501,-0.724 -0.887,-1.384 -1.162,-1.674 c 2.202,-0.583 7.318,-1.864 12.394,-2.59 Z"/>
	<path fill="#3E721D" d="M 18.589,12.609 c -0.258,0 -0.515,-0.098 -0.709,-0.295 c -0.388,-0.391 -0.388,-1.021 0.001,-1.41 c 0.129,-0.129 3.222,-3.163 8.36,-3.163 c 0.553,0 1,0.448 1,1 s -0.447,1 -1,1 c -4.281,0 -6.923,2.554 -6.949,2.58 c -0.194,0.192 -0.449,0.288 -0.703,0.288 Z"/>
	<path fill="#3E721D" d="M 4.783,17.351 c 0,0.793 -0.643,0.479 -1.435,0.479 s -1.435,0.315 -1.435,-0.479 c 0,-0.792 0.643,-1.435 1.435,-1.435 c 0.793,0 1.435,0.643 1.435,1.435 Z"/>
</svg>
