<svg xmlns="http://www.w3.org/2000/svg" viewBox="0 0 36 36">
	<path fill="#ad743d" d="M 1.122,11.217 c -0.147,-1.178 4.651,-6.998 9.345,-8.397 c 0.136,-1.49 1.528,-2.582 2.16,-2.528 c 0.631,0.054 1.56,1.531 1.116,2.84 c 2.593,1.629 3.677,3.95 3.811,5.328 c 0.118,1.185 2.34,1.401 5.329,3.037 c 5.821,3.185 7.632,9.122 6.842,14.874 c 0.035,-0.131 0.068,-0.263 0.102,-0.398 c 0.648,-2.613 1.373,-6.272 -0.827,-11.216 c -1.875,-4.218 -1.084,-5.128 0.737,-3.766 c 1.58,1.184 1.948,2.708 2.158,4.928 c 0.154,-0.462 0.377,-1.046 0.264,-2.153 c 3.65,2.056 3.65,6.749 2.25,11.167 c 0.385,-0.386 0.828,-1.301 1.023,-2.159 c 1.286,5.79 -2.574,12.526 -9.504,13.139 c -0.515,0.056 -0.944,0.083 -1.303,0.087 h-10.928 c -2.754,0 -2.754,-4.132 1.378,-4.132 h1.728 c 0,-15.308 -11.283,-21.008 -14.523,-18.654 c -0.989,-0.673 -1.08,-1.375 -1.158,-1.997 Z"/>
	<path fill="#d99e82" d="M 2.28,13.214 c 0.803,-5.368 3.757,-7.652 6.106,-7.479 c 1.494,0.11 2.136,1.647 2.258,2.725 c 5.206,0.771 3.939,6.729 0.681,6.819 c 1.377,1.378 10.139,6.951 8.761,13.836 c -0.392,1.957 -1.117,3.358 -2.018,4.297 c -3.057,-3.525 -5.444,-7.58 -5.975,-12.76 c -0.405,-3.944 -3.296,-5.599 -4.4,-5.779 c -2.936,-0.48 -4.532,-1.058 -5.413,-1.659 Z"/>
	<circle r="1.377" cx="7.692" cy="9.459" fill="#292F33"/>
	<path d="M 13.234,19.676 s 1.242,1.246 -1.243,2.488 s -6.212,1.242 -7.454,-1.242 c -1.242,-2.489 1.699,-5.306 2.486,-3.734 c 1.241,2.488 4.968,1.245 6.211,2.488 Z" fill="#AD743D"/>
	<path d="M 6.26,20.147 c 0.304,1.49 -0.383,4.295 -1.874,4.6 c -1.489,0.303 -3.22,-2.007 -3.523,-3.496 a 2.754,2.754 0 01 5.397,-1.104 Z" fill="#662113"/>
	<path fill="#662113" d="M21.254 13.564c4.065 3.341 6.158 7.296 5.402 12.37-.318 2.143.83 2.933 1.688.902.599-1.423.936-9.887-6.05-14.311-1.859-1.177-1.961.284-1.04 1.039z"/>
	<path d="M 13.907,21.375 s 1.634,1.058 -0.773,2.979 c -2.406,1.92 -6.446,2.783 -8.368,0.377 c -1.921,-2.406 0.617,-6.138 1.832,-4.615 c 1.921,2.407 5.674,0.198 7.309,1.259 Z" fill="#AD743D"/>
</svg>
