<svg xmlns="http://www.w3.org/2000/svg" viewBox="0 0 36 36">
	<path d="M 36,29 v3 a 4,4 0 01 -4,4 h-20 a 4,4 0 01 -4,-4 a 4,4 0 01 -4,4 a 4,4 0 01 -4,-4 v-3 l 4,-4 h28 l 4,4 Z" fill="#292F33"/>
	<path fill="#CCD6DD" d="M 12,4 a 4,4 0 01 4,-4 h12 a 4,4 0 01 4,4 v12 a 4,4 0 01 -4,4 h-12 a 4,4 0 01 -4,-4 v-12 Z"/>
	<g fill="#99AAB5">
		<path d="M 14,4 a 1,1 0 01 1,-1 h14 a 1,1 0 01 1,1 a 1,1 0 01 -1,1 h-14 a 1,1 0 01 -1,-1 Z"/>
		<path d="M 14,7 a 1,1 0 01 1,-1 h6 a 1,1 0 01 1,1 a 1,1 0 01 -1,1 h-6 a 1,1 0 01 -1,-1 Z"/>
	</g>
	<path d="M 0,14 a 4,4 0 01 8,0 a 4,4 0 01 4,-4 h20 a 4,4 0 01 4,4 v15 a 4,4 0 01 -4,4 h-20 a 4,4 0 01 -4,-4 a 4,4 0 01 -4,4 a 4,4 0 01 -4,-4 v-15 Z" fill="#66757F"/>
	<path fill="#C6E5B3" d="M 10,14 a 2,2 0 01 2,-2 h7 a 2,2 0 01 2,2 v2 a 2,2 0 01 -2,2 h-7 a 2,2 0 01 -2,-2 v-2 Z"/>
	<g fill="#CCD6DD">
		<circle cx="11.5" cy="21.5" r="1.5"/>
		<circle cx="15.5" cy="21.5" r="1.5"/>
		<circle cx="19.5" cy="21.5" r="1.5"/>
		<circle cx="11.5" cy="25.5" r="1.5"/>
		<circle cx="15.5" cy="25.5" r="1.5"/>
		<circle cx="19.5" cy="25.5" r="1.5"/>
		<circle cx="11.5" cy="29.5" r="1.5"/>
		<circle cx="15.5" cy="29.5" r="1.5"/>
		<circle cx="19.5" cy="29.5" r="1.5"/>
	</g>
	<g fill="#CCD6DD">
		<circle cx="25" cy="15" r="2"/>
		<circle cx="32" cy="15" r="2"/>
	</g>
	<g fill="#99AAB5">
		<path d="M 23,21 a 1,1 0 01 1,-1 h9 a 1,1 0 01 1,1 a 1,1 0 01 -1,1 h-9 a 1,1 0 01 -1,-1 Z"/>
		<path d="M 23,24 a 1,1 0 01 1,-1 h9 a 1,1 0 01 1,1 a 1,1 0 01 -1,1 h-9 a 1,1 0 01 -1,-1 Z"/>
		<path d="M 23,27 a 1,1 0 01 1,-1 h9 a 1,1 0 01 1,1 a 1,1 0 01 -1,1 h-9 a 1,1 0 01 -1,-1 Z"/>
		<path d="M 23,30 a 1,1 0 01 1,-1 h9 a 1,1 0 01 1,1 a 1,1 0 01 -1,1 h-9 a 1,1 0 01 -1,-1 Z"/>
	</g>
</svg>
