<svg xmlns="http://www.w3.org/2000/svg" viewBox="0 0 36 36">
	<defs/>
	<path fill="#CCD6DD" d="M1,10 L35,10 L35,24 L1,24 L1,10 Z"/>
	<path fill="#000000" d="M18,17 A7 7 0 1 1 4,17 A7 7 0 1 1 18,17 Z"/>
	<path fill="#000000" d="M32,17 A7 7 0 1 1 18,17 A7 7 0 1 1 32,17 Z"/>
	<path fill="#66757f" d="M14,17 A3 3 0 1 1 8,17 A3 3 0 1 1 14,17 Z"/>
	<path fill="#66757f" d="M28,17 A3 3 0 1 1 22,17 A3 3 0 1 1 28,17 Z"/>
	<path fill="#31373D" d="M36,25 C36,25 36,29 32,29 L4,29 C4,29 0,29 0,25 L0,10 C0,6 4,6 4,6 L32,6 C32,6 36,6 36,10 L36,25 Z M4,12 C3,12 2,14 2,17 C2,20 3,22 4,22 L10,22 C11,22 11,21 11,21 L11,13 C11,12 10,12 10,12 L4,12 Z M32,12 L26,12 C26,12 25,12 25,13 L25,21 C25,21 25,22 26,22 L32,22 C33,22 34,20 34,17 C34,14 33,12 32,12 Z"/>
	<path fill="#88c9f9" d="M13,14 C13,14 13,13 14,13 L22,13 C22,13 23,13 23,14 L23,20 C23,20 23,21 22,21 L14,21 C14,21 13,21 13,20 L13,14 Z"/>
	<path fill="#000000" d="M3,25 L33,25 A1 1 0 0 1 34,26 L34,26 A1 1 0 0 1 33,27 L3,27 A1 1 0 0 1 2,26 L2,26 A1 1 0 0 1 3,25 Z"/>
</svg>

