<svg xmlns="http://www.w3.org/2000/svg" viewBox="0 0 36 36">
	<path fill="#C1694F" d="M3.968 33.446C2.211 35.204.47 36.312.079 35.921c-.391-.391.718-2.132 2.475-3.889 1.757-1.758 3.498-2.866 3.889-2.475.39.391-.718 2.131-2.475 3.889z"/>
	<path fill="#31373D" d="M 34.02,1.98 c 3.536,3.536 -10.297,18.164 -11.004,18.87 c -0.707,0.707 -1.348,1.305 -1.724,0.929 l -2.121,2.121 c -2.122,2.121 -9.9,8.485 -10.607,7.778 h-4.243 v-4.243 c -0.707,-0.707 5.657,-8.484 7.779,-10.606 l 2.121,-2.121 c -0.376,-0.376 0.221,-1.017 0.928,-1.724 s 15.336,-14.54 18.871,-11.004 Z"/>
	<path fill="#FFAC33" d="M31.212 2.001C30.285 1.074 29.048.102 27.28.986c-1.768.884-7.313 4.441-9.878 7.005-1.322 1.322-1.247 2.102-.751 2.165.821.106 1.37.088 2.122-.663.75-.751.883-2.033.883-2.033s3.05-2.342 5.458-3.778c2.409-1.437 3.268-1.682 4.11-.84.842.842 1.988-.841 1.988-.841z"/>
	<path fill="#FFAC33" d="M28.87 2.487l4.643 4.643c.353-.709.631-1.384.818-2.011l-3.45-3.45c-.627.188-1.301.466-2.011.818z"/>
	<path fill="#FFCC4D" d="M6.443 29.558l-2.122-2.122s-1.083 1.393-2.284 3.63C1.137 32.742.786 33.8.786 33.8l.707.707.707.707s1.059-.352 2.734-1.251c2.237-1.201 3.629-2.284 3.629-2.284l-2.12-2.121z"/>
	<path fill="#FFCC4D" d="M23.016 20.851c.085-.084.362-.375.774-.817l-7.823-7.822c-.442.411-.732.689-.817.774-.707.707-1.304 1.348-.928 1.724l3.535 3.536 3.536 3.535c.375.374 1.016-.223 1.723-.93z"/>
</svg>
