<svg xmlns="http://www.w3.org/2000/svg" viewBox="0 0 36 36">
	<path d="M 4.5,2 v2 l 1.784,4.542 l 1.785,-4.542 v-2 h4.147 v2 l 1.926,4.903 l 1.927,-4.903 v-2 h3.862 v2 l 1.927,4.903 l 1.926,-4.903 v-2 h4.147 v2 l 1.785,4.542 l 1.784,-4.542 v-2 h2.366 v2 l -3.735,28.013 v1.987 h-2.2 v-2 l -2.215,-5.79 l -2.216,5.79 v2 h-3.284 v-2 l -2.216,-5.79 l -2.216,5.79 v2 h-3.284 v-2 l -2.216,-5.79 l -2.215,5.79 v2 h-2.2 v-1.987 l -3.735,-28.013 v-2 h2.366 ZM 15.543,12.469 l 2.457,6.254 l 2.457,-6.254 l -2.457,-6.42 l -2.457,6.42 ZM 23.259,12.469 l 2.457,6.254 l 2.601,-6.62 l -2.459,-6.425 l -2.599,6.791 ZM 7.683,12.103 l 2.601,6.62 l 2.457,-6.254 l -2.599,-6.791 l -2.459,6.425 ZM 7.26,26.422 l 1.573,-4.004 l -2.549,-6.66 l -0.326,0.853 l 1.302,9.811 ZM 29.716,15.758 l -2.549,6.66 l 1.725,4.39 l 1.235,-9.975 l -0.411,-1.075 ZM 14.142,28.544 l 2.407,-6.126 l -2.407,-6.288 l -2.406,6.288 l 2.406,6.126 ZM 21.858,16.13 l -2.407,6.288 l 2.407,6.126 l 2.406,-6.126 l -2.406,-6.288 Z" fill="#99aab5"/> 
	<path fill="#66757f" d="M 6,32 h24 a 2,2 0 01 0,4 h-24 a 2,2 0 01 0,-4 Z"/>
	<path fill="#66757f" d="M 2,0 h32 a 2,2 0 01 0,4 h-32 a 2,2 0 01 0,-4 Z"/>
</svg>
