<svg xmlns="http://www.w3.org/2000/svg" viewBox="0 0 36 36">
	<path fill="#67757F" d="M2.45,32.702 L8.451,21.625 L4.332,21.625 L6.616,18.199 L1.147,14.917 L6.029,12.747 L2.486,8.023 L7.46,9.129 L4.629,2.335 L11.644,7.012 L13.308,1.465 L16.45,6.702 L19.563,0.476 L21.746,5.932 L28.019,0.229 L26.311,8.201 L31.982,7.066 L28.75,11.375 L34.375,11.375 L29.619,14.942 L34.902,18.112 L29.489,20.277 L33.014,24.977 L27.801,23.818 L28.934,29.482 L24.277,25.989 L22.063,31.524 L18.95,25.298 L15.888,30.402 L13.736,25.023 L0.938,35.495 Z "/>
	<path fill="#E1E8ED" d="M5.062,30.505 L14.264,22.977 L16.112,27.598 L19.05,22.702 L21.937,28.476 L23.723,24.011 L27.066,26.518 L26.199,22.182 L29.986,23.023 L27.511,19.723 L32.098,17.888 L27.381,15.058 L30.625,12.625 L26.25,12.625 L29.018,8.934 L24.689,9.799 L25.981,3.771 L21.254,8.068 L19.437,3.524 L16.55,9.298 L13.692,4.535 L12.356,8.988 L7.371,5.665 L9.54,10.871 L5.514,9.977 L7.971,13.253 L3.853,15.083 L8.384,17.801 L6.668,20.375 L10.549,20.375 L5.062,30.505 Z"/>
</svg>

