<svg xmlns="http://www.w3.org/2000/svg" viewBox="0 0 36 36">
	<path d="M 12,7.607 l2,2 v22 l-2,2 l -9,-2.411 c -1.657,-0.444 -3,-2.147 -3,-3.804 v-20 c 0,-1.657 1.343,-2.64 3,-2.196 l 9,2.411 Z" fill="#CCD6DD"/>
	<path d="M 24,30.392 l-2,-2 v-22 l2,-2 l 9,2.411 c 1.657,0.444 3,2.147 3,3.804 v20 c 0,1.657 -1.343,2.64 -3,2.196 l -9,-2.411 Z"  fill="#CCD6DD"/>
	<path d="M 24,30.392 l -12,3.215 v-26 l 12,-3.215 v26 Z"  fill="#E1E8ED"/>
	
	<path d="M 12,9.607 l2,2 v18 l-2,2 l -8,-2.143 c -1.105,-0.296 -2,-1.432 -2,-2.536 v-18 c 0,-1.105 0.895,-1.76 2,-1.464 l 8,2.143 Z" fill="#55ACEE"/>
	<path d="M 24,6.392 l 8,2.143 c 1.105,0.296 2,1.432 2,2.536 v18 c 0,1.105 -0.895,1.76 -2,1.464 l -8,-2.143 l-2,-2 v-18 l2,-2 Z" fill="#55ACEE"/>
	<path d="M 24,28.392 l -12,3.215 v-22 l 12,-3.215 v22 Z"  fill="#88C9F9"/>
	<path d="M 12,21.545 l 1,1 v3.371 l -1,2 c -0.317,0.235 -0.784,0.657 -1.093,0.801 c -0.358,0.169 -0.465,-0.124 -0.465,-0.124 s 0.11,-0.781 0.414,-1.043 c 0.302,-0.261 0.473,-1.5 0.372,-1.907 c -0.101,-0.408 -0.584,-0.654 -0.751,-0.85 c -0.168,-0.197 -0.608,-0.917 -0.608,-1.3 c 0,-0.281 0.404,-0.787 0.612,-1.029 c -0.158,-0.129 -0.421,-0.48 -0.576,-0.58 c -0.202,-0.13 -0.661,-0.982 -1.054,-1.165 c -0.393,-0.184 -0.584,-0.496 -0.887,-0.846 c -0.303,-0.349 -1.042,-0.929 -1.009,-1.34 c 0.033,-0.409 -0.74,-0.96 -0.875,-0.996 c -0.134,-0.037 -0.438,-0.118 -0.707,-0.723 c -0.268,-0.606 -0.741,-1.267 -0.604,-1.612 c 0.134,-0.345 0.167,-0.793 0.099,-1.232 c -0.066,-0.437 -0.57,-0.725 -0.671,-0.637 c -0.102,0.088 -0.639,0.478 -0.707,-0.036 c -0.194,-1.478 0.941,-1.769 1.547,-1.759 c 0.604,0.009 1.19,0.016 1.257,0.338 c 0.067,0.324 0.133,0.747 0.503,0.693 c 0.37,-0.053 1.306,0.078 1.743,-0.186 c 0.437,-0.263 0.962,-0.125 1.4,0.146 c 0.437,0.269 1.663,0.556 1.394,0.941 s -0.783,0.191 -1.051,0.653 c -0.27,0.462 0.074,0.908 0.443,1.007 c 0.372,0.099 0.733,0.262 0.97,-0.094 c 0.235,-0.356 -0.164,-1.241 0.139,-1.109 c 0.055,0.023 0.11,0.069 0.165,0.113 l 0.5,1 v1.845 l -0.5,0.5 c -0.217,-0.119 -0.385,-0.194 -0.606,0.164 c -0.302,0.49 -0.538,0.81 -0.672,1.04 c -0.134,0.233 -0.336,0.329 -0.235,0.89 c 0.101,0.562 -0.269,0.31 -0.269,-0.146 c 0,-0.458 -0.235,-0.599 -0.538,-0.602 c -0.303,-0.007 -0.773,-0.056 -0.739,0.334 c 0.032,0.39 -0.137,0.804 0.133,1.18 c 0.268,0.38 0.57,0.117 0.739,0.276 c 0.169,0.16 0.653,0.187 0.485,0.332 s -0.755,0.228 -0.418,0.622 c 0.337,0.393 0.677,0.584 0.812,0.658 c 0.134,0.074 0.027,-0.37 0.463,-0.443 c 0.25,-0.041 0.577,-0.139 0.845,-0.145 Z" fill="#5C913B"/>
	a
	<path d="M 27.634,20.221 c -0.053,0.44 0.184,0.201 0.606,0.705 c 0.423,0.508 -0.104,0.394 -0.289,0.316 c -0.185,-0.08 -0.37,-0.131 -0.579,-0.518 c -0.213,-0.391 0,-0.695 0,-1.027 c 0,0 0.316,0.084 0.262,0.524 Z"  fill="#5C913B"/>
	<path d="M 27.996,19.32 c -0.388,-0.164 -0.599,-0.491 -0.625,-0.71 c -0.028,-0.22 -0.423,-0.748 -0.449,-0.876 c -0.028,-0.127 -0.528,-0.685 -0.528,-0.685 s -0.316,0.277 -0.316,0.701 c 0,0.421 0.105,0.965 0.105,0.965 s -0.13,0.175 -0.394,-0.137 c -0.266,-0.312 -0.555,-0.452 -0.686,-0.818 c -0.133,-0.367 -0.291,-0.984 -0.291,-1.195 s -0.317,-0.749 -0.448,-0.784 c -0.055,-0.015 -0.207,-0.037 -0.364,-0.051 l-1,-1 v-4.314 l1,-1 c 0.897,0.409 1.355,0.353 1.71,0.591 c 0.368,0.25 0.025,0.369 0.288,0.621 c 0.265,0.252 0.344,0.244 0.554,0.209 c 0.213,-0.033 0.371,-0.33 0.529,-0.16 s 0.713,0.205 0.844,0.467 c 0.13,0.263 0.315,0.492 0.606,0.406 c 0.292,-0.089 1.399,0.054 1.688,0.337 c 0.29,0.282 1.029,0.516 1.318,0.649 c 0.293,0.132 1.031,0.358 0.925,0.469 c -0.107,0.112 0.29,0.128 0.079,0.403 c -0.213,0.276 -1.027,0.753 -1.108,0.641 c -0.079,-0.113 -0.158,-0.558 -0.421,-0.597 c -0.264,-0.04 -0.635,-0.231 -0.661,0.125 c -0.026,0.355 -0.421,0.703 -0.132,0.78 c 0.29,0.077 0.582,-0.176 0.66,0.177 c 0.079,0.353 0.026,0.521 -0.054,0.68 c -0.078,0.16 0.106,0.21 -0.316,0.218 c -0.421,0.008 -0.237,-0.335 -0.421,0.008 c -0.186,0.343 -0.607,0.351 -0.502,0.711 c 0.108,0.361 0.186,0.564 0.212,0.843 s -0.265,0.534 -0.422,0.733 c -0.159,0.198 -0.345,0.391 -0.581,0.389 c -0.239,-0.005 -0.423,0.007 -0.555,0.363 c -0.13,0.359 0.145,1.007 -0.244,0.841 Z"  fill="#5C913B"/>
	<path d="M 30.088,17.252 c -0.186,-0.08 0.447,-0.18 0.237,-0.57 c -0.211,-0.388 0,-0.694 0,-1.026 c 0,0 0.317,0.084 0.264,0.524 c -0.053,0.439 -0.37,0.232 0.053,0.738 c 0.422,0.505 -0.37,0.414 -0.554,0.334 Z"  fill="#5C913B"/>
	<path d="M 32.092,22.623 c 0.133,0.217 0.712,0.645 0.383,0.586 c -0.329,-0.058 -0.462,-0.367 -0.804,-0.578 c -0.343,-0.213 -0.371,0.111 -0.74,-0.229 c -0.368,-0.34 -0.763,-0.098 -0.869,-0.586 c -0.106,-0.49 -0.312,-0.965 0,-0.699 c 0.142,0.123 0.37,0.457 0.686,0.512 c 0.316,0.053 0.291,0.457 0.606,0.533 c 0.317,0.076 0.607,0.244 0.738,0.461 Z"  fill="#5C913B"/>
	<path d="M 29.004,21.191 c -0.261,-0.402 -0.813,-0.367 -0.603,-0.766 c 0.185,-0.35 0.394,-0.287 0.605,-0.049 s 0.845,0.74 0.502,0.799 c -0.345,0.059 -0.242,0.418 -0.504,0.016 Z"  fill="#5C913B"/>
	<path d="M 31.407,23.77 c 0.13,0.335 0.396,0.345 0.315,0.689 c -0.078,0.344 0.027,0.943 -0.264,1.168 c -0.29,0.227 -0.475,0.537 -0.791,0.635 c -0.317,0.095 -1.151,-0.582 -1.151,-0.852 c 0,-0.272 -0.304,-0.578 -0.537,-0.883 c -0.23,-0.301 -0.367,-0.297 -0.579,-0.172 c -0.21,0.125 -0.132,0.326 -0.396,0.314 c -0.263,-0.008 -0.966,0.438 -0.939,-0.039 c 0.026,-0.477 0.381,-1.225 0.213,-1.543 c -0.17,-0.319 -0.382,-0.104 0,-0.424 c 0.241,-0.205 0.41,-0.344 0.778,-0.457 c 0.37,-0.111 1.004,-0.242 1.161,-0.23 c 0.159,0.011 0.343,-0.022 0.449,0.244 c 0.105,0.269 0.236,0.392 0.448,0.361 c 0.211,-0.033 0.459,0.086 0.618,0.279 c 0.157,0.197 0.542,0.572 0.675,0.91 Z"  fill="#5C913B"/>
	a
	<path d="M 12.268,17.374 c -0.1,0.016 -0.187,0.012 -0.268,0.011 v-3.345 c 0.254,0.065 0.512,0.317 0.707,0.736 c 0.234,0.509 0.604,0.066 0.739,0.374 c 0.134,0.308 0.875,0.758 0.505,0.742 c -0.371,-0.015 -0.741,0.008 -0.841,0.454 c -0.102,0.448 0.168,0.794 -0.102,0.828 c -0.27,0.033 -0.37,0.142 -0.74,0.2 Z"  fill="#77B255"/>
	<path d="M 14.858,22.932 c 0.437,0.076 0.72,-0.086 0.315,0.444 c -0.403,0.528 -0.708,0.587 -0.944,1.145 c -0.235,0.557 -0.065,0.86 -0.535,1.481 c -0.47,0.62 -0.961,1.169 -1.466,1.646 c -0.058,0.056 -0.138,0.153 -0.228,0.267 v-6.37 c 0.202,-0.113 0.371,-0.159 0.443,-0.031 c 0.168,0.299 0.146,0.25 0.751,0.163 s 0.768,0.079 1.036,0.656 c 0.269,0.576 0.192,0.525 0.628,0.599 Z"  fill="#77B255"/>
	<path d="M 24,15.731 l -0.056,0.025 c 0.071,0.125 0.069,0.299 -0.033,0.394 c -0.195,0.18 -0.825,1.195 -1.117,1.164 c -0.033,-0.004 -0.062,-0.026 -0.093,-0.037 c -0.065,0.071 -0.122,0.114 -0.159,0.098 c -0.131,-0.056 -0.661,-0.245 -0.661,-0.548 c 0,-0.302 -0.368,-0.021 -0.394,-0.498 c -0.011,-0.185 -0.045,-0.353 -0.086,-0.464 c -0.037,0.005 -0.074,0.013 -0.112,0.035 c -0.036,0.022 -0.055,0.052 -0.069,0.088 c -0.005,0.047 -0.007,0.083 -0.01,0.124 c 0.037,0.34 0.506,0.94 0.639,1.336 c 0.102,0.302 0.384,0.376 0.668,0.368 c 0.295,-0.145 0.478,-0.297 0.501,-0.148 c 0.001,0.005 0.004,-0.014 0.006,-0.014 l 0.016,-0.004 c 0.167,-0.045 0.138,0.06 0.033,0.235 c 0.04,0.166 0.05,0.408 -0.214,0.678 c -0.395,0.403 -0.343,0.419 -0.58,0.756 c -0.007,0.007 -0.013,0.014 -0.02,0.024 c -0.121,0.409 -0.235,0.862 -0.362,1.155 l -0.091,0.22 c 0.003,0.19 0.008,0.343 0.024,0.624 c 0.01,0.173 -0.349,0.627 -0.758,1.096 c -0.169,0.351 -0.348,0.687 -0.536,0.957 c -0.581,0.846 -0.97,0.535 -0.97,0.123 c 0,-0.414 -0.218,-0.685 -0.491,-1.189 c -0.271,-0.505 -0.552,-0.76 -0.381,-1.468 c 0.168,-0.705 0.29,-0.985 0.12,-1.354 c -0.171,-0.366 -0.705,-0.307 -1.092,0.156 c -0.388,0.462 -1.627,1.179 -2.137,1.288 s -0.486,-0.862 -0.461,-1.721 c 0.024,-0.86 1.31,-1.865 1.627,-2.084 c 0.316,-0.221 0.461,-0.458 0.728,-0.723 c 0.267,-0.263 1.263,-0.172 1.701,-0.043 c 0.065,0.02 0.162,0.003 0.248,-0.001 c -0.004,-0.244 0.001,-0.46 0.027,-0.595 c 0.055,-0.276 0.195,-0.766 0.365,-1.306 c -0.01,-0.035 -0.024,-0.067 -0.011,-0.138 c 0.074,-0.405 0.074,-0.625 -0.318,-0.602 s -1.333,0.936 -1.55,1.544 c -0.219,0.609 -0.607,1.125 -1.117,0.932 s -1.263,-0.158 -0.656,-0.705 c 0.607,-0.549 1.19,-0.732 0.826,-1.02 c -0.363,-0.288 -0.242,-0.679 0.292,-0.822 s 1.53,-0.575 2.452,-0.96 c 0.922,-0.384 1.02,-0.769 0.632,-1.105 s -0.923,0.853 -1.7,1.089 s -0.631,-0.437 0,-1.294 c 0.632,-0.858 1.603,-0.567 2.332,-0.514 c 0.727,0.053 1.143,-1.327 2.039,-1.152 c 0.024,0.005 0.046,0.016 0.07,0.021 c 0.297,-0.185 0.57,-0.309 0.779,-0.32 c 0.042,-0.003 0.07,-0.011 0.11,-0.015 v6.314 Z"  fill="#77B255"/>
</svg>
