<svg xmlns="http://www.w3.org/2000/svg" viewBox="0 0 36 36">
	<path d="M 0,34 h36 v2 h-36 v-2 Z" fill="#939598"/>
	<circle cx="7" cy="32" r="3" fill="#58595B"/>
	<circle cx="29" cy="32" r="3" fill="#58595B"/>
	<circle cx="7" cy="32" r="2" fill="#292F33"/>
	<circle cx="29" cy="32" r="2" fill="#292F33"/>
	<path fill="#E6E7E8" d="M 1,1 a 1,1 0 01 1,-1 h32 a 1,1 0 01 1,1 a 1,1 0 01 -1,1 h-32 a 1,1 0 01 -1,-1 Z"/>
	<path fill="#66757F" d="M 22.998,4.944 c 0.017,0.284 -0.09,0.561 -0.291,0.763 l -3.835,3.835 c 0.198,0.377 0.152,0.848 -0.165,1.165 c -0.195,0.195 -0.451,0.293 -0.707,0.293 c -0.176,0 -0.344,-0.064 -0.5,-0.155 c -0.156,0.092 -0.324,0.155 -0.5,0.155 c -0.256,0 -0.512,-0.098 -0.709,-0.295 c -0.317,-0.317 -0.363,-0.788 -0.165,-1.165 l -3.835,-3.834 c -0.201,-0.201 -0.307,-0.478 -0.291,-0.762 c 0.016,-0.285 0.152,-0.548 0.374,-0.726 l 3.682,-2.945 c -0.088,-0.301 -0.049,-0.634 0.162,-0.898 c 0.315,-0.395 0.861,-0.469 1.281,-0.221 c 0.422,-0.247 0.967,-0.173 1.281,0.221 c 0.211,0.263 0.249,0.596 0.162,0.898 l 3.683,2.945 c 0.222,0.178 0.357,0.442 0.373,0.726 ZM 17.5,8.085 l 3.003,-3.002 l -3.003,-2.403 l -3.003,2.402 l 3.003,3.003 Z"/>
	<path fill="#BCBEC0" d="M 6,10 a 2,2 0 01 2,-2 h20 a 2,2 0 01 2,2 a 2,2 0 01 -2,2 h-20 a 2,2 0 01 -2,-2 Z"/>
	<path fill="#E6E7E8" d="M 0,14 a 4,4 0 01 4,-4 h28 a 4,4 0 01 4,4 l -4,4 h-28 l -4,-4 Z"/>
	<path d="M 0,30 l 2,-2 h32 l 2,2 v2 h-36 v-2 Z" fill="#E6E7E8"/>
	<path d="M 0,28 v-2 l 6,-6 h24 l 6,6 v2 l -1,1 h-34 l -1,-1 Z" fill="#BE1931"/>
	<path d="M 0,16 v-2 h36 v2 l -2,8 h-4 v5 h-7 v-5 h-10 v5 h-7 v-5 h-4 l -2,-8 Z" fill="#DD2E44"/>
	<path d="M 0,28 h36 v2 h-36 v-2 Z" fill="#A0041E"/>
	<path d="M 2,16 a 2,2 0 01 2,2 v6 a 2,2 0 01 -2,2 h-2 v-10 h2 Z" fill="#55ACEE"/>
	<path d="M 36,16 v10 h-2 a 2,2 0 01 -2,-2 v-6 a 2,2 0 01 2,-2 h2 Z" fill="#55ACEE"/>
	<path fill="#55ACEE" d="M 15,18 a 1,1 0 01 1,-1 h4 a 1,1 0 01 1,1 v4 a 1,1 0 01 -1,1 h-4 a 1,1 0 01 -1,-1 v-4 Z"/>
	<path fill="#55ACEE" d="M 7,18 a 1,1 0 01 1,-1 h3 a 1,1 0 01 1,1 v5 a 1,1 0 01 -1,1 h-3 a 1,1 0 01 -1,-1 v-5 Z"/>
	<path fill="#55ACEE" d="M 24,18 a 1,1 0 01 1,-1 h3 a 1,1 0 01 1,1 v5 a 1,1 0 01 -1,1 h-3 a 1,1 0 01 -1,-1 v-5 Z"/>
</svg>
