<svg viewBox="0 0 36 36" xmlns="http://www.w3.org/2000/svg">
	<path d="M 0,34 h36 v2 h-36 v-2 Z" fill="#939598"/>
	<circle cx="5" cy="32" r="3" fill="#58595B"/>
	<circle cx="13" cy="32" r="3" fill="#58595B"/>
	<circle fill="#58595B" cx="24" cy="32" r="3"/>
	<circle fill="#58595B" cx="32" cy="32" r="3"/>
	<circle cx="5" cy="32" r="2" fill="#292F33"/>
	<circle cx="13" cy="32" r="2" fill="#292F33"/>
	<circle fill="#292F33" cx="24" cy="32" r="2"/>
	<circle fill="#292F33" cx="32" cy="32" r="2"/>
	
	<path d="M 0,16 a 4,4 0 01 3.445,-2 h29.11 a 4,4 0 01 3.445,2 l -2,2 h-32 l -2,-2 Z" fill="#77B255"/>
	<path d="M 0,26 l 2,-2 h32 l 2,2 v2 l -2,2 h-32 l -2,-2 v-2 Z" fill="#FFAC33"/>
	
	<path d="M 0,28 h36 v4 h-36 v-4 Z" fill="#5C913B"/>
	<path d="M 0,16 h36 v10 h-36 v-10 Z" fill="#FFE8B6"/>
	
	<path fill="#55ACEE" d="M 1,20 a 1,1 0 01 1,-1 h2 a 1,1 0 01 1,1 v2 a 1,1 0 01 -1,1 h-2 a 1,1 0 01 -1,-1 v-2 Z"/>
	<path fill="#55ACEE" d="M 7,20 a 1,1 0 01 1,-1 h2 a 1,1 0 01 1,1 v2 a 1,1 0 01 -1,1 h-2 a 1,1 0 01 -1,-1 v-2 Z"/>
	<path fill="#55ACEE" d="M 13,20 a 1,1 0 01 1,-1 h2 a 1,1 0 01 1,1 v2 a 1,1 0 01 -1,1 h-2 a 1,1 0 01 -1,-1 v-2 Z"/>
	<path fill="#55ACEE" d="M 19,20 a 1,1 0 01 1,-1 h2 a 1,1 0 01 1,1 v2 a 1,1 0 01 -1,1 h-2 a 1,1 0 01 -1,-1 v-2 Z"/>
	<path fill="#55ACEE" d="M 25,20 a 1,1 0 01 1,-1 h2 a 1,1 0 01 1,1 v2 a 1,1 0 01 -1,1 h-2 a 1,1 0 01 -1,-1 v-2 Z"/>
	<path fill="#55ACEE" d="M 31,20 a 1,1 0 01 1,-1 h2 a 1,1 0 01 1,1 v2 a 1,1 0 01 -1,1 h-2 a 1,1 0 01 -1,-1 v-2 Z"/>
</svg>
