<svg viewBox="0 0 36 36" xmlns="http://www.w3.org/2000/svg">
	<path d="M 0,34 h36 v2 h-36 v-2 Z" fill="#939598"/>
	<path d="M 6,26 h29 v6 h-29 v-6 Z" fill="#231F20"/>
	<ellipse cx="5" cy="20" rx="3" ry="6" fill="#231F20"/>
	<circle fill="#58595B" cx="7" cy="32" r="3"/>
	<circle fill="#58595B" cx="13" cy="32" r="3"/>
	<circle fill="#58595B" cx="22" cy="31" r="4"/>
	<circle fill="#58595B" cx="30" cy="31" r="4"/>
	<circle fill="#A0041E" cx="7" cy="32" r="1.5"/>
	<circle fill="#A0041E" cx="13" cy="32" r="1.5"/>
	<circle fill="#A0041E" cx="30" cy="31" r="2"/>
	<circle fill="#A0041E" cx="22" cy="31" r="2"/>
	<path d="M 5,33 h-4 c -1,0 -1.5,-0.5 0,-2 l 4,-4 c 1,-1 2,-2 2,0 v4 c 0,2 0,2 -2,2 Z" fill="#DD2E44"/>
	<path fill="#F4900C" d="M 30,32 h-8 c -0.127,0 -0.253,-0.024 -0.371,-0.071 l -4.822,-1.929 h-6.807 a 1,1 0 01 0,-2 h7 c 0.128,0 0.253,0.024 0.372,0.071 l 4.82,1.929 h7.808 a 1,1 0 01 0,2 Z"/>
	
	<path d="M 11,15 h-4 l -2,-8 l 2,-2 h4 l 2,2 l -2,8 Z" fill="#6D6E71"/>
	<path d="M 12,3 a 1,1 0 01 1,1 v3 h-8 v-3 a 1,1 0 01 1,-1 h6 Z" fill="#414042"/>
	<path fill="#414042" d="M 4,15 a 2,2 0 01 2,-2 h18 a 2,2 0 01 2,2 v10 a 2,2 0 01 -2,2 h-18 a 2,2 0 01 -2,-2 v-10 Z"/>
	<path fill="#C1694F" d="M 11,13 a 1,1 0 01 1,-1 a 1,1 0 01 1,1 v13 a 1,1 0 01 -1,1 a 1,1 0 01 -1,-1 v-13 Z"/>
	<path fill="#C1694F" d="M 17,13 a 1,1 0 01 1,-1 a 1,1 0 01 1,1 v13 a 1,1 0 01 -1,1 a 1,1 0 01 -1,-1 v-13 Z"/>
	<path d="M 23,6 h12 v20 h-12 v-20 Z" fill="#BE1931"/>
	<path fill="#55ACEE" d="M 25,10 a 1,1 0 01 1,-1 h6 a 1,1 0 01 1,1 v5 a 1,1 0 01 -1,1 h-6 a 1,1 0 01 -1,-1 v-5 Z"/>
	<path d="M 25,18 h8 v5 h-8 v-5 Z" fill="#EA596E"/>
	<path fill="#A0041E" d="M 22,6 a 1,1 0 01 1,-1 h12 a 1,1 0 01 1,1 a 1,1 0 01 -1,1 h-12 a 1,1 0 01 -1,-1 Z"/>
	<path fill="#808285" d="M 6,26 a 1,1 0 01 1,-1 h28 a 1,1 0 01 1,1 a 1,1 0 01 -1,1 h-28 a 1,1 0 01 -1,-1 Z"/>
</svg>
