<svg xmlns="http://www.w3.org/2000/svg" viewBox="0 0 36 36">
  <defs/>
  <path fill="#A7A9AC" d="M2,36 L13,19 L23,19 L34,36 L2,36 Z"/>
  <path fill="#58595B" d="M5,36 L15,19 L21,19 L31,36 L5,36 Z"/>
  <path fill="#808285" d="M8,36 L17,19 L19,19 L28,36 L8,36 Z"/>
  <path fill="#A7A9AC" d="M9,34 L27,34 A1 1 0 0 1 28,35 L28,35 A1 1 0 0 1 27,36 L9,36 A1 1 0 0 1 8,35 L8,35 A1 1 0 0 1 9,34 Z"/>
  <path fill="#A7A9AC" d="M11,30 L25,30 A1 1 0 0 1 26,31 L26,31 A1 1 0 0 1 25,32 L11,32 A1 1 0 0 1 10,31 L10,31 A1 1 0 0 1 11,30 Z"/>
  <path fill="#A7A9AC" d="M13,26 L23,26 A1 1 0 0 1 24,27 L24,27 A1 1 0 0 1 23,28 L13,28 A1 1 0 0 1 12,27 L12,27 A1 1 0 0 1 13,26 Z"/>
  <path fill="#58595B" d="M9.881,23.82 L12.358,19.992 C13.726,20.023 15.535,20 18,20 C20.422,20 22.211,19.979 23.57,19.882 L26.119,23.82 C24.994,25.045 23.501,26 22,26 L14,26 C12.498,26 11.006,25.046 9.881,23.82 Z"/>
  <path fill="#414042" d="M18,0 L18,0 A1 1 0 0 1 19,1 L19,2 A1 1 0 0 1 18,3 L18,3 A1 1 0 0 1 17,2 L17,1 A1 1 0 0 1 18,0 Z"/>
  <path fill="#6D6E71" d="M16,2 L20,2 A2 2 0 0 1 22,4 L22,4 A2 2 0 0 1 20,6 L16,6 A2 2 0 0 1 14,4 L14,4 A2 2 0 0 1 16,2 Z"/>
  <path fill="#D1D3D4" d="M12,3 L24,3 A4 4 0 0 1 28,7 L28,16 A4 4 0 0 1 24,20 L12,20 A4 4 0 0 1 8,16 L8,7 A4 4 0 0 1 12,3 Z"/>
  <path fill="#808285" d="M15,7 L21,7 A4 4 0 0 1 25,11 L25,16 A4 4 0 0 1 21,20 L15,20 A4 4 0 0 1 11,16 L11,11 A4 4 0 0 1 15,7 Z"/>
  <path fill="#292F33" d="M13,5 L23,5 A2 2 0 0 1 25,7 L25,9 A2 2 0 0 1 23,11 L13,11 A2 2 0 0 1 11,9 L11,7 A2 2 0 0 1 13,5 Z"/>
  <path fill="#55ACEE" d="M15,15 A4 4 0 0 1 11,11 L11,9 L25,9 L25,11 A4 4 0 0 1 21,15 L15,15 Z"/>
  <path fill="#5C913B" d="M18,20 C25,20 26.754,17.839 28,16.109 L28,18 C28,20.209 25,24 22,24 L14,24 C11,24 8,20.209 8,18 L8,16.758 C9.246,18.199 11,20 18,20 Z"/>
  <path fill="#FFD983" d="M15,17.5 A1.5 1.5 0 1 1 12,17.5 A1.5 1.5 0 1 1 15,17.5 Z"/>
  <path fill="#FFD983" d="M24,17.5 A1.5 1.5 0 1 1 21,17.5 A1.5 1.5 0 1 1 24,17.5 Z"/>
  <path fill="#6D6E71" d="M16,6 L20,6 A1 1 0 0 1 21,7 L21,7 A1 1 0 0 1 20,8 L16,8 A1 1 0 0 1 15,7 L15,7 A1 1 0 0 1 16,6 Z"/>
</svg>

