<svg xmlns="http://www.w3.org/2000/svg" viewBox="0 0 36 36">
  <defs/>
  <path fill="#A7A9AC" d="M0,36 L9.625,19 L18.375,19 L28,36 L0,36 Z"/>
  <path fill="#58595B" d="M2.625,36 L11.375,19 L16.625,19 L25.375,36 L2.625,36 Z"/>
  <path fill="#58595B" d="M23,22.94 L23,21 L36,31 L36,36 L32,36 L23,22.94 Z"/>
  <path fill="#808285" d="M5.25,36 L13.125,19 L14.875,19 L22.75,36 L5.25,36 Z"/>
  <path fill="#A7A9AC" d="M9,26 L19,26 A1 1 0 0 1 20,27 L20,27 A1 1 0 0 1 19,28 L9,28 A1 1 0 0 1 8,27 L8,27 A1 1 0 0 1 9,26 Z"/>
  <path fill="#A7A9AC" d="M7,30 L21,30 A1 1 0 0 1 22,31 L22,31 A1 1 0 0 1 21,32 L7,32 A1 1 0 0 1 6,31 L6,31 A1 1 0 0 1 7,30 Z"/>
  <path fill="#A7A9AC" d="M5,34 L23,34 A1 1 0 0 1 24,35 L24,35 A1 1 0 0 1 23,36 L5,36 A1 1 0 0 1 4,35 L4,35 A1 1 0 0 1 5,34 Z"/>
  <path fill="#A7A9AC" d="M36,31 L32,31 L23,21 L36,21 L36,31 Z"/>
  <path fill="#58595B" d="M6.896,23.82 L9.063,19.992 C10.26,20.023 11.843,20 14,20 C16.119,20 17.685,19.979 18.874,19.882 L21.104,23.82 C20.12,25.045 18.813,26 17.5,26 L10.5,26 C9.186,26 7.88,25.046 6.896,23.82 Z"/>
  <path fill="#414042" d="M14,1 L14,1 A1 1 0 0 1 15,2 L15,3 A1 1 0 0 1 14,4 L14,4 A1 1 0 0 1 13,3 L13,2 A1 1 0 0 1 14,1 Z"/>
  <path fill="#6D6E71" d="M12,3 L16,3 A2 2 0 0 1 18,5 L18,5 A2 2 0 0 1 16,7 L12,7 A2 2 0 0 1 10,5 L10,5 A2 2 0 0 1 12,3 Z"/>
  <path fill="#D1D3D4" d="M23,18 L14,23.5 L5,18 L5,8 A3.6 4 0 0 1 8.6,4 L19.4,4 A3.6 4 0 0 1 23,8 L23,18 Z"/>
  <path fill="#808285" d="M11,7 L17,7 A4 4 0 0 1 21,11 L21,16 A4 4 0 0 1 17,20 L11,20 A4 4 0 0 1 7,16 L7,11 A4 4 0 0 1 11,7 Z"/>
  <path fill="#292F33" d="M9,6 L19,6 A2 2 0 0 1 21,8 L21,10 A2 2 0 0 1 19,12 L9,12 A2 2 0 0 1 7,10 L7,8 A2 2 0 0 1 9,6 Z"/>
  <path fill="#55ACEE" d="M11,15 A4 4 0 0 1 7,11 L7,10 L21,10 L21,11 A4 4 0 0 1 17,15 L11,15 Z"/>
  <path fill="#5C913B" d="M14,20 C20.3,20 21.879,17.839 23,16.109 L23,18 C23,20.209 20.3,24 17.6,24 L10.4,24 C7.7,24 5,20.209 5,18 L5,16.758 C6.122,18.199 7.7,20 14,20 Z"/>
  <path fill="#FFD983" d="M11,17.5 A1.5 1.5 0 1 1 8,17.5 A1.5 1.5 0 1 1 11,17.5 Z"/>
  <path fill="#FFD983" d="M20,17.5 A1.5 1.5 0 1 1 17,17.5 A1.5 1.5 0 1 1 20,17.5 Z"/>
  <path fill="#6D6E71" d="M12,7 L16,7 A1 1 0 0 1 17,8 L17,8 A1 1 0 0 1 16,9 L12,9 A1 1 0 0 1 11,8 L11,8 A1 1 0 0 1 12,7 Z"/>
  <path fill="#6D6E71" d="M32,12 L32,12 A1 1 0 0 1 33,13 L33,24 A1 1 0 0 1 32,25 L32,25 A1 1 0 0 1 31,24 L31,13 A1 1 0 0 1 32,12 Z"/>
  <path fill="#6D6E71" d="M33,24 C33,25 33,25 32,25 C31,25 31,25 31,24 L31,13 L33,13 L33,24 Z"/>
  <path fill="#939598" d="M33,17 C33,18 33,18 32,18 C31,18 31,18 31,17 L31,10 L33,10 L33,17 Z"/>
  <path fill="#58595B" d="M30,7 L34,7 A2 2 0 0 1 36,9 L36,11 A2 2 0 0 1 34,13 L30,13 A2 2 0 0 1 28,11 L28,9 A2 2 0 0 1 30,7 Z"/>
  <path fill="#939598" d="M31,9 L33,9 A1 1 0 0 1 34,10 L34,10 A1 1 0 0 1 33,11 L31,11 A1 1 0 0 1 30,10 L30,10 A1 1 0 0 1 31,9 Z"/>
</svg>

