<svg xmlns="http://www.w3.org/2000/svg" viewBox="0 0 36 36">
	<g fill="#99aab5">
		<path d="M 4,17 h5 v16 h-5 v-16 Z"/>
		<path d="M 27,17 h5 v16 h-5 v-16 Z"/>
	</g>
	<path d="M 0,9 l 2,-4 l 4,-2 h6 v2 l 5,-2 h6 v2 l 5,-2 h4 a 4,4 0 01 1.646,0.354 v2.747 h2.253 a 4,4 0 01 0.101,0.899 v5 l -2,5 l -5,2 h-6 v-2 l -5,2 h-6 v-2 l -5,2 h-3 a 4,4 0 01 -2.284,-0.716 v-3.284 h-1.716 v-6 Z" fill="#ffcc4d"/>
	<g fill="#292f33">
		<path d="M 0,9 v-2 a 4,4 0 01 4,-4 h2 l -6,6 Z"/>
		<path d="M 0,15 l 12,-12 h5 l -15.284,15.284 a 4,4 0 01 -1.716,-3.284 Z"/>
		<path d="M 7,19 l 16,-16 h5 l -16,16 h-5 Z"/>
		<path d="M 18,19 l 15.646,-15.646 a 4,4 0 01 2.253,2.747 l -12.899,12.899 h-5 Z"/>
		<path d="M 29,19 l 7,-7 v3 a 4,4 0 01 -4,4 h-3 Z"/>
	</g>
</svg>
