<svg xmlns="http://www.w3.org/2000/svg" viewBox="0 0 36 36">
	<path fill="#AEB3B2" d="M 34.5,32.423 a 0.5,0.5 0 01 -0.5,-0.5 v-2.423 a 0.5,0.5 0 01 1,0 v2.423 a 0.5,0.5 0 01 -0.5,0.5 ZM 26,35.236 v-2.736 a 0.5,0.5 0 00 -1,0 v2.736 a 0.5,0.5 0 00 1,0 ZM 20,33.344 v-4.844 a 0.5,0.5 0 00 -1,0 v4.844 a 0.5,0.5 0 00 1,0 ZM 16,3.052 a 1.5,1.5 0 01 1.5,-1.5 a 0.5,0.5 0 00 0,-1 a 2.5,2.5 0 00 -2.5,2.5 v4.382 l -0.914,3.427 l -7.906,2.635 l 0.82,-2.927 v-4.517 a 1.5,1.5 0 01 1.5,-1.5 a 0.5,0.5 0 00 0,-1 a 2.5,2.5 0 00 -2.5,2.5 v4.379 l -4.741,16.934 a 0.5,0.5 0 00 -0.019,0.135 a 0.5,0.5 0 00 0.5,0.5 a 0.5,0.5 0 00 0.482,-0.365 l 0.467,-1.671 l 8.088,-2.696 l -0.293,1.103 a 0.5,0.5 0 00 -0.017,0.129 a 0.5,0.5 0 00 0.5,0.5 a 0.5,0.5 0 00 0.483,-0.371 l 4.55,-17.063 v-4.514 ZM 13.778,12.018 l -0.692,2.594 l -7.961,2.654 l 0.73,-2.606 l 7.923,-2.642 ZM 12.086,18.361 l -8.016,2.672 l 0.73,-2.606 l 7.978,-2.659 l -0.692,2.593 ZM 3.015,24.802 l 0.73,-2.606 l 8.033,-2.678 l -0.692,2.594 l -8.071,2.69 Z"/>
	<path d="M 34.5,30 a 0.5,0.5 0 01 -0.184,-0.035 l -1.643,-0.657 a 10.518,10.518 0 01 -5.333,-4.75 l -7.299,-13.479 a 5.472,5.472 0 00 -3.183,-2.626 l -1.508,-0.476 c -0.208,-0.066 -0.35,-0.259 -0.35,-0.477 v-2.752 l 0.5,-0.248 l 3.63,1.145 a 5.968,5.968 0 01 3.471,2.865 l 7.545,13.934 a 8.592,8.592 0 00 4.354,3.876 h0.2 v3.18 h-0.2 v0.5 Z" fill="#DD551F"/>
	<path d="M 34.5,30 a 0.5,0.5 0 01 -0.185,-0.037 l -0.022,-0.009 v-2.928 a 0.5,0.5 0 00 -0.314,-0.464 a 8.083,8.083 0 01 -4.1,-3.65 l -7.545,-13.933 a 6.466,6.466 0 00 -3.761,-3.104 l -3.573,-1.127 v-0.248 a 0.5,0.5 0 01 0.5,-0.5 a 0.5,0.5 0 01 0.15,0.023 l 3.63,1.145 a 6.463,6.463 0 01 3.761,3.104 l 7.545,13.934 a 8.092,8.092 0 00 4.1,3.65 a 0.5,0.5 0 01 0.314,0.464 v3.18 a 0.5,0.5 0 01 -0.5,0.5 Z" fill="#FA8948"/>
	<path fill="#FAA572" d="M 20.919,10.603 a 0.497,0.497 0 01 -0.281,0.712 l -9,3 l -0.159,-0.475 a 5.971,5.971 0 00 -3.479,-2.864 l -1.5,-0.476 l -0.159,-0.474 l 9,-3 a 0.51,0.51 0 01 0.309,-0.003 l 1.508,0.476 a 6.47,6.47 0 01 3.761,3.104 Z"/>
	<path fill="#FAC19C" d="M 29.854,26.275 a 0.5,0.5 0 01 -0.196,0.828 l -9,3 l -0.158,-0.474 a 9.979,9.979 0 01 -1.723,-2.31 l -7.298,-13.479 l -0.159,-0.474 l 9,-3 a 0.497,0.497 0 01 0.598,0.236 l 7.299,13.479 a 9.497,9.497 0 00 1.637,2.194 Z"/>
	<path fill="#FAA572" d="M 34.658,29.974 l -9,3 a 0.5,0.5 0 01 -0.158,0.026 v-0.5 l -1.643,-0.657 a 9.939,9.939 0 01 -3.357,-2.214 l -0.157,-0.474 l 9,-3 a 0.501,0.501 0 01 0.512,0.121 a 9.427,9.427 0 00 3.188,2.103 l 1.643,0.657 a 0.501,0.501 0 01 -0.028,0.938 Z"/>
	<path d="M 25.5,33 a 0.5,0.5 0 01 -0.184,-0.035 l -1.643,-0.657 a 10.518,10.518 0 01 -5.333,-4.75 l -7.299,-13.479 a 5.472,5.472 0 00 -3.183,-2.626 l -1.508,-0.476 c -0.208,-0.066 -0.35,-0.259 -0.35,-0.477 v-2.752 l 0.5,-0.248 l 3.63,1.145 a 5.968,5.968 0 01 3.471,2.865 l 7.545,13.934 a 8.592,8.592 0 00 4.354,3.876 h0.2 v3.18 h-0.2 v0.5 Z" fill="#DD551F"/>
	<path d="M 25.5,33 a 0.5,0.5 0 01 -0.185,-0.037 l -0.022,-0.009 v-2.928 a 0.5,0.5 0 00 -0.314,-0.464 a 8.083,8.083 0 01 -4.1,-3.65 l -7.545,-13.933 a 6.466,6.466 0 00 -3.761,-3.104 l -3.573,-1.127 v-0.248 a 0.5,0.5 0 01 0.5,-0.5 a 0.5,0.5 0 01 0.15,0.023 l 3.63,1.145 a 6.463,6.463 0 01 3.761,3.104 l 7.545,13.934 a 8.092,8.092 0 00 4.1,3.65 a 0.5,0.5 0 01 0.314,0.464 v3.18 a 0.5,0.5 0 01 -0.5,0.5 Z" fill="#FA8948"/>
	<path fill="#AEB3B2" d="M20,5.242 a0.5,0.5 0 01 -1,0 v-2.19 a 1.5,1.5 0 00 -1.5,-1.5 a 0.5,0.5 0 01 0,-1 a 2.5,2.5 0 01 2.5,2.5 z"/>
	<path fill="#AEB3B2" d="M11,8.242 a0.5,0.5 0 01 -1,0 v-2.19 a 1.5,1.5 0 00 -1.5,-1.5 a 0.5,0.5 0 01 0,-1 a 2.5,2.5 0 01 2.5,2.5 z"/>
</svg>
