<svg xmlns="http://www.w3.org/2000/svg" viewBox="0 0 36 36">
	<path fill="#99AAB5" d="M 22,0.872 a 0.872,0.872 0 01 0.872,-0.872 h2.256 a 0.872,0.872 0 01 0.872,0.872 v0.256 a 0.872,0.872 0 01 -0.872,0.872 v1 h-2.256 v-1 a 0.872,0.872 0 01 -0.872,-0.872 v-0.256 Z"/>
	<path fill="#3B88C3" d="M 7,3 h22 v32 h-22 v-32 Z"/>
	<g fill="#269">
		<path d="M 6,2.822 a 0.822,0.822 0 01 0.822,-0.822 h22.356 a 0.822,0.822 0 01 0.822,0.822 v0.356 a 0.822,0.822 0 01 -0.822,0.822 h-22.356 a 0.822,0.822 0 01 -0.822,-0.822 v-0.356 Z"/>
		<path d="M 6,13.822 a 0.822,0.822 0 01 0.822,-0.822 h22.356 a 0.822,0.822 0 01 0.822,0.822 v0.356 a 0.822,0.822 0 01 -0.822,0.822 h-22.356 a 0.822,0.822 0 01 -0.822,-0.822 v-0.356 Z"/>
		<path d="M 6,23.822 a 0.822,0.822 0 01 0.822,-0.822 h22.356 a 0.822,0.822 0 01 0.822,0.822 v0.356 a 0.822,0.822 0 01 -0.822,0.822 h-22.356 a 0.822,0.822 0 01 -0.822,-0.822 v-0.356 Z"/>
		<path d="M 6,34.822 a 0.822,0.822 0 01 0.822,-0.822 h22.356 a 0.822,0.822 0 01 0.822,0.822 v0.356 a 0.822,0.822 0 01 -0.822,0.822 h-22.356 a 0.822,0.822 0 01 -0.822,-0.822 v-0.356 Z"/>
	</g>
</svg>
