<svg xmlns="http://www.w3.org/2000/svg" viewBox="0 0 36 36">
	i fixed some of the corrupted svg paths, but this one deserves a redesign. it's innacurate and doesn't match other emoji fonts very well.
	shadowed leg/arm
	<path fill="#3E721D" d="M12.45 21.329s-2.459 4.086-1.78 5.652c.409.945 1.123 2.064 2.389 2.271.423.069.623.898.501 1.505-.139.686-.621 1.646-.886 2.132-.265.487-.777.481-1.411 1.041-.442.39-.597 1.075.153 1.082l3.545.029c.664.006 1.093-.398 1.24-1.067.204-.928.76-4.461.551-5.146-.15-.491-.667-.886-.995-1.835-.243-.703.343-1.803.343-1.803l-3.65-3.861zm-5.748-5.571s.824-.146 1.272-.061c.448.086 1.705 1.019 2.085 1.16.38.141 1.299-.075 1.299-.075s1.065 1.436.995 1.581c-.07.145-1.617.47-1.981.579-.363.109-1.755-2.081-2.146-2.327s-.98.359-1.373.341c-.392-.018-.282-.298-.005-.374 0 0-.467.157-.483-.019-.016-.176.388-.281.388-.281s-.409.146-.475-.026c-.064-.172.063-.38.424-.498z"/>
	mouth corner
	<path fill="#292F33" d="M7.396 8.478l3.774-1.518v1.780l-1.84 1.950h-1.570l-.156-.526c1.061-.444 .198-1.19-.208-1.686z"/>
	teeth
	<path fill="#F4900C" d="M1.148 9.322v-.292l4.682-1.280l1.211 .217s-.45 .934-.674 .978c-.133 .026-.262-1.013-.262-1.013s-.129 1.017-.383 1.040c-.095 .009-.545-.902-.545-.902s-.014 .995-.1 1.024c-.085 .029-.559-.802-.559-.802s.02 1.001-.08 1.035c-.1 .034-.607-.802-.607-.802s-.042 1.011-.162 1.035c-.119 .025-.602-.887-.602-.887s.144 1.038 .001 1.086c-.144 .049-.688-.853-.688-.853s.196 1.002 .072 1.060c-.124 .058-.669-.939-.669-.939s.081 1.042-.014 1.090c-.096 .049-.37-.29-.621-.795zM2.582 11.637c-.05-.562 .007-.993 .114-1.003c.106-.008 .432 .878 .432 .878s.093-1.091 .229-1.106c.136-.015 .389 .967 .389 .967s.098-1.077 .245-1.109c.147-.033 .418 .959 .418 .959s.14-1.164 .255-1.205c.114-.042 .46 .934 .46 .934s.04-1.048 .144-1.071c.103-.024 .556 .944 .556 .944s-.037-.983 .051-1.004c.088-.02 .55 .851 .55 .851s0-.883 .081-.932c.082-.049 .482 .759 .482 .759s.055-.715 .159-.801c.105-.086 .469 .738 .469 .738l-5.034 1.514v-.313z"/>
	belly
	<path fill="#5C913B" d="M9.413 13.776v-2.336l20.617 20.617h4.829c-2.485 3.401-8.596 3.411-12.129-1.469c-1.974-2.727-6.319-1.974-8.357-4.051c-2.104-2.144-2.188-4.546-3.095-6.033c-1.498-2.458-.481-6.356-1.865-6.728z"/>
	main
	<g fill="#77B255">
		<path d="M.318 7.216c.227-.574 1.215-2.044 2.726-2.763c1.521-.729 2.342-.794 2.756-1.249c.111-.119 .126-.476 .654-.638c.571-.175 1.549-.12 2.291-.797c2.216-2.022 2.556-.636 3.865-.205c1.648 .543 2.54-.56 3.956 3.137c1.092 2.851-.663 4.345 1.291 6.132c0 0 1.667 1.543 2.941 2.195c8.734 4.467 5.016 13.718 9.487 17.011c4.08 3.005 4.782-1.706 3.977-3.145c-.136-.242 .114-.59 .481-.243c.892 .841 1.169 2.697 .918 3.855c-.66 3.052-3.498 3.58-6.268 3.231c-4.426-.557-6.575-7.672-10.763-5.514c-2.202 1.135-3.547-3.743-5.097-6.071c-1.371-2.058-3.049-7.104-3.33-8.034c-.044-.149-.632-.092-1.177-.315c-.517-.212-.677-.371-1.116-.716c-.294-.23-.706-.445-1.239-.394c-1.266 .121-3.474 .638-3.893 .322c-.419-.316-.65-1.195-.348-1.343c.296-.143 2.287-.61 2.835-.802s.70-.744 1.343-.778c.643-.033 1.932 .247 2.354 .021c.419-.224 1.785-1.817 1.678-2.011c-.322-.587-1.845 .992-2.258 1.021c-.413 .029-2.448-.951-2.871-.841c-.423 .11-4.114 1.325-4.597 1.264c-.484-.052-.813-1.757-.596-2.330z
" />
		<path d="M14.136 21.625s-1.471 3.333-.728 5.108c.687 1.643 2.359 2.952 3.897 3.472.374.126 1.093.116 1.268.658s-.164 2.343-.408 2.791c-.244.448-1.532.685-1.799 1.506-.1.307-.303.749.281.803.687.063 4.266.026 4.877.032.611.005.765-.474.771-1.104.003-.398-.688-2.39-.39-3.803.176-.835.526-1.626 1.002-2.334 1.001-1.489.044-1.661-1.351-1.661-2.176 0-4.34-.611-4.34-.611l-3.08-4.857zm-7.892-3.142s.78-.424 1.26-.489c.48-.064 2.057.452 2.488.466.43.014 1.69-.85 1.69-.85s1.146 1.425 1.124 1.595c-.022.169-1.469 1.016-1.798 1.248-.329.232-2.143-1.459-2.619-1.575-.476-.116-1.188.646-1.588.76-.401.114-.384-.205-.13-.375 0 0-.417.315-.493.144-.075-.171.296-.413.296-.413s-.362.285-.486.133c-.125-.152-.067-.403.256-.644z"/>
	</g>
	dark spots
	<g fill="#3E721D">
		<circle cx="19.917" cy="14.308" r="0.500"/>
		<circle cx="21.810" cy="15.304" r="0.379"/>
		<circle cx="20.978" cy="17.360" r="0.712"/>
		<circle cx="22.890" cy="16.751" r="0.358"/>
		<circle cx="24.408" cy="18.774" r="0.662"/>
		<circle cx="25.972" cy="24.326" r="0.271"/>
		<circle cx="24.350" cy="23.682" r="0.424"/>
		<circle cx="22.836" cy="18.997" r="0.424"/>
		<circle cx="25.621" cy="22.387" r="0.424"/>
		<circle cx="24.040" cy="21.036" r="0.627"/>
		
		<path d="M7.808 5.05c-.688.23-2.711-.104-2.711-.104 2.271-.762 1.011-1.05 2.169-1.658.613-.317 1.458-.255 1.614.187.159.502.118 1.175-1.072 1.575z"/>
	</g>
	eye
	<circle fill="#292F33" cx="7.647" cy="4.11" r=".484"/>
</svg>
