<svg xmlns="http://www.w3.org/2000/svg" viewBox="0 0 36 36">
	<path d="M 33.334,27.096 c 0.588,1.143 0.177,1.77 -0.263,2.222 c -0.67,0.685 -2.546,1.664 -3.558,1.855 c -1.011,0.191 -1.178,-2.863 -1.657,-3.835 c -0.478,-0.972 -1.208,-0.191 -1.096,0.51 s 1.831,3.834 0.753,4.311 c -0.811,0.358 -4.445,1.522 -5.026,-0.556 c -0.929,-3.323 -3.356,-6.554 -4.325,-7.59 c -0.085,-0.091 -0.134,-0.183 -0.163,-0.277 c -0.929,-0.98 -1.72,-2.216 -2.324,-3.706 c -0.096,-0.237 -0.19,-0.706 -0.17,-0.711 l -0.037,0.011 l -3.101,-10.51 s -0.389,-1.643 1.448,-2.006 l 1.355,1.178 l 0.443,-0.237 l -0.78,-2.636 s -0.359,-1.617 1.659,-2.142 l 1.355,1.179 l 0.388,-0.366 l -0.348,-1.167 s -0.225,-1.703 1.695,-2.08 l 1.354,1.179 l 0.703,0.635 s -0.329,-1.639 1.521,-2.102 l 4.036,8.026 s -0.448,-1.517 1.501,-2.043 l 1.519,1.122 l 2.274,7.707 c 0.613,2.078 -0.116,4.704 -0.402,6.053 s 0.658,4.833 1.246,5.976 Z" fill="#292F33"/>
	<path d="M 33.794,26.905 c 0.589,1.143 0.177,1.77 -0.264,2.221 c -0.67,0.685 -2.546,1.664 -3.558,1.855 c -1.011,0.191 -1.178,-2.863 -1.657,-3.835 c -0.478,-0.972 -1.208,-0.19 -1.096,0.51 c 0.112,0.701 1.831,3.834 0.753,4.311 c -0.811,0.358 -4.445,1.522 -5.026,-0.556 c -0.929,-3.323 -3.356,-6.554 -4.325,-7.59 c -0.085,-0.09 -0.134,-0.183 -0.163,-0.277 c -0.929,-0.979 -1.72,-2.215 -2.324,-3.705 c -0.096,-0.237 -0.19,-0.706 -0.17,-0.711 l -0.037,0.011 l -3.102,-10.51 s -0.413,-1.401 0.988,-1.815 s 1.815,0.987 1.815,0.987 l 1.92,6.507 c -0.031,-0.103 0.642,-0.403 0.618,-0.486 l -2.665,-9.03 s -0.413,-1.401 0.988,-1.815 c 1.401,-0.413 1.815,0.988 1.815,0.988 l 2.506,8.494 c -0.006,-0.02 0.689,-0.243 0.686,-0.255 l -2.905,-9.847 s -0.413,-1.401 0.988,-1.815 c 1.402,-0.414 1.815,0.988 1.815,0.988 l 2.905,9.846 c 0.004,0.012 0.711,-0.17 0.717,-0.15 l -2.715,-9.203 s -0.413,-1.401 0.988,-1.815 c 1.401,-0.413 1.815,0.988 1.815,0.988 l 2.872,9.731 c 0.85,2.881 1.551,2.675 1.551,2.675 l -0.768,-2.602 l -0.886,-3.003 s -0.413,-1.401 0.987,-1.815 c 1.403,-0.413 1.816,0.988 1.816,0.988 l 2.274,7.706 c 0.613,2.078 -0.116,4.704 -0.402,6.053 s 0.658,4.833 1.246,5.976 Z" fill="#66757F"/>
	<path d="M 29.743,26.025 c 1.089,0.681 1.056,1.43 0.908,2.042 c -0.226,0.931 -1.338,2.732 -2.11,3.413 c -0.772,0.682 -2.477,-1.858 -3.385,-2.448 s -1.135,0.454 -0.681,0.999 s 3.534,2.359 2.851,3.32 c -0.513,0.722 -3.041,3.58 -4.603,2.092 c -2.497,-2.38 -6.234,-3.916 -7.597,-4.311 c -0.119,-0.034 -0.22,-0.064 -0.376,-0.12 c -1.397,-0.495 -2.479,-0.919 -3.798,-2.031 c 0,0 -0.363,-0.324 -0.536,-0.496 c -0.173,-0.173 -8.039,-7.447 -8.039,-7.447 s -1.174,-1.212 0.219,-2.464 l 1.767,0.32 l 0.148,-0.439 l -1.907,-1.857 s -1.136,-1.206 0.33,-2.689 l 1.767,0.32 l 0.135,-0.524 l -0.885,-0.815 s -1.064,-1.348 0.393,-2.654 l 2.697,0.507 s -1.12,-1.24 0.233,-2.584 l 7.573,4.835 s -1.161,-1.075 0.245,-2.523 l 1.879,0.188 l 5.895,5.461 c 1.59,1.472 2.306,4.102 2.75,5.407 s 3.037,3.817 4.127,4.498 Z" fill="#66757F"/>
	<path d="M 30.041,25.625 c 1.089,0.681 1.056,1.431 0.907,2.045 c -0.226,0.931 -1.338,2.732 -2.11,3.413 c -0.772,0.682 -2.477,-1.858 -3.385,-2.448 s -1.135,0.454 -0.681,0.999 s 3.534,2.359 2.851,3.32 c -0.513,0.722 -3.041,3.581 -4.603,2.092 c -2.497,-2.38 -6.234,-3.916 -7.597,-4.311 c -0.119,-0.034 -0.306,-0.099 -0.433,-0.141 c -1.297,-0.407 -2.461,-1.038 -3.741,-2.01 c -0.204,-0.155 -0.536,-0.496 -0.536,-0.496 l -8.039,-7.447 s -1.072,-0.993 -0.079,-2.065 c 0.993,-1.073 2.065,-0.08 2.065,-0.08 l 4.977,4.61 c -0.079,-0.073 0.346,-0.675 0.283,-0.734 l -6.907,-6.398 s -1.072,-0.993 -0.079,-2.065 s 2.065,-0.079 2.065,-0.079 l 6.496,6.017 c -0.015,-0.014 0.469,-0.562 0.46,-0.57 l -7.532,-6.977 s -1.072,-0.992 -0.079,-2.064 s 2.065,-0.079 2.065,-0.079 l 7.531,6.976 c 0.01,0.009 0.525,-0.509 0.54,-0.495 l -7.039,-6.52 s -1.071,-0.993 -0.079,-2.065 c 0.993,-1.072 2.065,-0.079 2.065,-0.079 l 7.444,6.895 c 2.204,2.041 2.701,1.505 2.701,1.505 l -1.991,-1.844 l -2.297,-2.128 s -1.072,-0.992 -0.08,-2.064 c 0.993,-1.072 2.065,-0.079 2.065,-0.079 l 5.895,5.461 c 1.59,1.472 2.306,4.102 2.75,5.407 c 0.445,1.305 3.037,3.817 4.127,4.498 Z" fill="#99AAB5"/>
	<path d="M 19.097,27.624 c -0.067,0 -0.136,-0.014 -0.202,-0.043 l -6.529,-2.883 c -0.252,-0.111 -0.367,-0.406 -0.255,-0.659 c 0.112,-0.252 0.406,-0.366 0.66,-0.255 l 6.529,2.883 c 0.252,0.111 0.367,0.406 0.255,0.659 c -0.083,0.187 -0.267,0.298 -0.458,0.298 Z" fill="#66757F"/>
	<path d="M 21.594,24.627 c -0.127,0 -0.253,-0.048 -0.351,-0.144 l -5.253,-5.167 c -0.197,-0.193 -0.2,-0.51 -0.006,-0.707 c 0.193,-0.197 0.51,-0.2 0.707,-0.006 l 5.252,5.167 c 0.197,0.193 0.199,0.51 0.006,0.707 c -0.096,0.1 -0.226,0.15 -0.355,0.15 Z" fill="#66757F"/>
	<path d="M 20.368,26.08 c -0.098,0 -0.195,-0.028 -0.281,-0.087 l -6.235,-4.241 c -0.229,-0.155 -0.288,-0.466 -0.132,-0.694 c 0.155,-0.229 0.467,-0.286 0.695,-0.132 l 6.235,4.241 c 0.228,0.155 0.287,0.466 0.132,0.694 c -0.097,0.143 -0.255,0.219 -0.414,0.219 Z" fill="#66757F"/>
</svg>
