<svg xmlns="http://www.w3.org/2000/svg" viewBox="0 0 36 36">
	<path d="M 35.627,10.826 h0.001 v9.687 h-0.018 c 0.047,0.208 -0.236,0.46 -1.099,0.919 c -1.696,0.901 -20.306,10.762 -20.932,11.074 c -0.396,0.197 -0.734,0.278 -1.092,0.249 l -3,-3 v-14.5 l 26.14,-4.429 Z" fill="#C1694F"/>
	<path d="M 0.373,16.56 h12.114 v16.19 c -0.333,-0.027 -0.682,-0.144 -1.114,-0.356 c -0.718,-0.353 -9.826,-5.227 -10.553,-5.639 c -0.314,-0.178 -0.455,-0.324 -0.443,-0.473 h-0.004 v-9.722 Z"  fill="#A0041E"/>
	<path d="M 22.224,4.682 c 1.076,-0.558 1.113,-0.628 2.249,-0.024 s 9.846,5.248 10.487,5.589 c 0.814,0.434 1.112,0.591 -0.449,1.421 c -1.696,0.902 -20.306,10.763 -20.932,11.074 c -0.765,0.381 -1.311,0.327 -2.206,-0.112 c -0.718,-0.352 -9.826,-5.226 -10.553,-5.639 c -0.82,-0.465 -0.482,-0.706 0.769,-1.37 l 20.635,-10.939 Z"  fill="#D99E82"/>
	<ellipse fill="#C1694F" cx="11.189" cy="17.191" rx="3.679" ry="1.84"/>
	<ellipse fill="#C1694F" cx="18" cy="13.639" rx="3.679" ry="1.84"/>
	<ellipse fill="#C1694F" cx="24.811" cy="10.087" rx="3.679" ry="1.84"/>
	<path d="M 11.642,16.734 c 1.145,0.376 1.898,1.016 2.231,1.708 c -0.671,0.36 -1.621,0.589 -2.684,0.589 c -2.032,0 -3.679,-0.824 -3.679,-1.84 c 0,-0.04 0.019,-0.078 0.024,-0.118 c 0.756,-0.708 2.539,-0.855 4.108,-0.339 Z"  fill="#A0041E"/>
	<path d="M 18.453,13.182 c 1.145,0.376 1.898,1.016 2.231,1.708 c -0.671,0.36 -1.621,0.589 -2.684,0.589 c -2.032,0 -3.679,-0.824 -3.679,-1.84 c 0,-0.04 0.019,-0.078 0.024,-0.118 c 0.756,-0.708 2.539,-0.855 4.108,-0.339 Z"  fill="#A0041E"/>
	<path d="M 25.264,9.63 c 1.145,0.376 1.898,1.016 2.231,1.708 c -0.672,0.36 -1.621,0.589 -2.684,0.589 c -2.032,0 -3.679,-0.824 -3.679,-1.84 c 0,-0.04 0.019,-0.078 0.024,-0.118 c 0.756,-0.708 2.539,-0.855 4.108,-0.339 Z"  fill="#A0041E"/>
</svg>
