<svg xmlns="http://www.w3.org/2000/svg" viewBox="0 0 36 36">
	<path fill="#292F33" d="M 26,0.5 a 3.5,3.5 0 01 3.5,3.5 v6 h-3 v-6 a 0.5,0.5 0 00 -0.5,-0.5 h-16 a 0.5,0.5 0 00 -0.5,0.5 v6 h-3 v-6 a 3.5,3.5 0 01 3.5,-3.5 h16 Z"></path>
	<path fill="#DD2E44" d="M 36,31.765 s 0,4.235 -4.235,4.235 h-27.53 c -4.235,0 -4.235,-4.235 -4.235,-4.235 v-14.765 l 1,-1 l -1,-1 v-3.353 c 0,-4.235 4.235,-4.235 4.235,-4.235 h27.53 s 4.235,0 4.235,4.235 v3.353 l -1,1 l 1,1 v14.765 Z"/>
	<g fill="#BE1931">
		<path d="M 0,15 h36 v2 h-36 v-2 Z"/>
		<path d="M 4,24 l 1,-1 h26 l 1,1 v2 h-28 v-2 Z"/>
		<path d="M 4,30 l 1,-1 h26 l 1,1 v2 h-28 v-2 Z"/>
	</g>
	<g fill="#CCD6DD">
		<path d="M 4,22 h28 v2 h-28 v-2 Z"/>
		<path d="M 4,28 h28 v2 h-28 v-2 Z"/>
	</g>
	<g fill="#AAB8C2">
		<path d="M 7,14 a 1,1 0 01 1,-1 h2 a 1,1 0 01 1,1 v3 l -1,1 h-2 l -1,-1 v-3 Z"/>
		<path d="M 25,14 a 1,1 0 01 1,-1 h2 a 1,1 0 01 1,1 v3 l -1,1 h-2 l -1,-1 v-3 Z"/>
	</g>
	<g fill="#292F33">
		<path d="M 8,18 v-3 h2 v3 h-2 Z"/>
		<path d="M 7,17 h4 v1 a 1,1 0 01 -1,1 h-2 a 1,1 0 01 -1,-1 v-1 Z"/>
		<path d="M 26,18 v-3 h2 v3 h-2 Z"/>
		<path d="M 25,17 h4 v1 a 1,1 0 01 -1,1 h-2 a 1,1 0 01 -1,-1 v-1 Z"/>
	</g>
</svg>
