<svg xmlns="http://www.w3.org/2000/svg" viewBox="0 0 36 36">
	<g fill="#662113">
		<path d="M 4.272,35.837 c -0.253,0.083 -0.486,0.003 -0.567,-0.167 c -0.153,-0.318 0.466,-0.978 0.833,-1.571 c 2.055,-3.325 2.213,-9.287 2.213,-9.35 c 0.001,-0.32 0.137,-0.624 0.375,-0.837 c 0.239,-0.214 0.555,-0.316 0.874,-0.28 l 10.125,1.125 c 0.618,0.069 1.062,0.625 0.994,1.243 s -0.616,2.183 -1.243,2.12 l -8.935,-2.12 c -0.175,2.23 -0.588,5.993 -3.362,8.767 c -0.219,0.22 -0.942,0.886 -1.307,1.07 Z"/>
		<path d="M 31.729,35.837 c -0.366,-0.184 -1.088,-0.85 -1.308,-1.07 c -2.774,-2.774 -3.187,-6.537 -3.362,-8.767 l -8.934,2.12 c -0.627,0.063 -1.175,-1.502 -1.243,-2.12 s 0.377,-1.174 0.994,-1.243 l 10.125,-1.125 c 0.319,-0.036 0.635,0.066 0.874,0.28 c 0.238,0.213 0.375,0.517 0.375,0.837 c 0,0.063 0.158,6.025 2.213,9.35 c 0.367,0.593 0.986,1.253 0.833,1.571 c -0.081,0.169 -0.315,0.25 -0.567,0.167 Z"/>
		<path d="M 2.348,23.08 c -0.621,0 -1.272,-0.127 -1.223,-0.58 c 0.046,-0.422 0.629,-0.52 1.248,-0.573 c 3.258,-0.276 4.476,-4.392 4.495,-4.431 c 0.227,-0.454 0.734,-0.7 1.227,-0.6 l 5.625,1.125 c 0.609,0.122 1.004,0.714 0.882,1.324 c -0.121,0.609 -0.715,2.136 -1.324,2.008 l -4.831,-2.092 c -0.887,1.431 -2.989,3.819 -6.099,3.819 Z"/>
		<path d="M 33.652,23.08 c -3.11,0 -5.212,-2.388 -6.1,-3.819 l -4.831,2.092 c -0.609,0.128 -1.203,-1.399 -1.324,-2.008 c -0.122,-0.61 0.273,-1.202 0.882,-1.324 l 5.625,-1.125 c 0.493,-0.1 1,0.146 1.227,0.6 c 0.019,0.039 1.237,4.155 4.495,4.431 c 0.62,0.053 1.203,0.151 1.249,0.573 c 0.049,0.453 -0.602,0.58 -1.223,0.58 Z"/>
		<path d="M 14.624,16.875 c -0.235,0 -0.471,-0.074 -0.674,-0.225 l -4.008,-3.67 c -0.803,-0.052 -3.108,-0.15 -4.511,-1.303 c -0.48,-0.394 -0.868,-0.872 -0.727,-1.178 c 0.161,-0.348 0.847,-0.078 1.403,0.201 c 1.968,0.984 4,0.55 4.02,0.55 c 0.242,0.001 0.479,0.08 0.672,0.225 l 4.5,3.375 c 0.497,0.373 0.598,1.078 0.225,1.574 c -0.22,0.296 -0.558,0.451 -0.9,0.451 Z"/>
		<path d="M 21.376,16.875 c -0.342,0 -0.68,-0.155 -0.901,-0.451 c -0.373,-0.496 -0.272,-1.201 0.225,-1.574 l 4.5,-3.375 c 0.193,-0.145 0.43,-0.224 0.672,-0.225 c 0.02,0 2.052,0.434 4.02,-0.55 c 0.557,-0.279 1.243,-0.549 1.404,-0.201 c 0.141,0.306 -0.247,0.784 -0.727,1.178 c -1.403,1.153 -3.708,1.251 -4.511,1.303 l -4.008,3.67 c -0.203,0.151 -0.439,0.225 -0.674,0.225 Z"/>
	</g>
	<path d="M 18,32.625 l -5.625,3.375 l 5.625,-9 l 5.625,9 l -5.625,-3.375 Z" fill="#662113"/>
	<path d="M 11.25,22.5 c 0,-6.75 3.022,-10.125 6.75,-10.125 s 6.75,3.375 6.75,10.125 c 0,7.875 -3.022,13.5 -6.75,13.5 s -6.75,-5.625 -6.75,-13.5 Z" fill="#C1694F"/>
	<path d="M 12,22 c 0,-6.75 2.957,-9.625 6,-9.625 s 6,2.875 6,9.625 c 0,7.875 -2.957,11 -6,11 s -6,-3.125 -6,-11 Z" fill="#662113"/>
	<path d="M 13.5,12.375 h9 c 0,2.485 -2.015,3.375 -4.5,3.375 s -4.5,-0.89 -4.5,-3.375 Z" fill="#D99E82"/>
	<path d="M 13.5,12.375 c 0,-2.25 2.015,-4.5 4.5,-4.5 s 4.5,2.25 4.5,4.5 c 0,1.125 -2.015,2.25 -4.5,2.25 s -4.5,-1.125 -4.5,-2.25 Z" fill="#662113"/>
	<ellipse fill="#662113" cx="18" cy="7.875" rx="1.688" ry="1.125"/>
	<path d="M 16.938,12.812 c -0.276,0 -0.5,-0.224 -0.5,-0.5 c 0,-4.474 -5.55,-11.875 -11.875,-11.875 c -0.276,0 -0.5,-0.224 -0.5,-0.5 s 0.224,-0.5 0.5,-0.5 c 6.983,0 12.875,7.908 12.875,12.875 c 0,0.277 -0.224,0.5 -0.5,0.5 Z" fill="#662113"/>
	<path d="M 19,12.875 c -0.276,0 -0.5,-0.224 -0.5,-0.5 c 0,-4.967 5.893,-12.875 12.875,-12.875 c 0.276,0 0.5,0.224 0.5,0.5 s -0.224,0.5 -0.5,0.5 c -6.325,0 -11.875,7.401 -11.875,11.875 c 0,0.276 -0.224,0.5 -0.5,0.5 Z" fill="#662113"/>
</svg>
