<svg xmlns="http://www.w3.org/2000/svg" viewBox="0 0 36 36">
	<path fill="#ff7c33" d="M 20.95,24.71 l -2.49,9.45 l -0.15,-0.15 l -1.79,-9.24 l 1.87,-2.94 l 2.56,2.88 Z"/><path fill="#ff7c33" d="M 19.48,13.79 l 5.88,-7.46 l 0.08,0.19 l -1.57,9.12 l -2.99,2.27 l -1.4,-4.12 Z"/><path fill="#ff7c33" d="M 24.57,11.34 l 7.69,-5.52 v0.17 l -2.72,3.95 l 2.25,-0.37 l -0.02,0.1 l -3.19,3.15 l -3.79,2.87 l -0.22,-4.35 Z"/><path fill="#ff7c33" d="M 13.83,14.03 l -0.83,-9.74 l 0.19,0.09 l 4.79,8.1 l -0.76,3.4 l -3.39,-1.85 Z"/>
	cloud
	<path fill="#b5c3c9" d="M 31.69,15.18 v0.01 c 0.65,2.36 -0.44,4.84 -2.49,5.73 c 1.35,2.1 0.36,5.59 -2.32,7.77 c -2.81,2.29 -5.95,3.01 -8.19,0.33 c -0.4,-0.48 -0.68,-0.97 -0.86,-1.47 c -0.16,0.26 -0.37,0.49 -0.62,0.69 c -1.38,1.07 -3.1,0.85 -4.16,-0.44 c -0.57,-0.7 -0.72,-1.56 -0.54,-2.38 c -2.48,0.13 -4.65,-1.13 -5.26,-3.27 c -0.74,-2.63 0.55,-4.93 3.19,-5.92 c -0.18,-0.35 -0.33,-0.71 -0.44,-1.1 c -0.93,-3.39 0.61,-6 4.43,-7.71 c 3.87,-1.74 9.08,-1.15 10.53,3.61 c 0.11,0.35 0.17,0.7 0.2,1.06 c 0.28,-0.16 0.59,-0.28 0.91,-0.37 c 2.4,-0.66 4.92,0.89 5.62,3.46 Z"/>
	<path fill="#dfe8ed" d="M 28.99,11.97 a 4.24,4.24 0 00 -3.83,0.13 c -0.03,-0.36 -0.09,-0.71 -0.2,-1.06 c -1.45,-4.76 -6.66,-5.35 -10.53,-3.61 c -3.82,1.71 -5.36,4.32 -4.43,7.71 c 0.11,0.39 0.26,0.75 0.44,1.1 c -1.1,0.41 -1.96,1.05 -2.54,1.84 c -0.51,1.08 -0.52,2.39 -0.14,3.32 c 0.69,1.65 2.17,2.37 3.58,2.54 c 0.99,0.12 1.82,0.12 2.27,0.06 c 0.4,-0.05 -0.42,0.88 -0.11,2.26 c 0.16,0.72 0.83,1.29 1.81,1.34 c 1.03,0.06 1.79,-0.71 2.03,-1.72 c 0.27,-1.16 0.38,-1.4 0.29,-1.82 l 1.2,0.1 c 0.03,2.36 1.33,4.63 3.73,4.63 s 5.24,-2.79 5.49,-5.17 c 0.26,-2.45 -1.98,-3.58 -1.24,-3.79 c 0.73,-0.21 2.96,-0.55 3.93,-2.95 c 0.82,-2.03 -0.32,-3.96 -1.75,-4.91"/>
	spike
	<path fill="#ff7c33" d="M 14.8,23.27 l -9.52,6.78 v-0.21 l 6.62,-8.57 l 2.13,0.09 l 0.77,1.91 Z"/>
	stars
	<path fill="#ff7c33" d="M 11.64,5.76 l -1.17,0.6 l -0.18,1.46 l -1.07,-1.05 l -1.51,0.36 l 0.6,-1.34 l -0.73,-1.24 l 1.5,0.21 l 0.96,-1.08 l 0.3,1.41 l 1.3,0.67 Z"/>
	<path fill="#ff7c33" d="M 4.72,24.51 l -0.89,1.1 l 0.45,1.52 l -1.51,-0.59 l -1.33,1 l 0.01,-1.57 l -1.24,-0.93 l 1.57,-0.43 l 0.48,-1.47 l 0.9,1.27 l 1.56,0.1 Z"/>
	cloud shading
	<path fill="#b5c3c9" d="M 26.92,16.56 c -0.09,-1.43 -1.36,-2.48 -1.55,-2.29 c -0.27,0.28 1.66,2.14 -0.26,3.53 c -1.19,0.86 -3.18,0.56 -3.89,0.04 c 0.4,0.75 0.57,1.79 0.28,3.22 c -0.25,1.26 -1.72,2.7 -3.48,2.76 c -1.62,0.05 -2.82,-1.35 -2.97,-2.63 c -0.04,-0.33 -0.06,-0.64 -0.07,-0.92 c -0.4,0.3 -2.04,1.07 -3.14,0.39 c -1.33,-0.82 -0.6,-2.37 -0.92,-2.54 c -0.29,-0.15 -0.95,1.94 0.06,2.96 c 0.72,0.73 1.6,0.78 2.63,0.78 c 0.02,0.15 0.05,0.3 0.08,0.45 c 0.62,2.45 3.51,3.69 5.93,3.08 s 3.88,-3.09 3.27,-5.53 c -0.01,-0.04 -0.02,-0.08 -0.03,-0.11 c 0.39,0 0.78,-0.04 1.16,-0.14 c 2.25,-0.6 2.98,-1.88 2.9,-3.05"/>
	<path fill="#b5c3c9" d="M 15.81,10.77 c -1.86,-0.44 -3.18,1.1 -2.92,2.71 c 0.08,0.46 0.3,0.9 0.56,1.18 c -0.51,0.25 -0.98,0.82 -0.88,1.53 c 0.15,1.07 1.44,1.37 1.67,1.26 c 0.13,-0.06 -1,-0.15 -1.09,-1.23 c -0.06,-0.73 0.69,-1.29 1.48,-1.36 c 0.4,-0.04 -0.67,-0.38 -0.92,-1.48 c -0.33,-1.43 0.7,-2.06 1.46,-2.1 c 1.47,-0.07 1.79,0.66 2.07,0.7 c 0.17,0.03 -0.53,-0.99 -1.43,-1.21"/>
	dark zaps
	<path fill="#626365" d="M 11.92,32.44 c -0.1,0.19 -0.34,0.26 -0.53,0.16 a 0.393,0.393 0 01 -0.16,-0.53 c 0,-0.01 3.21,-5.94 3.22,-5.95 c 0.11,-0.17 0.33,-0.23 0.51,-0.13 s 0.25,0.31 0.18,0.49 c 0,0.01 -3.21,5.94 -3.22,5.95 v0.01 Z"/><path fill="#626365" d="M 27.46,7.67 c -0.12,0.18 -0.37,0.22 -0.55,0.1 a 0.387,0.387 0 01 -0.09,-0.55 c 0,-0.01 2.98,-4.12 2.99,-4.13 c 0.13,-0.15 0.36,-0.19 0.52,-0.07 s 0.21,0.34 0.12,0.51 c 0,0.01 -2.98,4.12 -2.99,4.13 v0.01 Z"/><path fill="#626365" d="M 18.56,8.93 c 0,0.22 -0.17,0.4 -0.38,0.4 a 0.4,0.4 0 01 -0.4,-0.39 s -0.01,-4.05 -0.01,-5.06 c 0,-0.38 0.37,-0.45 0.59,-0.23 c 0.19,0.19 0.4,0.43 0.54,0.57 c 0.29,0.3 0.34,0.38 0.43,0.33 c 0.06,-0.04 0.04,-0.1 0.04,-0.35 c 0,-0.78 -0.01,-2.39 -0.01,-2.4 c 0.02,-0.2 0.18,-0.36 0.38,-0.36 s 0.37,0.15 0.4,0.35 c 0,0 0.01,2.79 0.01,3.86 c 0,0.43 -0.46,0.5 -0.72,0.25 c -0.21,-0.2 -0.25,-0.22 -0.45,-0.42 c -0.22,-0.21 -0.32,-0.32 -0.37,-0.3 c -0.04,0.01 -0.06,0.03 -0.06,0.15 c 0,1.22 0.01,3.59 0.01,3.6"/><path fill="#626365" d="M 27.12,22.3 a 0.393,0.393 0 01 -0.43,-0.35 a 0.4,0.4 0 01 0.35,-0.43 l 5.04,-0.4 c 0.38,-0.03 0.5,0.25 0.38,0.53 c -0.15,0.33 -0.15,0.31 -0.39,0.73 s -0.42,0.69 -0.35,0.79 c 0.04,0.06 0.07,0.08 0.31,0.06 c 0.78,-0.06 3.08,-0.26 3.08,-0.26 c 0.2,0 0.37,0.15 0.39,0.35 s -0.12,0.38 -0.31,0.42 c 0,0 -3.37,0.27 -4.45,0.34 c -0.37,0.03 -0.55,-0.29 -0.31,-0.7 c 0.32,-0.55 0.44,-0.76 0.61,-1.07 c 0.09,-0.16 0.06,-0.33 -0.18,-0.31 c -1.22,0.09 -3.75,0.3 -3.76,0.3 h0.02 Z"/><path fill="#626365" d="M 6.03,16.65 v-0.01 s -0.24,-0.14 -1.24,-0.65 c -0.42,-0.21 -0.67,-0.36 -0.63,0.04 s 0.02,0.09 0.04,0.46 c 0.03,0.47 -0.33,0.62 -0.66,0.45 c -0.95,-0.5 -1.94,-1.05 -1.94,-1.05 c -0.17,-0.11 -0.22,-0.34 -0.12,-0.51 a 0.4,0.4 0 01 0.5,-0.16 s 0.08,0.05 0.62,0.36 c 0.21,0.13 0.46,0.26 0.52,0.29 c 0.1,0.06 0.26,0.12 0.24,-0.11 c -0.04,-0.47 -0.03,-0.39 -0.06,-0.82 c -0.02,-0.31 0.27,-0.49 0.6,-0.31 c 0.89,0.48 2.52,1.34 2.52,1.34 c 0.19,0.1 0.26,0.34 0.15,0.53 s -0.35,0.26 -0.54,0.15 Z"/>
	rings
	<path fill="#8f80eb" d="M 31.79,30.55 h0.01 c -0.29,0.34 -1.04,1.19 -4.71,-0.29 c -0.15,-0.06 -0.53,-0.39 -0.38,-0.84 s 0.67,-0.41 0.77,-0.37 c 1.75,0.67 3.02,0.98 3.04,0.44 c 0.04,-0.98 -3.66,-6.34 -11.55,-12.2 c -4.79,-3.63 -9.49,-6.32 -12.26,-7.19 c -3.53,-1.2 -3.49,-0.32 -1.02,2.83 c 0.17,0.21 0.18,0.61 -0.06,0.8 c -0.28,0.22 -0.67,0.15 -0.9,-0.14 c -0.81,-0.99 -1.29,-1.7 -1.75,-2.64 c -0.83,-1.7 -0.52,-3.72 4.43,-1.8 c 3.54,1.38 7.47,3.71 12.19,7.17 c 8.89,6.66 13.45,12.73 12.19,14.23 Z"/><path fill="#8f80eb" d="M 35.75,17.58 l -0.02,0.01 c 0.13,0.83 -0.99,2.13 -4.04,3.09 c -0.14,0.06 -0.64,0.16 -0.81,-0.21 c -0.16,-0.35 0.14,-0.66 0.32,-0.72 c 1.72,-0.55 3.28,-1.26 3.19,-1.95 c -0.2,-1.43 -9.08,-2.39 -15.62,-1.92 c -6.4,0.46 -9.9,1.33 -12.25,2.06 c -3.15,0.98 -3.23,1.68 -3.12,2.05 c 0.24,0.8 3.02,1.51 3.66,1.5 c 0.04,0.32 0.24,0.96 0.24,0.96 s -4.99,-0.66 -5.28,-2.48 c -0.37,-2.29 7.01,-4.59 16.43,-5.28 c 9.19,-0.67 16.97,0.75 17.3,2.89 Z"/>
</svg>
