<svg xmlns="http://www.w3.org/2000/svg" viewBox="0 0 36 36">
	<path fill="#D99E82" d="M 35.222,33.598 c 0.11,0.359 -1.271,1.74 -1.63,1.63 c -2.101,-0.649 -6.06,-1.705 -7.566,-2.325 c -1.217,-0.501 -2.439,-0.969 -3.015,-1.544 c -0.575,-0.576 -0.53,-1.553 0.06,-2.143 c 0,0 1.677,-2.475 2.785,-3.357 c 0.885,-1.108 3.354,-2.783 3.354,-2.783 c 0.59,-0.588 1.568,-0.633 2.143,-0.058 c 0.575,0.576 1.043,1.798 1.544,3.014 c 0.62,1.507 1.678,5.465 2.325,7.566 Z"/>
	<path fill="#292F33" d="M 32.078,34.763 c 0.11,-2.63 2.676,-2.678 2.676,-2.678 s 1.497,2.703 0.765,3.435 s -3.441,-0.757 -3.441,-0.757 Z"/>
	<path fill="#FFCC4D" d="M 31.353,23.018 l -4.17,4.17 l -4.163,4.165 l -15.628,-15.627 v-8.334 h8.335 l 15.626,15.626 Z"/>
	<path fill="#EA596E" d="M 1.141,9.475 c -1.15,-1.151 -1.15,-3.016 0,-4.167 l 4.167,-4.167 c 1.15,-1.151 3.016,-1.151 4.167,0 l 1.043,1.041 v8.335 h-8.335 l -1.042,-1.042 Z"/>
	<path fill="#CCD6DD" d="M 2.183,10.517 l 8.335,-8.335 l 5.208,5.209 l -8.334,8.335 l -5.209,-5.209 Z"/>
	<path fill="#99AAB5" d="M 3.225,11.558 l 8.334,-8.334 l 1.042,1.042 l -8.334,8.334 l -1.042,-1.042 Z"/><path fill="#99AAB5" d="M 5.308,13.644 l 8.335,-8.335 l 1.042,1.042 l -8.335,8.334 l -1.042,-1.041 Z"/>
</svg>
